<svg width="960" height="540" viewBox="0 0 960 540" xmlns="http://www.w3.org/2000/svg" xmlns:xlink="http://www.w3.org/1999/xlink"><defs><path id="a" d="M0 0h960v540H0z"/></defs><g fill="none" fill-rule="evenodd"><mask id="b" fill="#fff"><use xlink:href="#a"/></mask><g mask="url(#b)"><path d="M-1 1h960v540H-1z"/><path d="M24.705 518.365v-1.93h6.463c.066.34.104.746.104 1.184 0 1.447-.397 3.24-1.672 4.515-1.24 1.293-2.827 1.982-4.929 1.982-3.895 0-7.17-3.17-7.17-7.066 0-3.895 3.275-7.066 7.17-7.066 2.154 0 3.689.844 4.843 1.947l-1.361 1.362c-.827-.776-1.948-1.379-3.481-1.379-2.844 0-5.068 2.292-5.068 5.136 0 2.844 2.224 5.136 5.068 5.136 1.844 0 2.895-.741 3.567-1.413.548-.547.908-1.333 1.048-2.408h-4.582zm16.483 1.213c0 2.62-2.05 4.55-4.567 4.55-2.517 0-4.567-1.93-4.567-4.55 0-2.637 2.05-4.55 4.567-4.55 2.516 0 4.567 1.913 4.567 4.55zm-1.999 0c0-1.637-1.189-2.758-2.568-2.758-1.378 0-2.568 1.12-2.568 2.758 0 1.62 1.189 2.758 2.568 2.758s2.568-1.138 2.568-2.758zm11.963 0c0 2.62-2.05 4.55-4.567 4.55-2.517 0-4.568-1.93-4.568-4.55 0-2.637 2.051-4.55 4.568-4.55 2.516 0 4.567 1.913 4.567 4.55zm-2 0c0-1.637-1.188-2.758-2.567-2.758-1.379 0-2.568 1.12-2.568 2.758 0 1.62 1.189 2.758 2.568 2.758 1.378 0 2.568-1.138 2.568-2.758zm11.55-4.274v8.17c0 3.36-1.982 4.739-4.326 4.739-2.206 0-3.533-1.483-4.033-2.69l1.74-.723c.311.741 1.069 1.62 2.293 1.62 1.5 0 2.43-.93 2.43-2.67v-.656h-.068c-.449.552-1.31 1.034-2.396 1.034-2.275 0-4.36-1.982-4.36-4.533 0-2.568 2.085-4.567 4.36-4.567 1.086 0 1.947.483 2.396 1.018h.068v-.742h1.896zm-1.758 4.291c0-1.602-1.068-2.775-2.43-2.775-1.379 0-2.533 1.173-2.533 2.775 0 1.586 1.154 2.741 2.533 2.741 1.361 0 2.43-1.155 2.43-2.74zm5.144-9.073v13.33H62.09v-13.33zm7.722 10.555l1.55 1.034c-.5.742-1.706 2.017-3.791 2.017-2.586 0-4.516-2-4.516-4.55 0-2.707 1.948-4.551 4.292-4.551 2.361 0 3.516 1.879 3.895 2.896l.207.517-6.084 2.516c.465.914 1.19 1.379 2.206 1.379s1.723-.499 2.24-1.258zm-4.775-1.637l4.067-1.69c-.224-.568-.896-.965-1.689-.965-1.017.001-2.43.897-2.378 2.655z" fill="#666"/><path d="M532.93 504.54h373.857v29.072H532.93z"/><path fill="#434343" d="M492.68 25.388h435.4v466.898h-435.4z"/><path d="M501.649 52.308l5.234-13.593h1.937l5.563 13.593h-2.047l-1.594-4.125h-5.687l-1.485 4.125h-1.921zm3.921-5.578h4.61l-1.406-3.78c-.438-1.136-.76-2.074-.97-2.813a17.84 17.84 0 0 1-.734 2.593l-1.5 4zm10.022 5.578V38.715h5.125c.906 0 1.6.041 2.078.125.667.114 1.224.328 1.672.64.448.313.807.75 1.078 1.313.281.562.422 1.177.422 1.844 0 1.156-.37 2.135-1.11 2.937-.728.802-2.057 1.203-3.984 1.203h-3.484v5.531h-1.797zm1.797-7.14h3.516c1.166 0 1.99-.214 2.468-.64.49-.438.735-1.048.735-1.829 0-.573-.146-1.062-.438-1.469a1.938 1.938 0 0 0-1.125-.797c-.302-.083-.86-.125-1.672-.125h-3.484v4.86zm10.944 7.14V38.715h1.812v13.593h-1.812zm18.163-1.609v1.61h-8.984c-.01-.407.052-.792.187-1.157.23-.614.594-1.219 1.094-1.812.51-.594 1.24-1.282 2.187-2.063 1.48-1.208 2.48-2.166 3-2.875.521-.708.782-1.38.782-2.015 0-.657-.24-1.214-.72-1.672-.468-.459-1.082-.688-1.843-.688-.802 0-1.448.245-1.937.735-.48.479-.72 1.145-.72 2l-1.718-.172c.115-1.282.557-2.256 1.328-2.922.771-.677 1.802-1.016 3.094-1.016 1.302 0 2.333.365 3.094 1.094.76.719 1.14 1.615 1.14 2.687a4.03 4.03 0 0 1-.343 1.61c-.22.52-.589 1.073-1.11 1.656-.51.573-1.364 1.37-2.562 2.39-1 .844-1.646 1.417-1.938 1.72a5.372 5.372 0 0 0-.703.89h6.672z" fill="#FFF" fill-rule="nonzero"/><path fill="#434343" d="M43.806 37.042h379.307V503.94H43.806z"/><path d="M52.775 63.962l5.234-13.594h1.937l5.563 13.594h-2.047l-1.594-4.125h-5.687l-1.485 4.125h-1.921zm3.921-5.578h4.61L59.9 54.603c-.438-1.136-.76-2.073-.97-2.813a17.84 17.84 0 0 1-.734 2.594l-1.5 4zm10.022 5.578V50.368h5.125c.906 0 1.6.042 2.078.125.667.115 1.224.328 1.672.64.448.313.807.75 1.078 1.313a4.07 4.07 0 0 1 .422 1.844c0 1.156-.37 2.136-1.11 2.938-.728.802-2.057 1.203-3.984 1.203h-3.484v5.531h-1.797zm1.797-7.14h3.516c1.166 0 1.99-.214 2.468-.641.49-.438.735-1.047.735-1.828 0-.573-.146-1.063-.438-1.47a1.938 1.938 0 0 0-1.125-.796c-.302-.083-.86-.125-1.672-.125h-3.484v4.86zm10.944 7.14V50.368h1.812v13.594h-1.812zm15.679 0h-1.672v-10.64c-.396.385-.922.77-1.578 1.156a12.84 12.84 0 0 1-1.766.859v-1.625a9.961 9.961 0 0 0 2.453-1.594c.698-.625 1.193-1.229 1.485-1.812h1.078v13.656z" fill="#FFF" fill-rule="nonzero"/><path fill="#4285F4" d="M514.633 143.72h140.881v132.692H514.633z"/><path d="M528.07 205.986v-11.297h-4.031v-2.297h10.812v2.297h-4.03v11.297h-2.75zm7.084-9.86h2.78l2.36 7 2.297-7h2.703l-3.484 9.485-.625 1.718c-.23.573-.448 1.01-.656 1.313a2.564 2.564 0 0 1-.704.75c-.27.187-.604.333-1 .437a5.221 5.221 0 0 1-1.328.157c-.5 0-.99-.052-1.468-.157l-.235-2.047a5.5 5.5 0 0 0 1.094.125c.614 0 1.062-.177 1.344-.53.291-.355.515-.808.672-1.36l-3.75-9.89zm11.547 0h2.422v1.453c.312-.49.74-.89 1.281-1.203a3.531 3.531 0 0 1 1.797-.469c1.136 0 2.104.448 2.906 1.344.802.896 1.203 2.146 1.203 3.75 0 1.646-.406 2.927-1.218 3.844-.802.906-1.776 1.36-2.922 1.36a3.477 3.477 0 0 1-1.485-.313c-.437-.219-.9-.594-1.39-1.125v4.969H546.7v-13.61zm2.578 4.766c0 1.104.219 1.922.656 2.453.438.531.97.797 1.594.797.615 0 1.12-.24 1.516-.719.406-.49.61-1.292.61-2.406 0-1.031-.21-1.797-.626-2.297-.416-.5-.927-.75-1.531-.75a2 2 0 0 0-1.594.734c-.416.49-.625 1.22-.625 2.188zm14.584 1.953l2.61.437c-.334.959-.865 1.688-1.595 2.188-.718.49-1.62.734-2.703.734-1.708 0-2.974-.557-3.797-1.672-.645-.895-.968-2.03-.968-3.406 0-1.625.421-2.9 1.265-3.828.854-.927 1.938-1.39 3.25-1.39 1.459 0 2.61.484 3.453 1.453.855.968 1.266 2.453 1.235 4.453h-6.532c.01.77.22 1.375.625 1.812.407.427.907.64 1.5.64.407 0 .75-.109 1.032-.327.281-.23.49-.594.625-1.094zm.156-2.625c-.02-.76-.219-1.333-.594-1.719a1.756 1.756 0 0 0-1.344-.594c-.572 0-1.041.209-1.406.625-.375.407-.557.97-.547 1.688h3.891zm8.34 5.766l4.64-7.094-4.202-6.5H576l2.734 4.36 2.672-4.36h3.188l-4.235 6.594 4.64 7h-3.312l-3.015-4.704-3.016 4.704h-3.297zm-47.008 22v-1.907h1.907v1.907h-1.907zm5.184 0v-1.907h1.906v1.907h-1.906zm5.183 0v-1.907h1.906v1.907h-1.906z" fill="#F3F3F3" fill-rule="nonzero"/><path fill="#4285F4" d="M764.79 51.215h140.882v132.693H764.79z"/><path d="M778.228 113.482v-11.297h-4.032v-2.297h10.813v2.297h-4.031v11.297h-2.75zm7.083-9.86h2.781l2.36 7 2.297-7h2.703l-3.485 9.485-.625 1.718c-.229.573-.448 1.01-.656 1.313a2.564 2.564 0 0 1-.703.75c-.27.187-.604.333-1 .437a5.221 5.221 0 0 1-1.328.157c-.5 0-.99-.052-1.469-.157l-.234-2.046a5.5 5.5 0 0 0 1.093.125c.615 0 1.063-.178 1.344-.532.292-.354.516-.807.672-1.36l-3.75-9.89zm11.548 0h2.421v1.453c.313-.49.74-.89 1.282-1.203a3.531 3.531 0 0 1 1.797-.468c1.135 0 2.104.447 2.906 1.343.802.896 1.203 2.146 1.203 3.75 0 1.646-.406 2.927-1.219 3.844-.802.906-1.776 1.36-2.922 1.36a3.477 3.477 0 0 1-1.484-.313c-.438-.219-.901-.594-1.39-1.125v4.969h-2.594v-13.61zm2.578 4.766c0 1.104.218 1.922.656 2.453.437.531.969.797 1.594.797.614 0 1.12-.24 1.515-.719.407-.49.61-1.291.61-2.406 0-1.031-.209-1.797-.625-2.297-.417-.5-.927-.75-1.532-.75a2 2 0 0 0-1.593.734c-.417.49-.625 1.22-.625 2.188zm14.583 1.953l2.61.438c-.334.958-.865 1.687-1.594 2.187-.719.49-1.62.734-2.703.734-1.709 0-2.974-.557-3.797-1.671-.646-.896-.969-2.032-.969-3.407 0-1.625.422-2.9 1.266-3.828.854-.927 1.937-1.39 3.25-1.39 1.458 0 2.61.484 3.453 1.453.854.968 1.265 2.453 1.234 4.453h-6.531c.01.77.219 1.375.625 1.812.406.427.906.64 1.5.64.406 0 .75-.108 1.031-.327.281-.23.49-.594.625-1.094zm.156-2.625c-.02-.76-.218-1.333-.593-1.719a1.756 1.756 0 0 0-1.344-.593c-.573 0-1.042.208-1.406.625-.375.406-.558.968-.547 1.687h3.89zm13.294 5.766v-5.72l-4.985-7.874h3.22l3.202 5.375 3.141-5.375h3.156l-5 7.89v5.704h-2.734zm-51.961 22v-1.907h1.906v1.907h-1.906zm5.183 0v-1.907h1.906v1.907h-1.906zm5.183 0v-1.907h1.907v1.907h-1.907z" fill="#F3F3F3" fill-rule="nonzero"/><path d="M655.514 210.066l109.292-92.504"/><path d="M655.514 210.066l109.292-92.504" stroke="#4285F4" stroke-width="4" stroke-linejoin="round"/><path fill="#34A853" d="M104.64 105.467h140.882V238.16H104.64z"/><path d="M118.078 167.734v-11.297h-4.031v-2.297h10.812v2.297h-4.031v11.297h-2.75zm7.083-9.86h2.782l2.359 7 2.297-7h2.703l-3.484 9.485-.625 1.718c-.23.573-.448 1.01-.657 1.313a2.564 2.564 0 0 1-.703.75c-.27.187-.604.333-1 .437a5.221 5.221 0 0 1-1.328.157c-.5 0-.99-.052-1.469-.157l-.234-2.046a5.5 5.5 0 0 0 1.094.125c.614 0 1.062-.178 1.344-.532.291-.354.515-.807.671-1.36l-3.75-9.89zm11.548 0h2.422v1.453c.312-.49.74-.89 1.281-1.203a3.531 3.531 0 0 1 1.797-.468c1.135 0 2.104.447 2.906 1.343.802.896 1.203 2.146 1.203 3.75 0 1.646-.406 2.927-1.218 3.844-.802.906-1.776 1.36-2.922 1.36a3.477 3.477 0 0 1-1.485-.313c-.437-.219-.9-.594-1.39-1.125v4.969h-2.594v-13.61zm2.578 4.766c0 1.104.219 1.922.656 2.453.438.531.97.797 1.594.797.615 0 1.12-.24 1.516-.719.406-.49.61-1.292.61-2.406 0-1.031-.21-1.797-.626-2.297-.417-.5-.927-.75-1.531-.75a2 2 0 0 0-1.594.734c-.417.49-.625 1.22-.625 2.188zm14.584 1.953l2.609.438c-.333.958-.865 1.687-1.594 2.187-.719.49-1.62.734-2.703.734-1.708 0-2.974-.557-3.797-1.671-.646-.896-.969-2.032-.969-3.407 0-1.625.422-2.9 1.266-3.828.854-.927 1.938-1.39 3.25-1.39 1.458 0 2.61.484 3.453 1.453.854.968 1.266 2.453 1.235 4.453h-6.532c.01.77.22 1.375.625 1.812.407.427.907.64 1.5.64.407 0 .75-.108 1.032-.327.28-.23.49-.594.625-1.094zm.156-2.625c-.021-.76-.219-1.333-.594-1.719a1.756 1.756 0 0 0-1.344-.593c-.573 0-1.041.208-1.406.625-.375.406-.557.968-.547 1.687h3.89zm15.825 5.766h-2.61v-9.828a9.023 9.023 0 0 1-3.375 1.984v-2.375c.688-.219 1.427-.636 2.219-1.25.802-.625 1.349-1.354 1.64-2.188h2.126v13.657zm-54.492 22v-1.907h1.905v1.907h-1.906zm5.182 0v-1.907h1.907v1.907h-1.907zm5.184 0v-1.907h1.906v1.907h-1.906z" fill="#F3F3F3" fill-rule="nonzero"/><path fill="#34A853" d="M261.417 311.501H402.3v132.693H261.417z"/><path d="M274.855 373.768V362.47h-4.031v-2.297h10.812v2.297h-4.031v11.297h-2.75zm7.083-9.86h2.782l2.359 7 2.297-7h2.703l-3.484 9.485-.625 1.719c-.23.572-.448 1.01-.657 1.312a2.564 2.564 0 0 1-.703.75c-.27.188-.604.333-1 .438a5.221 5.221 0 0 1-1.328.156c-.5 0-.99-.052-1.469-.156l-.234-2.047a5.5 5.5 0 0 0 1.094.125c.614 0 1.062-.177 1.343-.532.292-.354.516-.807.672-1.359l-3.75-9.89zm11.548 0h2.422v1.454c.312-.49.74-.891 1.281-1.204a3.531 3.531 0 0 1 1.797-.468c1.135 0 2.104.448 2.906 1.343.802.896 1.203 2.146 1.203 3.75 0 1.646-.406 2.927-1.218 3.844-.803.906-1.777 1.36-2.922 1.36a3.477 3.477 0 0 1-1.485-.313c-.437-.219-.9-.594-1.39-1.125v4.969h-2.594v-13.61zm2.578 4.766c0 1.104.219 1.922.656 2.453.438.531.969.797 1.594.797.615 0 1.12-.24 1.516-.719.406-.49.609-1.291.609-2.406 0-1.031-.208-1.797-.625-2.297-.417-.5-.927-.75-1.531-.75a2 2 0 0 0-1.594.735c-.417.49-.625 1.218-.625 2.187zm14.583 1.953l2.61.438c-.333.958-.865 1.687-1.594 2.187-.719.49-1.62.735-2.703.735-1.708 0-2.974-.558-3.797-1.672-.646-.896-.969-2.032-.969-3.407 0-1.625.422-2.9 1.266-3.828.854-.927 1.937-1.39 3.25-1.39 1.458 0 2.61.484 3.453 1.453.854.969 1.266 2.453 1.234 4.453h-6.53c.01.77.218 1.375.624 1.812.406.427.906.641 1.5.641.406 0 .75-.11 1.031-.328.282-.23.49-.594.625-1.094zm.157-2.625c-.021-.76-.219-1.333-.594-1.719a1.756 1.756 0 0 0-1.344-.593c-.573 0-1.041.208-1.406.625-.375.406-.557.968-.547 1.687h3.89zm9.059 2.156l2.515-.312c.084.646.302 1.14.657 1.484.354.334.78.5 1.28.5.532 0 .98-.203 1.345-.61.375-.405.562-.952.562-1.64 0-.656-.177-1.177-.531-1.562-.354-.386-.781-.578-1.281-.578-.334 0-.735.067-1.203.203l.28-2.125c.71.01 1.246-.146 1.61-.469.375-.323.563-.755.563-1.297 0-.458-.136-.823-.407-1.094-.27-.27-.63-.406-1.078-.406-.448 0-.828.156-1.14.469-.313.312-.506.766-.578 1.36l-2.407-.423c.167-.823.417-1.479.75-1.968.344-.49.818-.875 1.422-1.157.604-.28 1.281-.421 2.031-.421 1.271 0 2.297.406 3.079 1.218.635.667.953 1.422.953 2.266 0 1.198-.651 2.15-1.953 2.86.77.166 1.39.54 1.859 1.124.469.584.703 1.287.703 2.11 0 1.187-.437 2.203-1.312 3.047-.865.843-1.948 1.265-3.25 1.265-1.23 0-2.25-.354-3.063-1.062-.812-.709-1.281-1.636-1.406-2.782zm-47.727 25.61v-1.906h1.906v1.906h-1.906zm5.183 0v-1.906h1.907v1.906h-1.907zm5.184 0v-1.906h1.906v1.906h-1.906z" fill="#F3F3F3" fill-rule="nonzero"/><path fill="#34A853" d="M80.75 341.556h140.883V474.25H80.75z"/><path d="M94.188 403.823v-11.297h-4.031v-2.297h10.812v2.297h-4.03v11.297h-2.75zm7.084-9.86h2.78l2.36 7 2.297-7h2.703l-3.484 9.485-.625 1.719c-.23.573-.448 1.01-.656 1.312a2.564 2.564 0 0 1-.703.75 3.173 3.173 0 0 1-1 .438 5.221 5.221 0 0 1-1.329.156c-.5 0-.99-.052-1.468-.156l-.235-2.047a5.5 5.5 0 0 0 1.094.125c.615 0 1.063-.177 1.344-.531.291-.355.515-.808.672-1.36l-3.75-9.89zm11.547 0h2.422v1.454c.313-.49.74-.891 1.281-1.203a3.531 3.531 0 0 1 1.797-.47c1.136 0 2.104.449 2.906 1.345.803.895 1.204 2.145 1.204 3.75 0 1.645-.407 2.927-1.22 3.843-.801.907-1.775 1.36-2.921 1.36a3.477 3.477 0 0 1-1.484-.313c-.438-.219-.901-.594-1.391-1.125v4.969h-2.594v-13.61zm2.578 4.766c0 1.104.22 1.922.657 2.453.437.532.968.797 1.593.797.615 0 1.12-.24 1.516-.719.406-.49.61-1.291.61-2.406 0-1.031-.209-1.797-.626-2.297-.416-.5-.927-.75-1.53-.75a2 2 0 0 0-1.595.735c-.416.49-.625 1.218-.625 2.187zm14.584 1.953l2.61.438c-.334.958-.865 1.687-1.595 2.187-.718.49-1.62.735-2.703.735-1.708 0-2.974-.558-3.797-1.672-.645-.896-.968-2.031-.968-3.406 0-1.625.422-2.902 1.265-3.829.855-.927 1.938-1.39 3.25-1.39 1.459 0 2.61.484 3.453 1.453.855.969 1.266 2.453 1.235 4.453H126.2c.01.77.218 1.375.625 1.813.406.427.906.64 1.5.64.406 0 .75-.11 1.03-.328.282-.23.49-.594.626-1.094zm.156-2.625c-.02-.76-.219-1.333-.594-1.718a1.756 1.756 0 0 0-1.343-.594c-.573 0-1.042.208-1.407.625-.375.406-.557.969-.547 1.687h3.891zm17.95 3.344v2.422h-9.14a6.368 6.368 0 0 1 .89-2.594c.5-.823 1.479-1.911 2.937-3.265 1.177-1.094 1.896-1.839 2.156-2.235.365-.531.547-1.062.547-1.594 0-.583-.156-1.03-.468-1.343-.313-.313-.745-.47-1.297-.47-.542 0-.974.168-1.297.5-.323.324-.51.865-.563 1.626l-2.593-.25c.156-1.438.64-2.469 1.453-3.094.812-.625 1.833-.937 3.062-.937 1.344 0 2.396.364 3.156 1.093.771.72 1.157 1.615 1.157 2.688 0 .614-.11 1.198-.328 1.75-.22.552-.568 1.13-1.047 1.734-.313.407-.88.99-1.703 1.75-.823.75-1.344 1.25-1.563 1.5a3.98 3.98 0 0 0-.531.719h5.172zM91.47 425.823v-1.906h1.906v1.906h-1.907zm5.183 0v-1.906h1.906v1.906h-1.906zm5.183 0v-1.906h1.906v1.906h-1.906z" fill="#F3F3F3" fill-rule="nonzero"/><path d="M175.081 238.16l156.788 73.354"/><path d="M175.081 238.16l156.788 73.354" stroke="#34A853" stroke-width="4" stroke-linejoin="round"/><path d="M175.081 238.16l-23.874 103.402"/><path d="M175.081 238.16l-23.874 103.402" stroke="#34A853" stroke-width="4" stroke-linejoin="round"/><path d="M221.633 407.903l39.78-30.047"/><path d="M221.633 407.903l39.78-30.047" stroke="#34A853" stroke-width="4" stroke-linejoin="round"/><path d="M514.633 210.066L245.53 171.829"/><path d="M514.633 210.066L245.53 171.829" stroke="#EA4335" stroke-width="4" stroke-linejoin="round" stroke-dasharray="16,12"/><path d="M514.633 210.066l-112.347 167.78"/><path d="M514.633 210.066l-112.347 167.78" stroke="#EA4335" stroke-width="4" stroke-linejoin="round" stroke-dasharray="16,12"/></g></g></svg>