<?xml version="1.0" encoding="utf-8"?>
<!-- Generator: Adobe Illustrator 16.0.0, SVG Export Plug-In . SVG Version: 6.00 Build 0)  -->
<!DOCTYPE svg PUBLIC "-//W3C//DTD SVG 1.1//EN" "http://www.w3.org/Graphics/SVG/1.1/DTD/svg11.dtd">
<svg version="1.1" id="Layer_1" xmlns="http://www.w3.org/2000/svg" xmlns:xlink="http://www.w3.org/1999/xlink" x="0px" y="0px"
	 width="1024px" height="1024px" viewBox="0 0 1024 1024" enable-background="new 0 0 1024 1024" xml:space="preserve">
<g>
	<rect x="102.514" y="632.192" fill="#4285F4" width="192.444" height="163.345"/>
	<path fill="#34A853" d="M574.856,814.809v-18.928H431.199V929.37h23.546v-89.053c0-14.087,11.422-25.509,25.509-25.509H574.856z"/>
	<rect x="431.463" y="57.271" fill="#4285F4" width="192.444" height="163.349"/>
	<rect x="480.254" y="840.317" fill="#34A853" width="143.653" height="133.493"/>
	<rect x="126.908" y="244.664" fill="#34A853" width="143.654" height="156.022"/>
	<rect x="774.524" y="247.098" fill="#FF9800" width="152.58" height="147.649"/>
	<rect x="774.524" y="630.793" fill="#FF9800" width="152.58" height="147.646"/>
	<path fill="#FFFFFF" d="M864.239,420.256h2.552h60.313c14.087,0,25.51-11.42,25.51-25.509V247.098
		c0-14.088-11.423-25.509-25.51-25.509h-152.58c-14.087,0-25.509,11.421-25.509,25.509v0.086v2.946l-99.6-57.506v-2.946V57.271
		c0-14.088-11.422-25.509-25.509-25.509H431.463c-14.087,0-25.509,11.42-25.509,25.509v127.171v2.946l-109.884,63.444v-2.946v-3.222
		c0-14.088-11.421-25.509-25.509-25.509H126.908c-14.088,0-25.509,11.42-25.509,25.509v156.022
		c0,14.088,11.421,25.508,25.509,25.508h52.846h2.551v180.489h-2.551h-77.24c-14.088,0-25.509,11.419-25.509,25.509v163.345
		c0,14.088,11.42,25.509,25.509,25.509h192.444c14.087,0,25.509-11.421,25.509-25.509v-2.544v-2.946l85.223,49.207v2.945v87.171
		c0,14.087,11.422,25.508,25.509,25.508h23.546v18.933c0,14.089,11.422,25.51,25.509,25.51h143.653
		c14.087,0,25.509-11.421,25.509-25.51V840.317c0-1.985-0.249-3.905-0.678-5.76c-0.199-0.861-0.443-1.701-0.725-2.527
		l101.002-58.317v2.946v1.779c0,14.087,11.422,25.509,25.509,25.509h152.58c14.087,0,25.51-11.422,25.51-25.509V630.793
		c0-14.088-11.423-25.509-25.51-25.509h-60.313h-2.552V420.256z M774.524,247.098h152.58v147.649h-152.58V247.098z M431.463,57.271
		h192.444V220.62H431.463V57.271z M296.071,400.686v-108.16v-2.946l110.419-63.752c0.181,0.869,0.41,1.722,0.677,2.556
		c3.286,10.29,12.917,17.744,24.296,17.744h7.535h2.945L233.771,606.684h-2.946h-12.409h-2.551V426.194h2.551h52.146
		C284.649,426.194,296.071,414.774,296.071,400.686z M126.908,400.686V244.664h143.654v156.022H126.908z M294.958,795.537H102.514
		V632.192h192.444V795.537z M454.745,840.317v89.053h-23.546V795.881h143.658v18.928h-94.603
		C466.167,814.809,454.745,826.23,454.745,840.317z M623.907,973.811H480.254V840.317h143.653V973.811z M749.016,720.141v17.525
		v2.945l-128.509,74.197h-5.103h-15.039v-18.928c0-14.087-11.421-25.508-25.509-25.508H431.199
		c-14.087,0-25.509,11.421-25.509,25.508v1.678v2.943l-85.223-49.204v-2.945v-28.212v-2.551h428.549V720.141z M770.549,605.625
		c-12.195,1.915-21.533,12.438-21.533,25.168v50.687v2.551H320.467v-2.551v-49.287c0-14.09-11.422-25.509-25.509-25.509h-19.491
		h-2.946l208.175-360.555h2.944h79.347h2.947l207.399,359.215C772.391,605.388,771.463,605.482,770.549,605.625z M604.683,246.128
		h2.945h16.279c9.757,0,18.229-5.484,22.519-13.536c0.401-0.752,0.761-1.525,1.087-2.319l101.503,58.605v2.946v102.923
		c0,14.088,11.422,25.509,25.509,25.509h53.604h2.552v185.028h-2.552h-13.136h-2.943L604.683,246.128z M927.104,630.793v147.646
		h-152.58V630.793H927.104z"/>
</g>
</svg>
