<svg xmlns="http://www.w3.org/2000/svg" width="1024" height="1024" viewBox="0 0 1024 1024"><path fill="#4285F4" d="M102.514 632.192h192.444v163.345H102.514z"/><path fill="#34A853" d="M574.856 814.809v-18.928H431.199V929.37h23.546v-89.053c0-14.087 11.422-25.509 25.509-25.509h94.602z"/><path fill="#4285F4" d="M431.463 57.271h192.444V220.62H431.463z"/><path fill="#34A853" d="M480.254 840.317h143.653V973.81H480.254zM126.908 244.664h143.654v156.022H126.908z"/><path fill="#FF9800" d="M774.524 247.098h152.58v147.649h-152.58zm0 383.695h152.58v147.646h-152.58z"/><path fill="#FFF" d="M864.239 420.256h62.865c14.087 0 25.51-11.42 25.51-25.509V247.098c0-14.088-11.423-25.509-25.51-25.509h-152.58c-14.087 0-25.509 11.421-25.509 25.509v3.032l-99.6-57.506V57.271c0-14.088-11.422-25.509-25.509-25.509H431.463c-14.087 0-25.509 11.42-25.509 25.509v130.117L296.07 250.832v-6.168c0-14.088-11.421-25.509-25.509-25.509H126.908c-14.088 0-25.509 11.42-25.509 25.509v156.022c0 14.088 11.421 25.508 25.509 25.508h55.397v180.489h-79.791c-14.088 0-25.509 11.419-25.509 25.509v163.345c0 14.088 11.42 25.509 25.509 25.509h192.444c14.087 0 25.509-11.421 25.509-25.509v-5.49l85.223 49.207v90.116c0 14.087 11.422 25.508 25.509 25.508h23.546v18.933c0 14.089 11.422 25.51 25.509 25.51h143.653c14.087 0 25.509-11.421 25.509-25.51V840.317a25.49 25.49 0 0 0-.678-5.76 25.776 25.776 0 0 0-.725-2.527l101.002-58.317v4.725c0 14.087 11.422 25.509 25.509 25.509h152.58c14.087 0 25.51-11.422 25.51-25.509V630.793c0-14.088-11.423-25.509-25.51-25.509h-62.865V420.256zm-89.715-173.158h152.58v147.649h-152.58V247.098zM431.463 57.271h192.444V220.62H431.463V57.271zM296.071 400.686V289.58l110.419-63.752c.181.869.41 1.722.677 2.556 3.286 10.29 12.917 17.744 24.296 17.744h10.48L233.771 606.684h-17.906v-180.49h54.697c14.087 0 25.509-11.42 25.509-25.508zm-169.163 0V244.664h143.654v156.022H126.908zm168.05 394.851H102.514V632.192h192.444v163.345zm159.787 44.78v89.053h-23.546V795.881h143.658v18.928h-94.603c-14.087 0-25.509 11.421-25.509 25.508zm169.162 133.494H480.254V840.317h143.653v133.494zm125.109-253.67v20.47l-128.509 74.197h-20.142V795.88c0-14.087-11.421-25.508-25.509-25.508H431.199c-14.087 0-25.509 11.421-25.509 25.508v4.621l-85.223-49.204v-33.708h428.549v2.552zm21.533-114.516c-12.195 1.915-21.533 12.438-21.533 25.168v53.238H320.467v-51.838c0-14.09-11.422-25.509-25.509-25.509h-22.437l208.175-360.555h85.238l207.399 359.215a25.78 25.78 0 0 0-2.784.281zM604.683 246.128h19.224c9.757 0 18.229-5.484 22.519-13.536.401-.752.761-1.525 1.087-2.319l101.503 58.605v105.869c0 14.088 11.422 25.509 25.509 25.509h56.156v185.028H812.05L604.683 246.128zm322.421 384.665v147.646h-152.58V630.793h152.58z"/></svg>