<svg xmlns="http://www.w3.org/2000/svg" width="1277" height="1201" viewBox="0 0 1277 1201"><path fill="#1B9CE2" stroke="#1B9CE2" stroke-width="10" stroke-linejoin="round" stroke-miterlimit="10" d="M495 714.349h311.172V963H495z"/><path fill="#4285F4" stroke="#FFF" stroke-width="4" stroke-linejoin="round" stroke-miterlimit="10" d="M511 822.149h133.412V937H511zm147.789 0h133.414V937H658.789z"/><path fill="#1B9CE2" stroke="#1B9CE2" stroke-width="10" stroke-linejoin="round" stroke-miterlimit="10" d="M139.839 714.349h330V923h-330z"/><path fill="#34A853" stroke="#FFF" stroke-width="4" stroke-linejoin="round" stroke-miterlimit="10" d="M154.591 818.052h90.398v83.418h-90.398zm103.6 0h90.398v83.418h-90.398zm103.599 0h90.398v83.418H361.79z"/><path fill="#1B9CE2" stroke="#1B9CE2" stroke-width="10" stroke-linejoin="round" stroke-miterlimit="10" d="M831.275 714.349H1177V937H831.275z"/><path fill="#FF9800" stroke="#FFF" stroke-width="4" stroke-linejoin="round" stroke-miterlimit="10" d="M847.537 822.956h141.81v92.307h-141.81zm159.014 0h141.809v92.307h-141.809z"/><g fill="#1B9CE2"><path d="M151 603.038c-5.523 0-10-4.478-10-10V166.604c0-5.523 4.477-10 10-10h758.172c5.522 0 10 4.477 10 10v426.434c0 5.522-4.478 10-10 10H151z"/><path d="M909.172 166.604v426.434H151V166.604h758.172m0-20H151c-11.046 0-20 8.954-20 20v426.434c0 11.046 8.954 20 20 20h758.172c11.046 0 20-8.954 20-20V166.604c0-11.046-8.954-20-20-20z"/></g><path fill="#1B9CE2" d="M995.36 663.69v51.659h-40V683.69H687.57v31.659h-40V683.69H351.08v31.659h-40V663.69c0-11.04 8.96-20 20-20H565.3v-31.65h40v31.65h370.06c11.04 0 20 8.96 20 20z"/><path d="M184.605 247h-6.926v-50.977h15.047c5.953 0 10.482 1.283 13.588 3.85 3.105 2.566 4.658 6.275 4.658 11.127 0 3.445-.832 6.334-2.496 8.666-1.665 2.333-4.078 4.049-7.242 5.15L212.836 247h-7.98l-10.828-20.953h-9.422V247zm19.161-36c0-2.976-.902-5.197-2.707-6.662-1.805-1.464-4.583-2.197-8.332-2.197h-8.121v17.789h8.121c7.359 0 11.039-2.976 11.039-8.93zm24.398 27.527c1.875 2.039 4.512 3.059 7.91 3.059 1.875 0 3.686-.199 5.432-.598 1.746-.398 3.732-1.078 5.959-2.039l2.145 5.027c-2.555 1.243-4.945 2.15-7.172 2.725a26.803 26.803 0 0 1-6.715.861c-5.578 0-9.902-1.675-12.973-5.027-3.071-3.352-4.605-8.051-4.605-14.098s1.512-10.74 4.535-14.08 7.3-5.01 12.832-5.01c5.18 0 9.041 1.559 11.584 4.676 2.543 3.117 3.814 7.84 3.814 14.168v1.512h-25.84c.188 3.844 1.219 6.785 3.094 8.824zm13.307-21.006c-1.441-1.464-3.428-2.197-5.959-2.197-5.625 0-8.988 2.906-10.09 8.719h18.492c-.188-2.883-1.002-5.057-2.443-6.522zm16.506 30.622c1.172-2.543 1.758-5.033 1.758-7.471V209.98h6.785v30.691c0 3.516-.832 6.803-2.496 9.861-1.665 3.059-4.312 6.252-7.945 9.58l-3.902-3.164c2.694-3.327 4.627-6.262 5.8-8.805zm1.757-51.838h6.785v6.926h-6.785v-6.926zm46.196 18.017c3.07 3.363 4.605 8.068 4.605 14.115s-1.535 10.746-4.605 14.098c-3.071 3.352-7.383 5.027-12.938 5.027-5.578 0-9.902-1.675-12.973-5.027-3.071-3.352-4.605-8.051-4.605-14.098s1.535-10.752 4.605-14.115c3.07-3.363 7.395-5.045 12.973-5.045 5.555 0 9.867 1.682 12.938 5.045zm-20.866 4.307c-1.816 2.25-2.725 5.52-2.725 9.809 0 4.266.908 7.523 2.725 9.773 1.816 2.25 4.459 3.375 7.928 3.375 3.445 0 6.082-1.125 7.91-3.375s2.742-5.507 2.742-9.773-.914-7.529-2.742-9.791c-1.828-2.262-4.465-3.393-7.91-3.393-3.469 0-6.112 1.125-7.928 3.375zm34.471-22.324h6.75v6.926h-6.75v-6.926zm0 13.675h6.75V247h-6.75v-37.02zm30.692.809c2.132-.961 4.523-1.441 7.172-1.441 3.938 0 6.949 1.137 9.035 3.41 2.086 2.273 3.129 5.578 3.129 9.914V247h-6.785v-23.836c0-2.742-.562-4.734-1.688-5.977-1.125-1.242-2.93-1.863-5.414-1.863-2.203 0-4.266.492-6.188 1.477-1.922.984-3.469 2.344-4.641 4.078V247h-6.75v-37.02h5.484l.773 5.203c1.782-1.968 3.74-3.433 5.873-4.394zm37.546 27.738c1.875 2.039 4.512 3.059 7.91 3.059 1.875 0 3.686-.199 5.432-.598 1.746-.398 3.732-1.078 5.959-2.039l2.145 5.027c-2.555 1.243-4.945 2.15-7.172 2.725a26.803 26.803 0 0 1-6.715.861c-5.578 0-9.902-1.675-12.973-5.027-3.071-3.352-4.605-8.051-4.605-14.098s1.512-10.74 4.535-14.08 7.3-5.01 12.832-5.01c5.18 0 9.041 1.559 11.584 4.676 2.543 3.117 3.814 7.84 3.814 14.168v1.512h-25.84c.188 3.844 1.219 6.785 3.094 8.824zm13.307-21.006c-1.441-1.464-3.428-2.197-5.959-2.197-5.625 0-8.988 2.906-10.09 8.719h18.492c-.188-2.883-1.002-5.057-2.443-6.522zm28.846-6.697c1.734-.984 3.633-1.477 5.695-1.477 1.383 0 2.988.258 4.816.773l-1.23 6.645c-2.344-.469-3.926-.715-4.746-.738-2.062 0-3.768.387-5.115 1.16-1.348.773-2.502 2.027-3.463 3.762V247h-6.75v-37.02h5.414l.844 5.203c1.288-1.921 2.8-3.374 4.535-4.359zM197.777 330.705c-2.336 2.078-5.598 3.117-9.785 3.117-4.219 0-7.48-1.031-9.785-3.094s-3.457-4.977-3.457-8.742v-22.57h4.594v22.57c0 2.562.715 4.465 2.145 5.707s3.598 1.863 6.504 1.863c5.797 0 8.695-2.523 8.695-7.57v-22.57h4.594v22.57c-.001 3.734-1.169 6.64-3.505 8.719zm19.278-21.446c1.422-.641 3.016-.961 4.781-.961 2.625 0 4.633.758 6.023 2.273s2.086 3.719 2.086 6.609v16.22h-4.523v-15.891c0-1.828-.375-3.156-1.125-3.984s-1.953-1.242-3.609-1.242c-1.469 0-2.844.328-4.125.984s-2.312 1.562-3.094 2.719V333.4h-4.5v-24.68h3.656l.516 3.469c1.187-1.313 2.492-2.289 3.914-2.93zm20.226-9.656h4.5v4.617h-4.5v-4.617zm0 9.117h4.5v24.68h-4.5v-24.68zm13.43-3.304c0-2.625.688-4.656 2.062-6.094s3.312-2.156 5.812-2.156c.953 0 1.879.094 2.777.281s1.988.539 3.27 1.055l-1.641 3.516c-1.656-.547-3.016-.82-4.078-.82-1.188 0-2.098.344-2.73 1.031s-.949 1.641-.949 2.859v3.633h7.008v3.891h-7.008v19.195c0 1.656-.121 3.176-.363 4.559s-.637 2.84-1.184 4.371h-2.977v-28.125h-4.312v-3.891h4.312v-3.305zm33.422 6.199c2.047 2.242 3.07 5.379 3.07 9.41s-1.023 7.164-3.07 9.398-4.922 3.352-8.625 3.352c-3.719 0-6.602-1.117-8.648-3.352s-3.07-5.367-3.07-9.398 1.023-7.168 3.07-9.41 4.93-3.363 8.648-3.363c3.703-.001 6.578 1.121 8.625 3.363zm-13.91 2.871c-1.211 1.5-1.816 3.68-1.816 6.539 0 2.844.605 5.016 1.816 6.516s2.973 2.25 5.285 2.25c2.297 0 4.055-.75 5.273-2.25s1.828-3.672 1.828-6.516-.609-5.02-1.828-6.527-2.977-2.262-5.273-2.262c-2.313 0-4.074.75-5.285 2.25zm30.175-5.203c1.156-.656 2.422-.984 3.797-.984.922 0 1.992.172 3.211.516l-.82 4.43c-1.562-.312-2.617-.477-3.164-.492-1.375 0-2.512.258-3.41.773s-1.668 1.352-2.309 2.508V333.4h-4.5v-24.68h3.609l.562 3.469c.86-1.281 1.868-2.25 3.024-2.906zm23.414-.985c3.75 0 6.281 1.453 7.594 4.359 2.234-2.906 5.094-4.359 8.578-4.359 2.75 0 4.84.75 6.27 2.25s2.145 3.711 2.145 6.633V333.4h-4.523v-15.891c0-1.828-.375-3.156-1.125-3.984s-1.953-1.242-3.609-1.242c-1.469 0-2.812.32-4.031.961s-2.211 1.555-2.977 2.742c0 .062.016.211.047.445s.047.547.047.938V333.4h-4.523v-15.891c0-1.828-.375-3.156-1.125-3.984s-1.961-1.242-3.633-1.242c-1.406 0-2.73.328-3.973.984s-2.238 1.547-2.988 2.672V333.4h-4.5v-24.68h3.656l.516 3.422c2.17-2.562 4.889-3.844 8.154-3.844zm-129 82.386c-1.984.43-3.891.645-5.719.645-5.125 0-9.039-1.496-11.742-4.488s-4.055-7.301-4.055-12.926c0-3.578.641-6.664 1.922-9.258s3.129-4.578 5.543-5.953 5.301-2.062 8.66-2.062c1.766 0 3.551.238 5.355.715s3.512 1.176 5.121 2.098l-1.922 3.75c-1.531-.766-2.984-1.332-4.359-1.699s-2.773-.551-4.195-.551c-3.609 0-6.398 1.121-8.367 3.363s-2.953 5.441-2.953 9.598c0 4.188.969 7.418 2.906 9.691s4.695 3.41 8.273 3.41c2.047 0 4.133-.32 6.258-.961v-11.953h4.594v14.836c-1.562.733-3.335 1.315-5.32 1.745zm19.079-23.801c1.156-.656 2.422-.984 3.797-.984.922 0 1.992.172 3.211.516l-.82 4.43c-1.562-.312-2.617-.477-3.164-.492-1.375 0-2.512.258-3.41.773s-1.668 1.352-2.309 2.508V391h-4.5v-24.68h3.609l.562 3.469c.86-1.281 1.867-2.25 3.024-2.906zm26.496 1.488c1.664 1.617 2.496 3.926 2.496 6.926V391h-3.469l-.656-2.883c-2.406 2.234-5.109 3.352-8.109 3.352-2.469 0-4.43-.664-5.883-1.992s-2.18-3.109-2.18-5.344c0-2.594 1.062-4.617 3.188-6.07s5.109-2.18 8.953-2.18h3.633v-.68c-.125-3.516-1.93-5.273-5.414-5.273-1.062 0-2.258.16-3.586.48s-2.664.754-4.008 1.301l-1.242-3.656c1.438-.672 2.957-1.191 4.559-1.559s3.137-.551 4.605-.551c3.078 0 5.449.809 7.113 2.426zm-11.215 12.188c-1.391.82-2.086 1.965-2.086 3.434 0 1.125.383 1.988 1.148 2.59s1.836.902 3.211.902c1.312 0 2.594-.277 3.844-.832s2.273-1.301 3.07-2.238v-5.086h-3.352c-2.499-.001-4.445.409-5.835 1.23zm40.582-11.403c1.883 2.141 2.824 5.18 2.824 9.117 0 4.094-1.117 7.309-3.352 9.645s-5.336 3.504-9.305 3.504c-1.5 0-3.25-.219-5.25-.656v11.555h-4.5v-35.953h3.609l.609 3.07c1.062-1.219 2.184-2.105 3.363-2.66s2.512-.832 3.996-.832c3.455-.001 6.123 1.07 8.006 3.21zm-3.902 15.867c1.422-1.609 2.133-3.859 2.133-6.75 0-2.656-.57-4.711-1.711-6.164s-2.75-2.18-4.828-2.18c-1.625 0-3.023.406-4.195 1.219s-2.031 2.008-2.578 3.586v12c1.312.312 2.273.508 2.883.586s1.383.117 2.32.117c2.562.001 4.554-.804 5.976-2.414zm25.64-19.125c2.625 0 4.633.758 6.023 2.273s2.086 3.719 2.086 6.609V391h-4.523v-15.891c0-1.828-.375-3.156-1.125-3.984s-1.953-1.242-3.609-1.242c-1.469 0-2.844.328-4.125.984s-2.312 1.562-3.094 2.719V391h-4.5v-36.188h4.5v14.672c2.281-2.39 5.07-3.586 8.367-3.586zm40.594 30.563l1.336 3.938c-1.766.578-3.477.867-5.133.867-2.906 0-5.262-.871-7.066-2.613s-2.902-4.199-3.293-7.371c-4.094-.547-7.223-2.305-9.387-5.273s-3.246-7.016-3.246-12.141c0-5.5 1.344-9.746 4.031-12.738s6.5-4.488 11.438-4.488c4.891 0 8.68 1.504 11.367 4.512s4.031 7.246 4.031 12.715c0 5.438-1.23 9.668-3.691 12.691s-5.996 4.645-10.605 4.863c.359 1.922 1.09 3.348 2.191 4.277s2.613 1.395 4.535 1.395c1.109-.001 2.273-.212 3.492-.634zm-19.219-12.738c1.844 2.289 4.477 3.434 7.898 3.434s6.043-1.152 7.863-3.457 2.73-5.582 2.73-9.832c0-4.156-.91-7.348-2.73-9.574s-4.441-3.34-7.863-3.34c-3.453 0-6.094 1.105-7.922 3.316s-2.742 5.41-2.742 9.598c.001 4.28.922 7.566 2.766 9.855zm50.18 7.277h-20.133v-33.984h4.617v29.906h15.516V391zm20.109-9.844L379.781 391h-4.641l11.695-33.984h5.766L404.742 391h-4.5l-3.516-9.844h-13.57zm6.516-19.383l-5.133 15.305h10.758l-5.32-15.305h-.305zm38.836-2.191c2 1.711 3 4.184 3 7.418 0 3.203-1.016 5.676-3.047 7.418s-4.906 2.613-8.625 2.613h-5.414V391h-4.617v-33.984h10.031c3.781 0 6.672.855 8.672 2.566zM426.703 367c0-1.984-.559-3.465-1.676-4.441s-2.848-1.465-5.191-1.465h-5.414v11.859h5.414c4.578 0 6.867-1.984 6.867-5.953zm10.594-9.984h4.617V391h-4.617v-33.984zm-247.922 68.053l-1.195 3.75c-2.344-.922-4.281-1.383-5.812-1.383-1.406 0-2.516.27-3.328.809s-1.219 1.277-1.219 2.215c0 .891.359 1.57 1.078 2.039s1.797.922 3.234 1.359c1.703.547 3.059 1.051 4.066 1.512s1.887 1.195 2.637 2.203 1.125 2.348 1.125 4.02c0 2.266-.816 4.07-2.449 5.414s-3.84 2.016-6.621 2.016c-2.906 0-5.711-.617-8.414-1.852l1.406-3.891c1.531.641 2.816 1.094 3.855 1.359s2.074.398 3.105.398c1.469 0 2.602-.285 3.398-.855s1.195-1.402 1.195-2.496c0-.703-.223-1.285-.668-1.746s-.996-.82-1.652-1.078-1.594-.582-2.812-.973c-1.469-.484-2.676-.965-3.621-1.441s-1.746-1.195-2.402-2.156-.984-2.223-.984-3.785c0-2.141.824-3.844 2.473-5.109s3.848-1.898 6.598-1.898c2.015-.017 4.351.506 7.007 1.569zm11.133 17.883c1.25 1.359 3.008 2.039 5.273 2.039 1.25 0 2.457-.133 3.621-.398s2.488-.719 3.973-1.359l1.43 3.352c-1.703.828-3.297 1.434-4.781 1.816s-2.977.574-4.477.574c-3.719 0-6.602-1.117-8.648-3.352s-3.07-5.367-3.07-9.398 1.008-7.16 3.023-9.387 4.867-3.34 8.555-3.34c3.453 0 6.027 1.039 7.723 3.117s2.543 5.227 2.543 9.445v1.008h-17.227c.124 2.562.812 4.523 2.062 5.883zm8.871-14.004c-.961-.977-2.285-1.465-3.973-1.465-3.75 0-5.992 1.938-6.727 5.812h12.328c-.124-1.921-.667-3.371-1.628-4.347zm19.23-4.465c1.156-.656 2.422-.984 3.797-.984.922 0 1.992.172 3.211.516l-.82 4.43c-1.562-.312-2.617-.477-3.164-.492-1.375 0-2.512.258-3.41.773s-1.668 1.352-2.309 2.508V448.6h-4.5v-24.68h3.609l.562 3.469c.86-1.281 1.868-2.25 3.024-2.906zm7.571-.563h4.758l4.711 13.148c.25.703.52 1.527.809 2.473s.512 1.645.668 2.098c0-.062.258.75.773 2.438l.773-2.438c.797-2.5 1.289-4.023 1.477-4.57l4.711-13.148h4.57l-8.789 24.68h-5.672l-8.789-24.681zm32.414 19.032c1.25 1.359 3.008 2.039 5.273 2.039 1.25 0 2.457-.133 3.621-.398s2.488-.719 3.973-1.359l1.43 3.352c-1.703.828-3.297 1.434-4.781 1.816s-2.977.574-4.477.574c-3.719 0-6.602-1.117-8.648-3.352s-3.07-5.367-3.07-9.398 1.008-7.16 3.023-9.387 4.867-3.34 8.555-3.34c3.453 0 6.027 1.039 7.723 3.117s2.543 5.227 2.543 9.445v1.008h-17.227c.124 2.562.812 4.523 2.062 5.883zm8.871-14.004c-.961-.977-2.285-1.465-3.973-1.465-3.75 0-5.992 1.938-6.727 5.812h12.328c-.124-1.921-.667-3.371-1.628-4.347zm28.347 16.535c-1.062 1.219-2.191 2.105-3.387 2.66s-2.512.832-3.949.832c-3.453 0-6.125-1.07-8.016-3.211s-2.836-5.18-2.836-9.117c0-4.094 1.121-7.309 3.363-9.645s5.348-3.504 9.316-3.504c1.438 0 3.18.227 5.227.68V412.6h4.5v35.953h-3.586l-.632-3.07zm-2.917-1.758c1.18-.844 2.059-2.031 2.637-3.562V428.21c-1.281-.312-2.242-.512-2.883-.598s-1.406-.129-2.297-.129c-2.562 0-4.555.809-5.977 2.426s-2.133 3.863-2.133 6.738c0 2.656.566 4.711 1.699 6.164s2.738 2.18 4.816 2.18c1.579 0 2.958-.422 4.138-1.266zm44.941-16.91c2.047 2.242 3.07 5.379 3.07 9.41s-1.023 7.164-3.07 9.398-4.922 3.352-8.625 3.352c-3.719 0-6.602-1.117-8.648-3.352s-3.07-5.367-3.07-9.398 1.023-7.168 3.07-9.41 4.93-3.363 8.648-3.363c3.703 0 6.578 1.121 8.625 3.363zm-13.91 2.871c-1.211 1.5-1.816 3.68-1.816 6.539 0 2.844.605 5.016 1.816 6.516s2.973 2.25 5.285 2.25c2.297 0 4.055-.75 5.273-2.25s1.828-3.672 1.828-6.516-.609-5.02-1.828-6.527-2.977-2.262-5.273-2.262c-2.313 0-4.074.75-5.285 2.25zm19.465-5.766h4.758l4.711 13.148c.25.703.52 1.527.809 2.473s.512 1.645.668 2.098c0-.062.258.75.773 2.438l.773-2.438c.797-2.5 1.289-4.023 1.477-4.57l4.711-13.148h4.57l-8.789 24.68h-5.672l-8.789-24.681zm32.414 19.032c1.25 1.359 3.008 2.039 5.273 2.039 1.25 0 2.457-.133 3.621-.398s2.488-.719 3.973-1.359l1.43 3.352c-1.703.828-3.297 1.434-4.781 1.816s-2.977.574-4.477.574c-3.719 0-6.602-1.117-8.648-3.352s-3.07-5.367-3.07-9.398 1.008-7.16 3.023-9.387 4.867-3.34 8.555-3.34c3.453 0 6.027 1.039 7.723 3.117s2.543 5.227 2.543 9.445v1.008h-17.227c.124 2.562.812 4.523 2.062 5.883zm8.871-14.004c-.961-.977-2.285-1.465-3.973-1.465-3.75 0-5.992 1.938-6.727 5.812h12.328c-.124-1.921-.667-3.371-1.628-4.347zm19.23-4.465c1.156-.656 2.422-.984 3.797-.984.922 0 1.992.172 3.211.516l-.82 4.43c-1.562-.312-2.617-.477-3.164-.492-1.375 0-2.512.258-3.41.773s-1.668 1.352-2.309 2.508V448.6h-4.5v-24.68h3.609l.562 3.469c.86-1.281 1.868-2.25 3.024-2.906zm-216.468 47.733h4.617V506.2h-4.617v-15.609H180.07V506.2h-4.617v-33.984h4.617v14.297h17.367v-14.297zm34.617 4.078h-9.938V506.2H217.5v-29.906h-10.523v-4.078h25.078v4.078zm26.015 0h-9.938V506.2h-4.617v-29.906h-10.523v-4.078h25.078v4.078zm23.625-1.512c2 1.711 3 4.184 3 7.418 0 3.203-1.016 5.676-3.047 7.418s-4.906 2.613-8.625 2.613h-5.414V506.2h-4.617v-33.984h10.031c3.782 0 6.672.855 8.672 2.566zm-1.804 7.418c0-1.984-.559-3.465-1.676-4.441s-2.848-1.465-5.191-1.465h-5.414v11.859h5.414c4.578 0 6.867-1.984 6.867-5.953zm37.488 1.371c1.664 1.617 2.496 3.926 2.496 6.926V506.2h-3.469l-.656-2.883c-2.406 2.234-5.109 3.352-8.109 3.352-2.469 0-4.43-.664-5.883-1.992s-2.18-3.109-2.18-5.344c0-2.594 1.062-4.617 3.188-6.07s5.109-2.18 8.953-2.18h3.633v-.68c-.125-3.516-1.93-5.273-5.414-5.273-1.062 0-2.258.16-3.586.48s-2.664.754-4.008 1.301l-1.242-3.656c1.438-.672 2.957-1.191 4.559-1.559s3.137-.551 4.605-.551c3.078.001 5.449.809 7.113 2.426zm-11.215 12.188c-1.391.82-2.086 1.965-2.086 3.434 0 1.125.383 1.988 1.148 2.59s1.836.902 3.211.902c1.312 0 2.594-.277 3.844-.832s2.273-1.301 3.07-2.238v-5.086H312c-2.5-.001-4.445.409-5.836 1.23zm29.039-13.699c1.422-.641 3.016-.961 4.781-.961 2.625 0 4.633.758 6.023 2.273s2.086 3.719 2.086 6.609V506.2h-4.523v-15.89c0-1.828-.375-3.156-1.125-3.984s-1.953-1.242-3.609-1.242c-1.469 0-2.844.328-4.125.984s-2.312 1.562-3.094 2.719V506.2h-4.5v-24.68h3.656l.516 3.469c1.188-1.312 2.492-2.289 3.914-2.929zm36.539 21.023c-1.062 1.219-2.191 2.105-3.387 2.66s-2.512.832-3.949.832c-3.453 0-6.125-1.07-8.016-3.211s-2.836-5.18-2.836-9.117c0-4.094 1.121-7.309 3.363-9.645s5.348-3.504 9.316-3.504c1.438 0 3.18.227 5.227.68V470.2h4.5v35.953h-3.586l-.632-3.07zm-2.918-1.758c1.18-.844 2.059-2.031 2.637-3.562V485.81c-1.281-.312-2.242-.512-2.883-.598s-1.406-.129-2.297-.129c-2.562 0-4.555.809-5.977 2.426s-2.133 3.863-2.133 6.738c0 2.656.566 4.711 1.699 6.164s2.738 2.18 4.816 2.18c1.58 0 2.959-.422 4.138-1.266zM188.543 539.39c1.008.305 1.895.73 2.66 1.277l.539-1.547h3.727v25.359c0 3.297-1.055 5.895-3.164 7.793s-4.984 2.848-8.625 2.848c-1.828 0-3.598-.223-5.309-.668s-3.223-1.066-4.535-1.863l1.688-3.609c1.156.641 2.508 1.16 4.055 1.559s3.008.598 4.383.598c2.234 0 3.961-.566 5.18-1.699s1.828-2.754 1.828-4.863v-3.562c-1.953 2.109-4.305 3.164-7.055 3.164-3.453 0-6.125-1.07-8.016-3.211s-2.836-5.18-2.836-9.117c0-4.094 1.07-7.27 3.211-9.527s5.18-3.387 9.117-3.387c1.093-.002 2.144.15 3.152.455zm-8.731 5.742c-1.422 1.633-2.133 3.871-2.133 6.715 0 2.656.566 4.711 1.699 6.164s2.738 2.18 4.816 2.18c1.594 0 2.992-.438 4.195-1.312s2.062-2.086 2.578-3.633v-11.133c-.734-.453-1.574-.805-2.52-1.055s-1.879-.375-2.801-.375c-2.466 0-4.412.816-5.834 2.449zm28.711 18.668h-4.617v-33.984h10.031c3.969 0 6.988.855 9.059 2.566s3.105 4.184 3.105 7.418c0 2.297-.555 4.223-1.664 5.777s-2.719 2.699-4.828 3.434l7.734 14.789h-5.32l-7.219-13.969h-6.281V563.8zm12.774-24c0-1.984-.602-3.465-1.805-4.441s-3.055-1.465-5.555-1.465h-5.414v11.859h5.414c4.907 0 7.36-1.984 7.36-5.953zm30.68-7.418c2 1.711 3 4.184 3 7.418 0 3.203-1.016 5.676-3.047 7.418s-4.906 2.613-8.625 2.613h-5.414V563.8h-4.617v-33.984h10.031c3.781-.001 6.672.855 8.672 2.566zm-1.805 7.418c0-1.984-.559-3.465-1.676-4.441s-2.848-1.465-5.191-1.465h-5.414v11.859h5.414c4.578 0 6.867-1.984 6.867-5.953zm29.73-9.645a18.78 18.78 0 0 1 4.816 2.098l-1.922 3.75c-1.469-.797-2.852-1.371-4.148-1.723s-2.602-.527-3.914-.527c-3.609 0-6.398 1.121-8.367 3.363s-2.953 5.441-2.953 9.598c0 4.188.969 7.418 2.906 9.691s4.695 3.41 8.273 3.41c2.844 0 5.742-.672 8.695-2.016l1.688 3.938c-1.562.734-3.281 1.316-5.156 1.746s-3.68.645-5.414.645c-5.125 0-9.039-1.496-11.742-4.488s-4.055-7.301-4.055-12.926c0-3.578.641-6.664 1.922-9.258s3.129-4.578 5.543-5.953 5.301-2.062 8.66-2.062a19.157 19.157 0 0 1 5.168.714zm431.726-311.038L565.917 471.489l-12.259-7.077L699.37 212.039z" fill="#FFF"/><path fill="#1B9CE2" d="M699.541 212.726l11.391 6.578-145.214 251.51-11.394-6.578 145.217-251.51m-.367-1.367L552.959 464.603l13.125 7.578 146.215-253.243-13.125-7.579z"/><path fill="#FFF" d="M550.453 444.872h291.43v14.156h-291.43z"/><path fill="#1B9CE2" d="M841.383 445.372v13.156h-290.43v-13.156h290.43m1-1h-292.43v15.156h292.43v-15.156z"/><path fill="#FFF" d="M708.918 524.435l-7.076 12.26-145.418-83.932 7.077-12.26z"/><path fill="#1B9CE2" d="M563.684 441.127l144.537 83.451-6.578 11.393-144.538-83.451 6.579-11.393m-.367-1.366l-7.577 13.125 146.27 84.451 7.578-13.125-146.271-84.451z"/><path fill="#FFF" d="M835.999 304.303l-7.078 12.258-145.4-83.949 7.077-12.258z"/><path fill="#1B9CE2" d="M690.748 221.025l144.537 83.451-6.578 11.393-144.537-83.452 6.578-11.392m-.365-1.366l-7.578 13.125 146.27 84.452 7.576-13.125-146.268-84.452z"/><path fill="#FFF" d="M708.958 232.542l-145.4 83.95-7.078-12.259 145.4-83.95z"/><path fill="#1B9CE2" d="M701.684 220.968l6.578 11.393-144.537 83.451-6.578-11.393 144.537-83.451m.365-1.366L555.78 304.053l7.577 13.125 146.27-84.451-7.578-13.125z"/><path fill="#FFF" d="M838.833 464.4l-12.258 7.077-145.712-252.373 12.258-7.077z"/><path fill="#1B9CE2" d="M692.92 212.729L838.135 464.24l-11.393 6.578-145.213-251.512 11.391-6.577m.367-1.367l-13.125 7.578 146.215 253.245 13.125-7.578-146.215-253.245z"/><path fill="#FFF" d="M562.048 294.503h14.156v167.902h-14.156z"/><path fill="#1B9CE2" d="M575.704 295.003v166.902h-13.156V295.003h13.156m1-1h-15.156v168.902h15.156V294.003z"/><path fill="#FFF" d="M816.223 294.503h14.156v167.902h-14.156z"/><path fill="#1B9CE2" d="M829.879 295.003v166.902h-13.156V295.003h13.156m1-1h-15.156v168.902h15.156V294.003z"/><path fill="#FFF" d="M825.98 457.283L699.633 530.23l-6.12-10.599 126.348-72.948z"/><path fill="#1B9CE2" d="M819.658 447.373l5.619 9.732-125.482 72.451-5.619-9.732 125.482-72.451m.367-1.366L692.81 519.458l6.619 11.465 127.215-73.451-6.619-11.465z"/><path fill="#4285F4" d="M531.269 494.085a5 5 0 0 1-5-5V425.05a5 5 0 0 1 5-5h75.441a5 5 0 0 1 5 5v64.035a5 5 0 0 1-5 5h-75.441z"/><path fill="#FFF" d="M606.71 425.05v64.035h-75.441V425.05h75.441m0-10h-75.441c-5.522 0-10 4.477-10 10v64.035c0 5.522 4.478 10 10 10h75.441c5.522 0 10-4.478 10-10V425.05c0-5.523-4.478-10-10-10z"/><path fill="#34A853" d="M660.119 546.55a5 5 0 0 1-5-5v-52.33a5 5 0 0 1 5-5h56.316a5 5 0 0 1 5 5v52.33a5 5 0 0 1-5 5h-56.316z"/><path fill="#FFF" d="M716.436 489.22v52.33H660.12v-52.33h56.316m0-10H660.12c-5.523 0-10 4.478-10 10v52.33c0 5.522 4.477 10 10 10h56.316c5.523 0 10-4.478 10-10v-52.33c0-5.523-4.477-10-10-10z"/><path fill="#4285F4" d="M660.223 268.707a5 5 0 0 1-5-5v-64.036a5 5 0 0 1 5-5h75.441a5 5 0 0 1 5 5v64.036a5 5 0 0 1-5 5h-75.441z"/><path fill="#FFF" d="M735.664 199.671v64.036h-75.441v-64.036h75.441m0-10h-75.441c-5.523 0-10 4.477-10 10v64.036c0 5.523 4.477 10 10 10h75.441c5.523 0 10-4.477 10-10v-64.036c0-5.523-4.476-10-10-10z"/><path fill="#34A853" d="M679.35 563.972a5 5 0 0 1-5-5V506.64a5 5 0 0 1 5-5h56.314a5 5 0 0 1 5 5v52.332a5 5 0 0 1-5 5H679.35z"/><path fill="#FFF" d="M735.664 506.64v52.332H679.35V506.64h56.314m0-10H679.35c-5.523 0-10 4.478-10 10v52.332c0 5.522 4.477 10 10 10h56.314c5.523 0 10-4.478 10-10V506.64c0-5.523-4.476-10-10-10z"/><path fill="#34A853" d="M540.832 339.296a5 5 0 0 1-5-5v-61.164a5 5 0 0 1 5-5h56.314a5 5 0 0 1 5 5v61.164a5 5 0 0 1-5 5h-56.314z"/><path fill="#FFF" d="M597.146 273.132v61.164h-56.314v-61.164h56.314m0-10h-56.314c-5.523 0-10 4.477-10 10v61.164c0 5.523 4.477 10 10 10h56.314c5.523 0 10-4.477 10-10v-61.164c0-5.523-4.476-10-10-10z"/><path fill="#FF9800" d="M794.709 336.968a5 5 0 0 1-5-5v-57.881a5 5 0 0 1 5-5h59.814a5 5 0 0 1 5 5v57.881a5 5 0 0 1-5 5h-59.814z"/><path fill="#FFF" d="M854.523 274.086v57.881h-59.814v-57.881h59.814m0-10h-59.814c-5.521 0-10 4.477-10 10v57.881c0 5.523 4.479 10 10 10h59.814c5.523 0 10-4.477 10-10v-57.881c0-5.523-4.476-10-10-10z"/><path fill="#FF9800" d="M794.709 487.382a5 5 0 0 1-5-5v-57.879a5 5 0 0 1 5-5h59.814a5 5 0 0 1 5 5v57.879a5 5 0 0 1-5 5h-59.814z"/><path fill="#FFF" d="M854.523 424.502v57.879h-59.814v-57.879h59.814m0-10h-59.814c-5.521 0-10 4.477-10 10v57.879c0 5.522 4.479 10 10 10h59.814c5.523 0 10-4.478 10-10v-57.879c0-5.523-4.476-10-10-10zM160.771 789.795c.504.152.947.365 1.33.639l.27-.773h1.863v12.68c0 1.648-.527 2.947-1.582 3.896s-2.492 1.424-4.312 1.424c-.914 0-1.799-.111-2.654-.334s-1.611-.533-2.268-.932l.844-1.805c.578.32 1.254.58 2.027.779s1.504.299 2.191.299c1.117 0 1.98-.283 2.59-.85s.914-1.377.914-2.432v-1.781c-.977 1.055-2.152 1.582-3.527 1.582-1.727 0-3.062-.535-4.008-1.605s-1.418-2.59-1.418-4.559c0-2.047.535-3.635 1.605-4.764s2.59-1.693 4.559-1.693c.547 0 1.073.077 1.576.229zm-4.365 2.871c-.711.816-1.066 1.936-1.066 3.357 0 1.328.283 2.355.85 3.082s1.369 1.09 2.408 1.09c.797 0 1.496-.219 2.098-.656s1.031-1.043 1.289-1.816v-5.566c-.367-.227-.787-.402-1.26-.527s-.939-.188-1.4-.188c-1.235-.001-2.208.408-2.919 1.224zM170.762 802h-2.309v-16.992h5.016c1.984 0 3.494.428 4.529 1.283s1.553 2.092 1.553 3.709c0 1.148-.277 2.111-.832 2.889s-1.359 1.35-2.414 1.717l3.867 7.395h-2.66l-3.609-6.984h-3.141V802zm6.386-12c0-.992-.301-1.732-.902-2.221s-1.527-.732-2.777-.732h-2.707v5.93h2.707c2.453 0 3.679-.993 3.679-2.977zm15.34-3.709c1 .855 1.5 2.092 1.5 3.709 0 1.602-.508 2.838-1.523 3.709s-2.453 1.307-4.312 1.307h-2.707V802h-2.309v-16.992h5.016c1.89 0 3.335.428 4.335 1.283zm-.902 3.709c0-.992-.279-1.732-.838-2.221s-1.424-.732-2.596-.732h-2.707v5.93h2.707c2.289 0 3.434-.993 3.434-2.977zm14.865-4.822a9.38 9.38 0 0 1 2.408 1.049l-.961 1.875c-.734-.398-1.426-.686-2.074-.861s-1.301-.264-1.957-.264c-1.805 0-3.199.561-4.184 1.682s-1.477 2.721-1.477 4.799c0 2.094.484 3.709 1.453 4.846s2.348 1.705 4.137 1.705c1.422 0 2.871-.336 4.348-1.008l.844 1.969c-.781.367-1.641.658-2.578.873s-1.84.322-2.707.322c-2.562 0-4.52-.748-5.871-2.244s-2.027-3.65-2.027-6.463c0-1.789.32-3.332.961-4.629s1.564-2.289 2.771-2.977 2.65-1.031 4.33-1.031a9.52 9.52 0 0 1 2.584.357zm25.635 2.619c-.125.43-.396 1.324-.814 2.684s-.771 2.445-1.061 3.258l-2.73 7.781h-2.309l-2.73-7.781c-.32-.914-.68-2.029-1.078-3.346s-.664-2.182-.797-2.596l-.715 5.941L218.82 802h-2.191l2.168-16.992h2.848l3.07 8.977c.094.305.207.648.34 1.031s.27.801.41 1.254a93.25 93.25 0 0 0 .867 2.66c.195-.562.48-1.449.855-2.66.141-.445.277-.861.41-1.248s.246-.732.34-1.037l3.07-8.977h2.859L236.023 802h-2.18l-1.031-8.262-.726-5.941zm7.055-2.695h2.25v2.309h-2.25v-2.309zm0 4.558h2.25V802h-2.25v-12.34zm14.871.82l-.785 1.805c-1.008-.562-1.984-.844-2.93-.844-1.148 0-2.035.379-2.66 1.137s-.938 1.836-.938 3.234c0 1.406.32 2.48.961 3.223s1.566 1.113 2.777 1.113c.445 0 .945-.068 1.5-.205s1.086-.314 1.594-.533l.609 1.793c-.609.289-1.266.518-1.969.686s-1.367.252-1.992.252c-1.844 0-3.27-.551-4.277-1.652s-1.512-2.66-1.512-4.676c0-2 .52-3.561 1.559-4.682s2.488-1.682 4.348-1.682c1.289 0 2.527.344 3.715 1.031zm6.187-.539a3.78 3.78 0 0 1 1.898-.492c.461 0 .996.086 1.605.258l-.41 2.215c-.781-.156-1.309-.238-1.582-.246-.688 0-1.256.129-1.705.387s-.834.676-1.154 1.254V802h-2.25v-12.34h1.805l.281 1.734c.43-.64.934-1.124 1.512-1.453zm14.414 1.166c1.023 1.121 1.535 2.689 1.535 4.705s-.512 3.582-1.535 4.699-2.461 1.676-4.312 1.676c-1.859 0-3.301-.559-4.324-1.676s-1.535-2.684-1.535-4.699.512-3.584 1.535-4.705 2.465-1.682 4.324-1.682c1.851.001 3.289.561 4.312 1.682zm-6.955 1.436c-.605.75-.908 1.84-.908 3.27 0 1.422.303 2.508.908 3.258s1.486 1.125 2.643 1.125c1.148 0 2.027-.375 2.637-1.125s.914-1.836.914-3.258-.305-2.51-.914-3.264-1.488-1.131-2.637-1.131c-1.156 0-2.037.375-2.643 1.125zm18.709-2.309l-.598 1.875c-1.172-.461-2.141-.691-2.906-.691-.703 0-1.258.135-1.664.404s-.609.639-.609 1.107c0 .445.18.785.539 1.02s.898.461 1.617.68c.852.273 1.529.525 2.033.756s.943.598 1.318 1.102.562 1.174.562 2.01c0 1.133-.408 2.035-1.225 2.707s-1.92 1.008-3.311 1.008c-1.453 0-2.855-.309-4.207-.926l.703-1.945c.766.32 1.408.547 1.928.68s1.037.199 1.553.199c.734 0 1.301-.143 1.699-.428s.598-.701.598-1.248c0-.352-.111-.643-.334-.873s-.498-.41-.826-.539-.797-.291-1.406-.486c-.734-.242-1.338-.482-1.811-.721s-.873-.598-1.201-1.078-.492-1.111-.492-1.893c0-1.07.412-1.922 1.236-2.555s1.924-.949 3.299-.949c1.009-.009 2.177.253 3.505.784zm5.567 8.942c.625.68 1.504 1.02 2.637 1.02.625 0 1.229-.066 1.811-.199s1.244-.359 1.986-.68l.715 1.676c-.852.414-1.648.717-2.391.908s-1.488.287-2.238.287c-1.859 0-3.301-.559-4.324-1.676s-1.535-2.684-1.535-4.699.504-3.58 1.512-4.693 2.434-1.67 4.277-1.67c1.727 0 3.014.52 3.861 1.559s1.271 2.613 1.271 4.723v.504h-8.613c.062 1.28.406 2.26 1.031 2.94zm4.435-7.002c-.48-.488-1.143-.732-1.986-.732-1.875 0-2.996.969-3.363 2.906h6.164c-.063-.961-.334-1.686-.815-2.174zm9.615-2.233a3.78 3.78 0 0 1 1.898-.492c.461 0 .996.086 1.605.258l-.41 2.215c-.781-.156-1.309-.238-1.582-.246-.688 0-1.256.129-1.705.387s-.834.676-1.154 1.254V802h-2.25v-12.34h1.805l.281 1.734c.43-.64.934-1.124 1.512-1.453zm3.786-.281h2.379l2.355 6.574c.125.352.26.764.404 1.236s.256.822.334 1.049c0-.031.129.375.387 1.219l.387-1.219c.398-1.25.645-2.012.738-2.285l2.355-6.574h2.285L317 802h-2.836l-4.394-12.34zm13.804-4.558h2.25v2.309h-2.25v-2.309zm0 4.558h2.25V802h-2.25v-12.34zm14.871.82l-.785 1.805c-1.008-.562-1.984-.844-2.93-.844-1.148 0-2.035.379-2.66 1.137s-.938 1.836-.938 3.234c0 1.406.32 2.48.961 3.223s1.566 1.113 2.777 1.113c.445 0 .945-.068 1.5-.205s1.086-.314 1.594-.533l.609 1.793c-.609.289-1.266.518-1.969.686s-1.367.252-1.992.252c-1.844 0-3.27-.551-4.277-1.652s-1.512-2.66-1.512-4.676c0-2 .52-3.561 1.559-4.682s2.488-1.682 4.348-1.682c1.29 0 2.528.344 3.715 1.031zm4.993 8.696c.625.68 1.504 1.02 2.637 1.02.625 0 1.229-.066 1.811-.199s1.244-.359 1.986-.68l.715 1.676c-.852.414-1.648.717-2.391.908s-1.488.287-2.238.287c-1.859 0-3.301-.559-4.324-1.676s-1.535-2.684-1.535-4.699.504-3.58 1.512-4.693 2.434-1.67 4.277-1.67c1.727 0 3.014.52 3.861 1.559s1.271 2.613 1.271 4.723v.504h-8.613c.062 1.28.405 2.26 1.031 2.94zm4.435-7.002c-.48-.488-1.143-.732-1.986-.732-1.875 0-2.996.969-3.363 2.906h6.164c-.063-.961-.334-1.686-.815-2.174zm-192.076-31.482c1.066-1.354 1.6-2.704 1.6-4.052v-18.07h-4.992v-3.059h8.385v21.129c0 1.242-.337 2.496-1.011 3.762s-1.594 2.396-2.76 3.393-2.44 1.734-3.823 2.215l-1.301-2.338c1.535-.633 2.835-1.626 3.902-2.98zm23.457-16.664c1.248 1.213 1.872 2.944 1.872 5.194V761h-2.602l-.492-2.162c-1.805 1.676-3.832 2.514-6.082 2.514-1.852 0-3.322-.498-4.412-1.494s-1.635-2.332-1.635-4.008c0-1.945.797-3.463 2.391-4.553s3.832-1.635 6.715-1.635h2.725v-.51c-.094-2.637-1.447-3.955-4.061-3.955-.797 0-1.693.12-2.689.36s-1.998.565-3.006.976l-.932-2.742c1.078-.504 2.218-.894 3.419-1.169s2.353-.413 3.454-.413c2.309 0 4.087.606 5.335 1.819zm-8.411 9.141c-1.043.615-1.564 1.474-1.564 2.575 0 .844.287 1.491.861 1.942s1.377.677 2.408.677c.984 0 1.945-.208 2.883-.624s1.705-.976 2.303-1.679v-3.814h-2.514c-1.875 0-3.334.308-4.377.923zm13.798-10.679h3.568l3.533 9.861c.188.527.39 1.146.606 1.854s.384 1.233.501 1.573c0-.047.193.562.58 1.828l.58-1.828c.598-1.875.967-3.018 1.107-3.428l3.533-9.861h3.428L195.487 761h-4.254l-6.592-18.51zm32.985 1.538c1.248 1.213 1.872 2.944 1.872 5.194V761h-2.602l-.492-2.162c-1.805 1.676-3.832 2.514-6.082 2.514-1.852 0-3.322-.498-4.412-1.494s-1.635-2.332-1.635-4.008c0-1.945.797-3.463 2.391-4.553s3.832-1.635 6.715-1.635h2.725v-.51c-.094-2.637-1.447-3.955-4.061-3.955-.797 0-1.693.12-2.689.36s-1.998.565-3.006.976l-.932-2.742c1.078-.504 2.218-.894 3.419-1.169s2.353-.413 3.454-.413c2.309 0 4.087.606 5.335 1.819zm-8.411 9.141c-1.043.615-1.564 1.474-1.564 2.575 0 .844.287 1.491.861 1.942s1.377.677 2.408.677c.984 0 1.945-.208 2.883-.624s1.705-.976 2.303-1.679v-3.814h-2.514c-1.875 0-3.334.308-4.377.923zm300.719 36.626c.504.152.947.365 1.33.639l.27-.773h1.863v12.68c0 1.648-.527 2.947-1.582 3.896s-2.492 1.424-4.312 1.424c-.914 0-1.799-.111-2.654-.334s-1.611-.533-2.268-.932l.844-1.805c.578.32 1.254.58 2.027.779s1.504.299 2.191.299c1.117 0 1.98-.283 2.59-.85s.914-1.377.914-2.432v-1.781c-.977 1.055-2.152 1.582-3.527 1.582-1.727 0-3.062-.535-4.008-1.605s-1.418-2.59-1.418-4.559c0-2.047.535-3.635 1.605-4.764s2.59-1.693 4.559-1.693c.546 0 1.072.077 1.576.229zm-4.366 2.871c-.711.816-1.066 1.936-1.066 3.357 0 1.328.283 2.355.85 3.082s1.369 1.09 2.408 1.09c.797 0 1.496-.219 2.098-.656s1.031-1.043 1.289-1.816v-5.566c-.367-.227-.787-.402-1.26-.527s-.939-.188-1.4-.188c-1.235-.001-2.208.408-2.919 1.224zM519.924 802h-2.309v-16.992h5.016c1.984 0 3.494.428 4.529 1.283s1.553 2.092 1.553 3.709c0 1.148-.277 2.111-.832 2.889s-1.359 1.35-2.414 1.717l3.867 7.395h-2.66l-3.609-6.984h-3.141V802zm6.387-12c0-.992-.301-1.732-.902-2.221s-1.527-.732-2.777-.732h-2.707v5.93h2.707c2.452 0 3.679-.993 3.679-2.977zm15.339-3.709c1 .855 1.5 2.092 1.5 3.709 0 1.602-.508 2.838-1.523 3.709s-2.453 1.307-4.312 1.307h-2.707V802h-2.309v-16.992h5.016c1.89 0 3.335.428 4.335 1.283zm-.902 3.709c0-.992-.279-1.732-.838-2.221s-1.424-.732-2.596-.732h-2.707v5.93h2.707c2.29 0 3.434-.993 3.434-2.977zm14.865-4.822a9.38 9.38 0 0 1 2.408 1.049l-.961 1.875c-.734-.398-1.426-.686-2.074-.861s-1.301-.264-1.957-.264c-1.805 0-3.199.561-4.184 1.682s-1.477 2.721-1.477 4.799c0 2.094.484 3.709 1.453 4.846s2.348 1.705 4.137 1.705c1.422 0 2.871-.336 4.348-1.008l.844 1.969c-.781.367-1.641.658-2.578.873s-1.84.322-2.707.322c-2.562 0-4.52-.748-5.871-2.244s-2.027-3.65-2.027-6.463c0-1.789.32-3.332.961-4.629s1.564-2.289 2.771-2.977 2.65-1.031 4.33-1.031a9.52 9.52 0 0 1 2.584.357zm25.635 2.619c-.125.43-.396 1.324-.814 2.684s-.771 2.445-1.061 3.258l-2.73 7.781h-2.309l-2.73-7.781c-.32-.914-.68-2.029-1.078-3.346s-.664-2.182-.797-2.596l-.715 5.941-1.032 8.262h-2.191l2.168-16.992h2.848l3.07 8.977c.094.305.207.648.34 1.031s.27.801.41 1.254a93.25 93.25 0 0 0 .867 2.66c.195-.562.48-1.449.855-2.66.141-.445.277-.861.41-1.248s.246-.732.34-1.037l3.07-8.977h2.859L585.186 802h-2.18l-1.031-8.262-.727-5.941zm7.055-2.695h2.25v2.309h-2.25v-2.309zm0 4.558h2.25V802h-2.25v-12.34zm14.871.82l-.785 1.805c-1.008-.562-1.984-.844-2.93-.844-1.148 0-2.035.379-2.66 1.137s-.938 1.836-.938 3.234c0 1.406.32 2.48.961 3.223s1.566 1.113 2.777 1.113c.445 0 .945-.068 1.5-.205s1.086-.314 1.594-.533l.609 1.793c-.609.289-1.266.518-1.969.686s-1.367.252-1.992.252c-1.844 0-3.27-.551-4.277-1.652s-1.512-2.66-1.512-4.676c0-2 .52-3.561 1.559-4.682s2.488-1.682 4.348-1.682c1.289 0 2.527.344 3.715 1.031zm6.187-.539a3.78 3.78 0 0 1 1.898-.492c.461 0 .996.086 1.605.258l-.41 2.215c-.781-.156-1.309-.238-1.582-.246-.688 0-1.256.129-1.705.387s-.834.676-1.154 1.254V802h-2.25v-12.34h1.805l.281 1.734c.43-.64.934-1.124 1.512-1.453zm14.414 1.166c1.023 1.121 1.535 2.689 1.535 4.705s-.512 3.582-1.535 4.699-2.461 1.676-4.312 1.676c-1.859 0-3.301-.559-4.324-1.676s-1.535-2.684-1.535-4.699.512-3.584 1.535-4.705 2.465-1.682 4.324-1.682c1.851.001 3.289.561 4.312 1.682zm-6.955 1.436c-.605.75-.908 1.84-.908 3.27 0 1.422.303 2.508.908 3.258s1.486 1.125 2.643 1.125c1.148 0 2.027-.375 2.637-1.125s.914-1.836.914-3.258-.305-2.51-.914-3.264-1.488-1.131-2.637-1.131c-1.156 0-2.037.375-2.643 1.125zm18.709-2.309l-.598 1.875c-1.172-.461-2.141-.691-2.906-.691-.703 0-1.258.135-1.664.404s-.609.639-.609 1.107c0 .445.18.785.539 1.02s.898.461 1.617.68c.852.273 1.529.525 2.033.756s.943.598 1.318 1.102.562 1.174.562 2.01c0 1.133-.408 2.035-1.225 2.707s-1.92 1.008-3.311 1.008c-1.453 0-2.855-.309-4.207-.926l.703-1.945c.766.32 1.408.547 1.928.68s1.037.199 1.553.199c.734 0 1.301-.143 1.699-.428s.598-.701.598-1.248c0-.352-.111-.643-.334-.873s-.498-.41-.826-.539-.797-.291-1.406-.486c-.734-.242-1.338-.482-1.811-.721s-.873-.598-1.201-1.078-.492-1.111-.492-1.893c0-1.07.412-1.922 1.236-2.555s1.924-.949 3.299-.949c1.009-.009 2.177.253 3.505.784zm5.567 8.942c.625.68 1.504 1.02 2.637 1.02.625 0 1.229-.066 1.811-.199s1.244-.359 1.986-.68l.715 1.676c-.852.414-1.648.717-2.391.908s-1.488.287-2.238.287c-1.859 0-3.301-.559-4.324-1.676s-1.535-2.684-1.535-4.699.504-3.58 1.512-4.693 2.434-1.67 4.277-1.67c1.727 0 3.014.52 3.861 1.559s1.271 2.613 1.271 4.723v.504h-8.613c.062 1.28.406 2.26 1.031 2.94zm4.435-7.002c-.48-.488-1.143-.732-1.986-.732-1.875 0-2.996.969-3.363 2.906h6.164c-.063-.961-.334-1.686-.815-2.174zm9.615-2.233a3.78 3.78 0 0 1 1.898-.492c.461 0 .996.086 1.605.258l-.41 2.215c-.781-.156-1.309-.238-1.582-.246-.688 0-1.256.129-1.705.387s-.834.676-1.154 1.254V802h-2.25v-12.34h1.805l.281 1.734c.43-.64.934-1.124 1.512-1.453zm3.786-.281h2.379l2.355 6.574c.125.352.26.764.404 1.236s.256.822.334 1.049c0-.031.129.375.387 1.219l.387-1.219c.398-1.25.645-2.012.738-2.285l2.355-6.574h2.285L666.162 802h-2.836l-4.394-12.34zm13.804-4.558h2.25v2.309h-2.25v-2.309zm0 4.558h2.25V802h-2.25v-12.34zm14.871.82l-.785 1.805c-1.008-.562-1.984-.844-2.93-.844-1.148 0-2.035.379-2.66 1.137s-.938 1.836-.938 3.234c0 1.406.32 2.48.961 3.223s1.566 1.113 2.777 1.113c.445 0 .945-.068 1.5-.205s1.086-.314 1.594-.533l.609 1.793c-.609.289-1.266.518-1.969.686s-1.367.252-1.992.252c-1.844 0-3.27-.551-4.277-1.652s-1.512-2.66-1.512-4.676c0-2 .52-3.561 1.559-4.682s2.488-1.682 4.348-1.682c1.29 0 2.528.344 3.715 1.031zm4.993 8.696c.625.68 1.504 1.02 2.637 1.02.625 0 1.229-.066 1.811-.199s1.244-.359 1.986-.68l.715 1.676c-.852.414-1.648.717-2.391.908s-1.488.287-2.238.287c-1.859 0-3.301-.559-4.324-1.676s-1.535-2.684-1.535-4.699.504-3.58 1.512-4.693 2.434-1.67 4.277-1.67c1.727 0 3.014.52 3.861 1.559s1.271 2.613 1.271 4.723v.504h-8.613c.062 1.28.406 2.26 1.031 2.94zm4.435-7.002c-.48-.488-1.143-.732-1.986-.732-1.875 0-2.996.969-3.363 2.906h6.164c-.063-.961-.334-1.686-.815-2.174zm-178.014-28.411a20.278 20.278 0 0 1-4.289.483c-3.844 0-6.779-1.122-8.807-3.366s-3.041-5.476-3.041-9.694c0-2.684.48-4.998 1.441-6.943s2.347-3.434 4.157-4.465 3.976-1.547 6.495-1.547c1.324 0 2.663.179 4.017.536s2.634.882 3.841 1.573l-1.441 2.812c-1.148-.574-2.238-.999-3.27-1.274s-2.08-.413-3.146-.413c-2.707 0-4.799.841-6.275 2.522s-2.215 4.081-2.215 7.198c0 3.141.727 5.563 2.18 7.269s3.521 2.558 6.205 2.558c1.535 0 3.1-.24 4.693-.721v-8.965h3.445v11.127c-1.171.551-2.501.987-3.99 1.31zm22.764-16.102c1.535 1.682 2.303 4.034 2.303 7.058s-.768 5.373-2.303 7.049-3.691 2.514-6.469 2.514c-2.789 0-4.951-.838-6.486-2.514s-2.303-4.025-2.303-7.049.768-5.376 2.303-7.058 3.697-2.522 6.486-2.522c2.778 0 4.934.84 6.469 2.522zm-10.432 2.153c-.908 1.125-1.362 2.76-1.362 4.904 0 2.133.454 3.762 1.362 4.887s2.229 1.688 3.964 1.688c1.723 0 3.041-.562 3.955-1.688s1.371-2.754 1.371-4.887-.457-3.765-1.371-4.896-2.232-1.696-3.955-1.696c-1.735.001-3.056.563-3.964 1.688zm319.779 39.981c.504.152.947.365 1.33.639l.27-.773h1.863v12.68c0 1.648-.527 2.947-1.582 3.896s-2.492 1.424-4.312 1.424c-.914 0-1.799-.111-2.654-.334s-1.611-.533-2.268-.932l.844-1.805c.578.32 1.254.58 2.027.779s1.504.299 2.191.299c1.117 0 1.98-.283 2.59-.85s.914-1.377.914-2.432v-1.781c-.977 1.055-2.152 1.582-3.527 1.582-1.727 0-3.062-.535-4.008-1.605s-1.418-2.59-1.418-4.559c0-2.047.535-3.635 1.605-4.764s2.59-1.693 4.559-1.693c.547 0 1.072.077 1.576.229zm-4.365 2.871c-.711.816-1.066 1.936-1.066 3.357 0 1.328.283 2.355.85 3.082s1.369 1.09 2.408 1.09c.797 0 1.496-.219 2.098-.656s1.031-1.043 1.289-1.816v-5.566c-.367-.227-.787-.402-1.26-.527s-.939-.188-1.4-.188c-1.236-.001-2.208.408-2.919 1.224zM861.122 802h-2.309v-16.992h5.016c1.984 0 3.494.428 4.529 1.283s1.553 2.092 1.553 3.709c0 1.148-.277 2.111-.832 2.889s-1.359 1.35-2.414 1.717l3.867 7.395h-2.66l-3.609-6.984h-3.141V802zm6.387-12c0-.992-.301-1.732-.902-2.221s-1.527-.732-2.777-.732h-2.707v5.93h2.707c2.452 0 3.679-.993 3.679-2.977zm15.34-3.709c1 .855 1.5 2.092 1.5 3.709 0 1.602-.508 2.838-1.523 3.709s-2.453 1.307-4.312 1.307h-2.707V802h-2.309v-16.992h5.016c1.889 0 3.335.428 4.335 1.283zm-.903 3.709c0-.992-.279-1.732-.838-2.221s-1.424-.732-2.596-.732h-2.707v5.93h2.707c2.29 0 3.434-.993 3.434-2.977zm14.866-4.822a9.38 9.38 0 0 1 2.408 1.049l-.961 1.875c-.734-.398-1.426-.686-2.074-.861s-1.301-.264-1.957-.264c-1.805 0-3.199.561-4.184 1.682s-1.477 2.721-1.477 4.799c0 2.094.484 3.709 1.453 4.846s2.348 1.705 4.137 1.705c1.422 0 2.871-.336 4.348-1.008l.844 1.969c-.781.367-1.641.658-2.578.873s-1.84.322-2.707.322c-2.562 0-4.52-.748-5.871-2.244s-2.027-3.65-2.027-6.463c0-1.789.32-3.332.961-4.629s1.564-2.289 2.771-2.977 2.65-1.031 4.33-1.031a9.525 9.525 0 0 1 2.584.357zm25.634 2.619c-.125.43-.396 1.324-.814 2.684s-.771 2.445-1.061 3.258l-2.73 7.781h-2.309l-2.73-7.781c-.32-.914-.68-2.029-1.078-3.346s-.664-2.182-.797-2.596l-.715 5.941-1.031 8.262h-2.191l2.168-16.992h2.848l3.07 8.977c.094.305.207.648.34 1.031s.27.801.41 1.254a93.25 93.25 0 0 0 .867 2.66c.195-.562.48-1.449.855-2.66.141-.445.277-.861.41-1.248s.246-.732.34-1.037l3.07-8.977h2.859L926.384 802h-2.18l-1.031-8.262-.727-5.941zm7.055-2.695h2.25v2.309h-2.25v-2.309zm0 4.558h2.25V802h-2.25v-12.34zm14.871.82l-.785 1.805c-1.008-.562-1.984-.844-2.93-.844-1.148 0-2.035.379-2.66 1.137s-.938 1.836-.938 3.234c0 1.406.32 2.48.961 3.223s1.566 1.113 2.777 1.113c.445 0 .945-.068 1.5-.205s1.086-.314 1.594-.533l.609 1.793c-.609.289-1.266.518-1.969.686s-1.367.252-1.992.252c-1.844 0-3.27-.551-4.277-1.652s-1.512-2.66-1.512-4.676c0-2 .52-3.561 1.559-4.682s2.488-1.682 4.348-1.682c1.289 0 2.528.344 3.715 1.031zm6.188-.539a3.78 3.78 0 0 1 1.898-.492c.461 0 .996.086 1.605.258l-.41 2.215c-.781-.156-1.309-.238-1.582-.246-.688 0-1.256.129-1.705.387s-.834.676-1.154 1.254V802h-2.25v-12.34h1.805l.281 1.734c.43-.64.933-1.124 1.512-1.453zm14.414 1.166c1.023 1.121 1.535 2.689 1.535 4.705s-.512 3.582-1.535 4.699-2.461 1.676-4.312 1.676c-1.859 0-3.301-.559-4.324-1.676s-1.535-2.684-1.535-4.699.512-3.584 1.535-4.705 2.465-1.682 4.324-1.682c1.851.001 3.288.561 4.312 1.682zm-6.955 1.436c-.605.75-.908 1.84-.908 3.27 0 1.422.303 2.508.908 3.258s1.486 1.125 2.643 1.125c1.148 0 2.027-.375 2.637-1.125s.914-1.836.914-3.258-.305-2.51-.914-3.264-1.488-1.131-2.637-1.131c-1.157 0-2.038.375-2.643 1.125zm18.709-2.309l-.598 1.875c-1.172-.461-2.141-.691-2.906-.691-.703 0-1.258.135-1.664.404s-.609.639-.609 1.107c0 .445.18.785.539 1.02s.898.461 1.617.68c.852.273 1.529.525 2.033.756s.943.598 1.318 1.102.562 1.174.562 2.01c0 1.133-.408 2.035-1.225 2.707s-1.92 1.008-3.311 1.008c-1.453 0-2.855-.309-4.207-.926l.703-1.945c.766.32 1.408.547 1.928.68s1.037.199 1.553.199c.734 0 1.301-.143 1.699-.428s.598-.701.598-1.248c0-.352-.111-.643-.334-.873s-.498-.41-.826-.539-.797-.291-1.406-.486c-.734-.242-1.338-.482-1.811-.721s-.873-.598-1.201-1.078-.492-1.111-.492-1.893c0-1.07.412-1.922 1.236-2.555s1.924-.949 3.299-.949c1.008-.009 2.176.253 3.505.784zm5.566 8.942c.625.68 1.504 1.02 2.637 1.02.625 0 1.229-.066 1.811-.199s1.244-.359 1.986-.68l.715 1.676c-.852.414-1.648.717-2.391.908s-1.488.287-2.238.287c-1.859 0-3.301-.559-4.324-1.676s-1.535-2.684-1.535-4.699.504-3.58 1.512-4.693 2.434-1.67 4.277-1.67c1.727 0 3.014.52 3.861 1.559s1.271 2.613 1.271 4.723v.504h-8.613c.062 1.28.406 2.26 1.031 2.94zm4.435-7.002c-.48-.488-1.143-.732-1.986-.732-1.875 0-2.996.969-3.363 2.906h6.164c-.063-.961-.334-1.686-.815-2.174zm9.616-2.233a3.78 3.78 0 0 1 1.898-.492c.461 0 .996.086 1.605.258l-.41 2.215c-.781-.156-1.309-.238-1.582-.246-.688 0-1.256.129-1.705.387s-.834.676-1.154 1.254V802h-2.25v-12.34h1.805l.281 1.734c.43-.64.934-1.124 1.512-1.453zm3.785-.281h2.379l2.355 6.574c.125.352.26.764.404 1.236s.256.822.334 1.049c0-.031.129.375.387 1.219l.387-1.219c.398-1.25.645-2.012.738-2.285l2.355-6.574h2.285L1007.36 802h-2.836l-4.394-12.34zm13.805-4.558h2.25v2.309h-2.25v-2.309zm0 4.558h2.25V802h-2.25v-12.34zm14.871.82l-.785 1.805c-1.008-.562-1.984-.844-2.93-.844-1.148 0-2.035.379-2.66 1.137s-.938 1.836-.938 3.234c0 1.406.32 2.48.961 3.223s1.566 1.113 2.777 1.113c.445 0 .945-.068 1.5-.205s1.086-.314 1.594-.533l.609 1.793c-.609.289-1.266.518-1.969.686s-1.367.252-1.992.252c-1.844 0-3.27-.551-4.277-1.652s-1.512-2.66-1.512-4.676c0-2 .52-3.561 1.559-4.682s2.488-1.682 4.348-1.682c1.289 0 2.527.344 3.715 1.031zm4.992 8.696c.625.68 1.504 1.02 2.637 1.02.625 0 1.229-.066 1.811-.199s1.244-.359 1.986-.68l.715 1.676c-.852.414-1.648.717-2.391.908s-1.488.287-2.238.287c-1.859 0-3.301-.559-4.324-1.676s-1.535-2.684-1.535-4.699.504-3.58 1.512-4.693 2.434-1.67 4.277-1.67c1.727 0 3.014.52 3.861 1.559s1.271 2.613 1.271 4.723v.504h-8.613c.062 1.28.406 2.26 1.031 2.94zm4.435-7.002c-.48-.488-1.143-.732-1.986-.732-1.875 0-2.996.969-3.363 2.906h6.164c-.063-.961-.334-1.686-.815-2.174zm-178.505-51.737c1.5 1.283 2.25 3.138 2.25 5.563 0 2.402-.762 4.257-2.285 5.563s-3.68 1.96-6.469 1.96h-4.061V764H845.7v-25.488h7.523c2.837 0 5.005.641 6.505 1.925zM858.374 746c0-1.488-.419-2.599-1.257-3.331s-2.136-1.099-3.894-1.099h-4.061v8.895h4.061c3.434 0 5.151-1.488 5.151-4.465zm11.988 18l-7.031-18.51h3.357l2.373 6.451.615 1.652 2.303 6.451.756-2.268c.117-.363.375-1.14.773-2.329s.814-2.358 1.248-3.507l2.408-6.451h3.375l-10.283 27h-3.059l3.165-8.489zm19.705.211c-1.781 0-3.138-.46-4.069-1.38s-1.397-2.271-1.397-4.052v-10.371h-3.234v-2.918h3.41l.721-5.291h2.496v5.291h5.643v2.918h-5.643v9.826c0 1.055.208 1.811.624 2.268s1.104.686 2.065.686c.844 0 1.723-.152 2.637-.457l.633 2.654c-1.395.551-2.69.826-3.886.826zm17.35-19.037c1.969 0 3.475.568 4.518 1.705s1.564 2.789 1.564 4.957V764h-3.393v-11.918c0-1.371-.281-2.367-.844-2.988s-1.465-.932-2.707-.932c-1.102 0-2.133.246-3.094.738s-1.734 1.172-2.32 2.039V764h-3.375v-27.141h3.375v11.004c1.712-1.793 3.803-2.689 6.276-2.689zm25.436 2.487c1.535 1.682 2.303 4.034 2.303 7.058s-.768 5.373-2.303 7.049-3.691 2.514-6.469 2.514c-2.789 0-4.951-.838-6.486-2.514s-2.303-4.025-2.303-7.049.768-5.376 2.303-7.058 3.697-2.522 6.486-2.522c2.777 0 4.933.84 6.469 2.522zm-10.433 2.153c-.908 1.125-1.362 2.76-1.362 4.904 0 2.133.454 3.762 1.362 4.887s2.229 1.688 3.964 1.688c1.723 0 3.041-.562 3.955-1.688s1.371-2.754 1.371-4.887-.457-3.765-1.371-4.896-2.232-1.696-3.955-1.696c-1.735.001-3.056.563-3.964 1.688zm23.3-3.919c1.066-.48 2.262-.721 3.586-.721 1.969 0 3.475.568 4.518 1.705s1.564 2.789 1.564 4.957V764h-3.393v-11.918c0-1.371-.281-2.367-.844-2.988s-1.465-.932-2.707-.932c-1.102 0-2.133.246-3.094.738s-1.734 1.172-2.32 2.039V764h-3.375v-18.51h2.742l.387 2.602c.891-.985 1.869-1.717 2.936-2.197z"/></svg>