<svg width="960" height="540" viewBox="0 0 960 540" xmlns="http://www.w3.org/2000/svg" xmlns:xlink="http://www.w3.org/1999/xlink"><defs><path id="a" d="M0 0h960v540H0z"/></defs><g fill="none" fill-rule="evenodd"><mask id="b" fill="#fff"><use xlink:href="#a"/></mask><g mask="url(#b)"><path d="M0 0h960v540H0z"/><path d="M25.705 517.365v-1.93h6.463c.066.34.104.746.104 1.184 0 1.447-.397 3.24-1.672 4.515-1.24 1.293-2.827 1.982-4.929 1.982-3.895 0-7.17-3.17-7.17-7.066 0-3.895 3.275-7.066 7.17-7.066 2.154 0 3.689.844 4.843 1.947l-1.361 1.362c-.827-.776-1.948-1.379-3.481-1.379-2.844 0-5.068 2.292-5.068 5.136 0 2.844 2.224 5.136 5.068 5.136 1.844 0 2.895-.741 3.567-1.413.548-.547.908-1.333 1.048-2.408h-4.582zm16.483 1.213c0 2.62-2.05 4.55-4.567 4.55-2.517 0-4.567-1.93-4.567-4.55 0-2.637 2.05-4.55 4.567-4.55 2.516 0 4.567 1.913 4.567 4.55zm-1.999 0c0-1.637-1.189-2.758-2.568-2.758-1.378 0-2.568 1.12-2.568 2.758 0 1.62 1.189 2.758 2.568 2.758s2.568-1.138 2.568-2.758zm11.963 0c0 2.62-2.05 4.55-4.567 4.55-2.517 0-4.568-1.93-4.568-4.55 0-2.637 2.051-4.55 4.568-4.55 2.516 0 4.567 1.913 4.567 4.55zm-2 0c0-1.637-1.188-2.758-2.567-2.758-1.379 0-2.568 1.12-2.568 2.758 0 1.62 1.189 2.758 2.568 2.758 1.378 0 2.568-1.138 2.568-2.758zm11.55-4.274v8.17c0 3.36-1.982 4.739-4.326 4.739-2.206 0-3.533-1.483-4.033-2.69l1.74-.723c.311.741 1.069 1.62 2.293 1.62 1.5 0 2.43-.93 2.43-2.67v-.656h-.068c-.449.552-1.31 1.034-2.396 1.034-2.275 0-4.36-1.982-4.36-4.533 0-2.568 2.085-4.567 4.36-4.567 1.086 0 1.947.483 2.396 1.018h.068v-.742h1.896zm-1.758 4.291c0-1.602-1.068-2.775-2.43-2.775-1.379 0-2.533 1.173-2.533 2.775 0 1.586 1.154 2.741 2.533 2.741 1.361 0 2.43-1.155 2.43-2.74zm5.144-9.073v13.33H63.09v-13.33zm7.722 10.555l1.55 1.034c-.5.742-1.706 2.017-3.791 2.017-2.586 0-4.516-2-4.516-4.55 0-2.707 1.948-4.551 4.292-4.551 2.361 0 3.516 1.879 3.895 2.896l.207.517-6.084 2.516c.465.914 1.19 1.379 2.206 1.379s1.723-.499 2.24-1.258zm-4.775-1.637l4.067-1.69c-.224-.568-.896-.965-1.689-.965-1.017.001-2.43.897-2.378 2.655z" fill="#666"/><path d="M533.93 503.54h373.857v29.072H533.93z"/><path fill="#434343" d="M357.68 320.672h287.968v170.614H357.68z"/><path d="M367.633 348.404l1.61.25c.072.5.265.865.577 1.094.407.302.97.453 1.688.453.781 0 1.38-.156 1.797-.468.416-.303.703-.73.86-1.282.082-.343.119-1.062.109-2.156-.73.865-1.636 1.297-2.72 1.297-1.353 0-2.405-.49-3.155-1.469-.74-.979-1.11-2.15-1.11-3.515 0-.938.172-1.803.516-2.594.344-.802.838-1.417 1.484-1.844.646-.437 1.401-.656 2.266-.656 1.166 0 2.125.469 2.875 1.406v-1.187h1.547v8.515c0 1.542-.157 2.63-.47 3.266-.312.646-.806 1.15-1.483 1.515-.678.375-1.51.563-2.5.563-1.178 0-2.13-.266-2.86-.797-.719-.531-1.062-1.328-1.031-2.39zm1.375-5.921c0 1.302.255 2.25.766 2.843.52.594 1.166.89 1.937.89.76 0 1.401-.296 1.922-.89.52-.593.781-1.52.781-2.781 0-1.208-.27-2.115-.812-2.719-.532-.614-1.172-.922-1.922-.922-.74 0-1.37.303-1.89.907-.522.593-.782 1.484-.782 2.672zm9.548 5.109v-13.594h6.03c1.21 0 2.126.12 2.75.36.636.24 1.141.671 1.516 1.296.375.615.563 1.297.563 2.047 0 .969-.313 1.787-.938 2.453-.614.657-1.578 1.073-2.89 1.25.479.23.844.454 1.094.672a9.877 9.877 0 0 1 1.484 1.813l2.375 3.703h-2.266l-1.797-2.828a27.905 27.905 0 0 0-1.312-1.875c-.333-.438-.636-.74-.906-.906a2.527 2.527 0 0 0-.813-.36c-.208-.052-.547-.078-1.015-.078h-2.079v6.047h-1.796zm1.796-7.594h3.86c.823 0 1.463-.083 1.922-.25.468-.177.823-.453 1.062-.828.25-.375.375-.781.375-1.219 0-.646-.234-1.172-.703-1.578-.469-.416-1.208-.625-2.219-.625h-4.297v4.5zm11.645 7.594v-13.594h5.125c.906 0 1.6.042 2.078.125.667.115 1.224.328 1.672.64.448.313.807.75 1.078 1.313.282.563.422 1.177.422 1.844 0 1.156-.37 2.135-1.11 2.938-.728.802-2.056 1.203-3.984 1.203h-3.484v5.53h-1.797zm1.797-7.14h3.516c1.166 0 1.99-.214 2.468-.641.49-.438.735-1.047.735-1.828 0-.573-.146-1.063-.438-1.47a1.938 1.938 0 0 0-1.125-.796c-.302-.083-.86-.125-1.672-.125h-3.484v4.86zm20.35 2.374l1.797.453c-.375 1.48-1.052 2.61-2.031 3.391-.98.77-2.178 1.156-3.594 1.156-1.469 0-2.662-.297-3.578-.89-.917-.604-1.615-1.47-2.094-2.594a9.306 9.306 0 0 1-.719-3.656c0-1.417.266-2.651.797-3.703.542-1.053 1.313-1.85 2.313-2.391 1-.552 2.098-.828 3.296-.828 1.365 0 2.51.349 3.438 1.047.927.687 1.573 1.656 1.937 2.906l-1.765.422c-.313-.99-.771-1.709-1.375-2.156-.604-.459-1.36-.688-2.266-.688-1.042 0-1.917.25-2.625.75-.698.5-1.193 1.177-1.484 2.031a8.198 8.198 0 0 0-.422 2.61c0 1.156.167 2.166.5 3.03.344.855.87 1.496 1.578 1.923a4.45 4.45 0 0 0 2.313.64c1.01 0 1.864-.286 2.562-.859.698-.583 1.172-1.448 1.422-2.594zm8.89 4.766v-13.594h2.72l3.218 9.625c.292.896.505 1.568.64 2.016.157-.5.402-1.23.735-2.188l3.25-9.453h2.422v13.594h-1.734v-11.39l-3.954 11.39h-1.625l-3.937-11.578v11.578h-1.734zm15.4-11.688v-1.906h1.673v1.906h-1.672zm0 11.688v-9.86h1.673v9.86h-1.672zm10.567-3.61l1.641.22c-.177 1.124-.635 2.01-1.375 2.656-.74.635-1.651.953-2.734.953-1.344 0-2.427-.438-3.25-1.313-.813-.885-1.22-2.15-1.22-3.797 0-1.062.173-1.99.517-2.781.354-.802.89-1.401 1.609-1.797a4.77 4.77 0 0 1 2.36-.61c1.072 0 1.947.272 2.624.813.677.542 1.115 1.313 1.313 2.313l-1.625.25c-.156-.667-.433-1.167-.828-1.5-.396-.334-.87-.5-1.422-.5-.844 0-1.531.302-2.063.906-.52.604-.781 1.557-.781 2.86 0 1.322.255 2.286.766 2.89.51.594 1.172.89 1.984.89.656 0 1.203-.197 1.64-.593.438-.406.72-1.026.844-1.86zm2.875 3.61v-9.86h1.5v1.5c.386-.697.74-1.156 1.063-1.374a1.82 1.82 0 0 1 1.078-.344c.563 0 1.135.182 1.719.547l-.578 1.547a2.406 2.406 0 0 0-1.235-.36 1.6 1.6 0 0 0-.984.328c-.281.219-.484.521-.61.907a6.459 6.459 0 0 0-.28 1.953v5.156h-1.673zm5.604-4.922c0-1.823.51-3.177 1.531-4.062.844-.73 1.875-1.094 3.094-1.094 1.354 0 2.458.448 3.312 1.344.865.885 1.297 2.109 1.297 3.671 0 1.271-.193 2.271-.578 3a4.04 4.04 0 0 1-1.656 1.688 4.841 4.841 0 0 1-2.375.594c-1.375 0-2.49-.443-3.344-1.328-.854-.886-1.281-2.157-1.281-3.813zm1.718 0c0 1.26.276 2.203.829 2.828a2.656 2.656 0 0 0 2.078.938c.833 0 1.52-.313 2.062-.938.552-.635.828-1.599.828-2.89 0-1.22-.276-2.141-.828-2.766-.552-.625-1.24-.938-2.062-.938-.834 0-1.526.313-2.078.938-.553.625-.829 1.568-.829 2.828zm8.61 1.984l1.657-.265c.094.666.349 1.177.765 1.531.427.344 1.021.516 1.782.516.77 0 1.338-.157 1.703-.47.375-.312.562-.676.562-1.093 0-.375-.161-.672-.484-.89-.23-.146-.797-.334-1.703-.563-1.23-.312-2.084-.578-2.563-.797-.468-.229-.828-.541-1.078-.937a2.568 2.568 0 0 1-.36-1.328c0-.438.1-.844.298-1.22.208-.374.484-.687.828-.937.26-.187.614-.349 1.062-.484a4.943 4.943 0 0 1 1.438-.203c.781 0 1.463.114 2.047.344.583.218 1.01.52 1.28.906.282.375.475.88.579 1.515l-1.625.22c-.073-.5-.292-.891-.656-1.173-.354-.291-.854-.437-1.5-.437-.771 0-1.318.13-1.64.39-.324.25-.485.542-.485.875 0 .22.067.417.203.594.135.177.349.323.64.438.167.062.657.208 1.47.437 1.176.313 2 .568 2.468.766.469.198.833.49 1.094.875.27.385.406.864.406 1.437 0 .552-.161 1.078-.484 1.578-.323.49-.792.87-1.407 1.141-.614.26-1.307.39-2.078.39-1.281 0-2.26-.265-2.937-.796-.667-.531-1.094-1.318-1.281-2.36zm16.75-.234l1.72.219c-.272 1-.777 1.781-1.516 2.344-.73.552-1.667.828-2.813.828-1.437 0-2.578-.443-3.422-1.328-.843-.886-1.265-2.13-1.265-3.735 0-1.656.422-2.943 1.265-3.86.854-.916 1.964-1.374 3.328-1.374 1.323 0 2.401.448 3.235 1.344.833.895 1.25 2.161 1.25 3.796 0 .094-.005.24-.016.438h-7.344c.063 1.083.37 1.911.922 2.484s1.24.86 2.063.86c.604 0 1.12-.157 1.547-.47.437-.322.786-.838 1.047-1.546zm-5.484-2.703h5.5c-.073-.823-.281-1.443-.625-1.86-.531-.645-1.224-.968-2.078-.968-.76 0-1.406.26-1.937.781-.521.51-.808 1.193-.86 2.047zm9.095 5.875v-9.86h1.5v1.5c.385-.697.74-1.156 1.062-1.374a1.82 1.82 0 0 1 1.078-.344c.563 0 1.136.182 1.719.547l-.578 1.547a2.406 2.406 0 0 0-1.234-.36 1.6 1.6 0 0 0-.985.328c-.281.219-.484.521-.61.907a6.459 6.459 0 0 0-.28 1.953v5.156h-1.672zm8.962 0l-3.75-9.86h1.766l2.125 5.907c.23.635.437 1.297.625 1.984.146-.52.354-1.146.625-1.875l2.187-6.015h1.72l-3.735 9.859h-1.563zm6.61-11.688v-1.906h1.672v1.906h-1.672zm0 11.688v-9.86h1.672v9.86h-1.672zm10.566-3.61l1.641.22c-.177 1.124-.635 2.01-1.375 2.656-.74.635-1.651.953-2.734.953-1.344 0-2.427-.438-3.25-1.313-.813-.885-1.22-2.15-1.22-3.797 0-1.062.173-1.99.516-2.781.355-.802.891-1.401 1.61-1.797a4.77 4.77 0 0 1 2.36-.61c1.072 0 1.947.272 2.624.813.677.542 1.115 1.313 1.313 2.313l-1.625.25c-.157-.667-.433-1.167-.828-1.5-.396-.334-.87-.5-1.422-.5-.844 0-1.532.302-2.063.906-.52.604-.781 1.557-.781 2.86 0 1.322.255 2.286.766 2.89.51.594 1.171.89 1.984.89.656 0 1.203-.197 1.64-.593.438-.406.72-1.026.844-1.86zm9.641.438l1.719.219c-.271 1-.776 1.781-1.516 2.344-.729.552-1.667.828-2.812.828-1.438 0-2.579-.443-3.422-1.328-.844-.886-1.266-2.13-1.266-3.735 0-1.656.422-2.943 1.266-3.86.854-.916 1.963-1.374 3.328-1.374 1.323 0 2.4.448 3.234 1.344.834.895 1.25 2.161 1.25 3.796 0 .094-.005.24-.015.438h-7.344c.062 1.083.37 1.911.922 2.484s1.24.86 2.062.86c.604 0 1.12-.157 1.547-.47.438-.322.787-.838 1.047-1.546zm-5.484-2.703h5.5c-.073-.823-.282-1.443-.625-1.86-.532-.645-1.224-.968-2.079-.968-.76 0-1.406.26-1.937.781-.52.51-.807 1.193-.86 2.047zm22.606 4.266v1.609h-8.985c-.01-.406.052-.792.188-1.156.229-.615.593-1.22 1.093-1.813.51-.594 1.24-1.281 2.188-2.062 1.48-1.209 2.48-2.167 3-2.875.52-.709.781-1.38.781-2.016a2.23 2.23 0 0 0-.719-1.672c-.468-.458-1.083-.687-1.843-.687-.802 0-1.448.244-1.938.734-.479.48-.719 1.146-.719 2l-1.718-.172c.114-1.281.557-2.255 1.328-2.922.77-.677 1.802-1.015 3.094-1.015 1.302 0 2.333.364 3.093 1.093.76.72 1.14 1.615 1.14 2.688a4.03 4.03 0 0 1-.343 1.61c-.219.52-.588 1.072-1.11 1.656-.51.572-1.364 1.37-2.562 2.39-1 .844-1.646 1.417-1.937 1.719a5.372 5.372 0 0 0-.703.89h6.672zm10.434 5.609c-.917-1.167-1.693-2.526-2.329-4.078a12.743 12.743 0 0 1-.953-4.844c0-1.48.235-2.89.703-4.234.563-1.563 1.422-3.12 2.579-4.672h1.203c-.75 1.281-1.245 2.198-1.485 2.75a15.468 15.468 0 0 0-.89 2.672 15.23 15.23 0 0 0-.407 3.484c0 2.98.927 5.953 2.782 8.922h-1.203zm3.243-4v-13.594h5.125c.907 0 1.6.042 2.079.125.666.115 1.224.328 1.671.64.448.313.808.75 1.079 1.313.28.563.421 1.177.421 1.844 0 1.156-.37 2.135-1.109 2.938-.729.802-2.057 1.203-3.984 1.203h-3.485v5.53h-1.797zm1.797-7.14h3.516c1.167 0 1.99-.214 2.469-.641.49-.438.734-1.047.734-1.828 0-.573-.146-1.063-.437-1.47a1.938 1.938 0 0 0-1.125-.796c-.302-.083-.86-.125-1.672-.125h-3.485v4.86zm10.35 10.937l-.172-1.563c.365.094.683.14.953.14.365 0 .657-.062.875-.187.23-.125.417-.296.563-.515.104-.167.27-.584.5-1.25a6.28 6.28 0 0 1 .156-.406l-3.734-9.875h1.797l2.047 5.718c.27.719.51 1.48.718 2.282a20.1 20.1 0 0 1 .688-2.25l2.094-5.75h1.671l-3.75 10.03c-.395 1.084-.708 1.829-.937 2.235-.292.552-.63.953-1.016 1.203-.385.26-.843.39-1.375.39a3.37 3.37 0 0 1-1.078-.202zm13.063-5.297l.234 1.484c-.469.094-.89.14-1.266.14-.604 0-1.073-.093-1.406-.28-.333-.198-.568-.448-.703-.75-.135-.313-.203-.974-.203-1.985v-5.656h-1.234v-1.312h1.234v-2.438l1.656-1v3.438h1.688v1.312h-1.688v5.75c0 .48.026.787.078.922a.75.75 0 0 0 .297.328c.136.083.328.125.578.125.177 0 .422-.026.735-.078zm1.527 1.5v-13.594h1.672v4.875c.78-.906 1.765-1.36 2.953-1.36.729 0 1.36.147 1.89.438.542.282.927.677 1.157 1.188.24.51.359 1.245.359 2.203v6.25h-1.672v-6.25c0-.833-.182-1.438-.547-1.813-.364-.385-.875-.578-1.531-.578-.5 0-.969.13-1.406.39-.427.25-.735.6-.922 1.048-.188.437-.281 1.041-.281 1.812v5.39h-1.672zm9.75-4.922c0-1.823.51-3.177 1.532-4.062.843-.73 1.875-1.094 3.093-1.094 1.355 0 2.459.448 3.313 1.344.865.885 1.297 2.109 1.297 3.671 0 1.271-.193 2.271-.578 3a4.04 4.04 0 0 1-1.657 1.688 4.841 4.841 0 0 1-2.375.594c-1.375 0-2.49-.443-3.343-1.328-.854-.886-1.282-2.157-1.282-3.813zm1.72 0c0 1.26.275 2.203.827 2.828a2.656 2.656 0 0 0 2.078.938c.834 0 1.521-.313 2.063-.938.552-.635.828-1.599.828-2.89 0-1.22-.276-2.141-.828-2.766-.552-.625-1.24-.938-2.063-.938-.833 0-1.526.313-2.078.938-.552.625-.828 1.568-.828 2.828zm9.281 4.922v-9.86h1.5v1.407c.73-1.084 1.776-1.625 3.14-1.625.595 0 1.141.11 1.641.328.5.208.87.49 1.11.844.25.343.427.75.531 1.218.063.313.094.855.094 1.625v6.063h-1.672v-6c0-.677-.068-1.182-.203-1.516a1.538 1.538 0 0 0-.688-.812c-.333-.198-.724-.297-1.172-.297-.708 0-1.323.224-1.843.672-.51.448-.766 1.307-.766 2.578v5.375h-1.672zm11.47 4h-1.188c1.844-2.969 2.766-5.943 2.766-8.922 0-1.156-.13-2.307-.39-3.453a15.468 15.468 0 0 0-.891-2.672c-.24-.562-.735-1.49-1.485-2.781h1.188c1.166 1.552 2.026 3.11 2.578 4.672.479 1.343.719 2.755.719 4.234 0 1.667-.323 3.281-.97 4.844-.635 1.552-1.41 2.911-2.327 4.078z" fill="#FFF" fill-rule="nonzero"/><path fill="#4285F4" d="M375.672 367.864H492.49v99.15H375.67zm129.409 0h116.82v99.15H505.08z"/><path fill="#434343" d="M12.806 320.672h328.44v144.85H12.807z"/><path d="M22.759 348.404l1.61.25c.072.5.265.865.577 1.094.407.302.97.453 1.688.453.781 0 1.38-.156 1.797-.468.416-.303.703-.73.86-1.282.082-.343.119-1.062.109-2.156-.73.865-1.636 1.297-2.72 1.297-1.353 0-2.405-.49-3.155-1.469-.74-.979-1.11-2.15-1.11-3.515 0-.938.172-1.803.516-2.594.344-.802.838-1.417 1.484-1.844.646-.437 1.401-.656 2.266-.656 1.166 0 2.125.469 2.875 1.406v-1.187h1.547v8.515c0 1.542-.157 2.63-.47 3.266-.312.646-.806 1.15-1.483 1.515-.678.375-1.51.563-2.5.563-1.178 0-2.13-.266-2.86-.797-.719-.531-1.062-1.328-1.031-2.39zm1.375-5.921c0 1.302.255 2.25.766 2.843.52.594 1.166.89 1.937.89.76 0 1.401-.296 1.922-.89.52-.593.781-1.52.781-2.781 0-1.208-.27-2.115-.812-2.719-.532-.614-1.172-.922-1.922-.922-.74 0-1.37.303-1.89.907-.522.593-.782 1.484-.782 2.672zm9.547 5.109v-13.594h6.032c1.208 0 2.125.12 2.75.36.635.24 1.14.671 1.515 1.296.375.615.563 1.297.563 2.047 0 .969-.313 1.787-.938 2.453-.614.657-1.578 1.073-2.89 1.25.479.23.843.454 1.093.672a9.877 9.877 0 0 1 1.485 1.813l2.375 3.703H43.4l-1.797-2.828a27.905 27.905 0 0 0-1.312-1.875c-.333-.438-.636-.74-.906-.906a2.527 2.527 0 0 0-.813-.36c-.208-.052-.547-.078-1.016-.078h-2.078v6.047h-1.797zm1.797-7.594h3.86c.823 0 1.463-.083 1.922-.25.468-.177.823-.453 1.062-.828.25-.375.375-.781.375-1.219 0-.646-.234-1.172-.703-1.578-.469-.416-1.208-.625-2.219-.625h-4.297v4.5zm11.645 7.594v-13.594h5.125c.906 0 1.6.042 2.078.125.667.115 1.224.328 1.672.64.448.313.807.75 1.078 1.313.282.563.422 1.177.422 1.844 0 1.156-.37 2.135-1.11 2.938-.728.802-2.056 1.203-3.984 1.203H48.92v5.53h-1.797zm1.797-7.14h3.516c1.166 0 1.99-.214 2.468-.641.49-.438.735-1.047.735-1.828 0-.573-.146-1.063-.438-1.47a1.938 1.938 0 0 0-1.125-.796c-.302-.083-.86-.125-1.672-.125H48.92v4.86zm20.35 2.374l1.797.453c-.375 1.48-1.052 2.61-2.031 3.391-.98.77-2.178 1.156-3.594 1.156-1.469 0-2.662-.297-3.578-.89-.917-.604-1.615-1.47-2.094-2.594a9.306 9.306 0 0 1-.719-3.656c0-1.417.266-2.651.797-3.703.542-1.053 1.313-1.85 2.313-2.391 1-.552 2.098-.828 3.296-.828 1.365 0 2.51.349 3.438 1.047.927.687 1.573 1.656 1.937 2.906l-1.765.422c-.313-.99-.771-1.709-1.375-2.156-.604-.459-1.36-.688-2.266-.688-1.042 0-1.917.25-2.625.75-.698.5-1.193 1.177-1.484 2.031a8.198 8.198 0 0 0-.422 2.61c0 1.156.167 2.166.5 3.03.344.855.87 1.496 1.578 1.923a4.45 4.45 0 0 0 2.313.64c1.01 0 1.864-.286 2.562-.859.698-.583 1.172-1.448 1.422-2.594zm8.89 4.766v-13.594h2.72l3.218 9.625c.292.896.505 1.568.64 2.016.157-.5.402-1.23.735-2.188l3.25-9.453h2.422v13.594H89.41v-11.39l-3.954 11.39h-1.625l-3.937-11.578v11.578H78.16zm15.4-11.688v-1.906h1.673v1.906H93.56zm0 11.688v-9.86h1.673v9.86H93.56zm10.567-3.61l1.641.22c-.177 1.124-.635 2.01-1.375 2.656-.74.635-1.651.953-2.734.953-1.344 0-2.427-.438-3.25-1.313-.813-.885-1.22-2.15-1.22-3.797 0-1.062.173-1.99.517-2.781.354-.802.89-1.401 1.609-1.797a4.77 4.77 0 0 1 2.36-.61c1.072 0 1.947.272 2.624.813.677.542 1.115 1.313 1.313 2.313l-1.625.25c-.156-.667-.433-1.167-.828-1.5-.396-.334-.87-.5-1.422-.5-.844 0-1.531.302-2.063.906-.52.604-.781 1.557-.781 2.86 0 1.322.255 2.286.766 2.89.51.594 1.172.89 1.984.89.656 0 1.203-.197 1.64-.593.438-.406.72-1.026.844-1.86zm2.875 3.61v-9.86h1.5v1.5c.386-.697.74-1.156 1.063-1.374a1.82 1.82 0 0 1 1.078-.344c.563 0 1.135.182 1.719.547l-.578 1.547a2.406 2.406 0 0 0-1.235-.36 1.6 1.6 0 0 0-.984.328c-.281.219-.484.521-.61.907a6.459 6.459 0 0 0-.28 1.953v5.156h-1.673zm5.604-4.922c0-1.823.51-3.177 1.53-4.062.845-.73 1.876-1.094 3.095-1.094 1.354 0 2.458.448 3.312 1.344.865.885 1.297 2.109 1.297 3.671 0 1.271-.193 2.271-.578 3a4.04 4.04 0 0 1-1.656 1.688 4.841 4.841 0 0 1-2.375.594c-1.375 0-2.49-.443-3.344-1.328-.854-.886-1.281-2.157-1.281-3.813zm1.718 0c0 1.26.276 2.203.829 2.828a2.656 2.656 0 0 0 2.078.938c.833 0 1.52-.313 2.062-.938.552-.635.828-1.599.828-2.89 0-1.22-.276-2.141-.828-2.766-.552-.625-1.24-.938-2.062-.938-.834 0-1.526.313-2.078.938-.553.625-.829 1.568-.829 2.828zm8.61 1.984l1.657-.265c.094.666.349 1.177.765 1.531.427.344 1.021.516 1.782.516.77 0 1.338-.157 1.703-.47.375-.312.562-.676.562-1.093 0-.375-.161-.672-.484-.89-.23-.146-.797-.334-1.703-.563-1.23-.312-2.084-.578-2.563-.797-.468-.229-.828-.541-1.078-.937a2.568 2.568 0 0 1-.36-1.328c0-.438.1-.844.298-1.22.208-.374.484-.687.828-.937.26-.187.614-.349 1.062-.484a4.943 4.943 0 0 1 1.438-.203c.781 0 1.463.114 2.047.344.583.218 1.01.52 1.28.906.282.375.475.88.579 1.515l-1.625.22c-.073-.5-.292-.891-.656-1.173-.354-.291-.854-.437-1.5-.437-.771 0-1.318.13-1.64.39-.324.25-.485.542-.485.875 0 .22.067.417.203.594.135.177.349.323.64.438.167.062.657.208 1.47.437 1.176.313 2 .568 2.468.766.469.198.833.49 1.094.875.27.385.406.864.406 1.437 0 .552-.161 1.078-.484 1.578-.323.49-.792.87-1.407 1.141-.614.26-1.307.39-2.078.39-1.281 0-2.26-.265-2.937-.796-.667-.531-1.094-1.318-1.281-2.36zm16.75-.234l1.72.219c-.272 1-.777 1.781-1.516 2.344-.73.552-1.667.828-2.813.828-1.437 0-2.578-.443-3.422-1.328-.843-.886-1.265-2.13-1.265-3.735 0-1.656.422-2.943 1.265-3.86.854-.916 1.964-1.374 3.328-1.374 1.323 0 2.401.448 3.235 1.344.833.895 1.25 2.161 1.25 3.796 0 .094-.005.24-.016.438h-7.344c.063 1.083.37 1.911.922 2.484s1.24.86 2.063.86c.604 0 1.12-.157 1.547-.47.437-.322.786-.838 1.047-1.546zm-5.484-2.703h5.5c-.073-.823-.281-1.443-.625-1.86-.531-.645-1.224-.968-2.078-.968-.76 0-1.406.26-1.937.781-.521.51-.808 1.193-.86 2.047zm9.095 5.875v-9.86h1.5v1.5c.385-.697.74-1.156 1.062-1.374a1.82 1.82 0 0 1 1.078-.344c.563 0 1.136.182 1.719.547l-.578 1.547a2.406 2.406 0 0 0-1.235-.36 1.6 1.6 0 0 0-.984.328c-.281.219-.484.521-.61.907a6.459 6.459 0 0 0-.28 1.953v5.156h-1.672zm8.962 0l-3.75-9.86h1.766l2.125 5.907c.23.635.437 1.297.625 1.984.146-.52.354-1.146.625-1.875l2.187-6.015h1.72l-3.735 9.859h-1.563zm6.61-11.688v-1.906h1.672v1.906h-1.672zm0 11.688v-9.86h1.672v9.86h-1.672zm10.566-3.61l1.641.22c-.177 1.124-.635 2.01-1.375 2.656-.74.635-1.651.953-2.734.953-1.344 0-2.427-.438-3.25-1.313-.813-.885-1.22-2.15-1.22-3.797 0-1.062.173-1.99.516-2.781.355-.802.891-1.401 1.61-1.797a4.77 4.77 0 0 1 2.36-.61c1.072 0 1.947.272 2.624.813.677.542 1.115 1.313 1.313 2.313l-1.625.25c-.157-.667-.433-1.167-.828-1.5-.396-.334-.87-.5-1.422-.5-.844 0-1.532.302-2.063.906-.52.604-.781 1.557-.781 2.86 0 1.322.255 2.286.766 2.89.51.594 1.171.89 1.984.89.656 0 1.203-.197 1.64-.593.438-.406.72-1.026.844-1.86zm9.641.438l1.719.219c-.271 1-.776 1.781-1.516 2.344-.73.552-1.667.828-2.812.828-1.438 0-2.579-.443-3.422-1.328-.844-.886-1.266-2.13-1.266-3.735 0-1.656.422-2.943 1.266-3.86.854-.916 1.963-1.374 3.328-1.374 1.323 0 2.4.448 3.234 1.344.834.895 1.25 2.161 1.25 3.796 0 .094-.005.24-.015.438h-7.344c.062 1.083.37 1.911.922 2.484s1.24.86 2.062.86c.604 0 1.12-.157 1.547-.47.438-.322.787-.838 1.047-1.546zm-5.484-2.703h5.5c-.073-.823-.282-1.443-.625-1.86-.532-.645-1.224-.968-2.079-.968-.76 0-1.406.26-1.937.781-.52.51-.807 1.193-.86 2.047zm20.121 5.875h-1.672v-10.64c-.396.385-.922.77-1.578 1.156-.656.375-1.245.661-1.765.859v-1.625a9.961 9.961 0 0 0 2.453-1.594c.698-.625 1.192-1.229 1.484-1.812h1.078v13.656zm12.919 4c-.917-1.167-1.693-2.526-2.329-4.078a12.743 12.743 0 0 1-.953-4.844c0-1.48.235-2.89.703-4.234.563-1.563 1.422-3.12 2.579-4.672h1.203c-.75 1.281-1.245 2.198-1.485 2.75a15.468 15.468 0 0 0-.89 2.672 15.23 15.23 0 0 0-.407 3.484c0 2.98.927 5.953 2.782 8.922h-1.203zm2.322-7.86l1.625-.218c.041 1.031.234 1.74.578 2.125.354.385.833.578 1.437.578.459 0 .85-.104 1.172-.313.333-.208.557-.49.672-.843.125-.354.187-.922.187-1.703v-9.36h1.813v9.266c0 1.135-.14 2.015-.422 2.64a2.935 2.935 0 0 1-1.312 1.438c-.594.323-1.292.484-2.094.484-1.198 0-2.115-.343-2.75-1.031-.625-.687-.927-1.708-.906-3.062zm16.468 2.641c-.625.531-1.224.906-1.797 1.125a5.354 5.354 0 0 1-1.843.313c-1.073 0-1.901-.26-2.485-.782-.583-.53-.875-1.208-.875-2.03 0-.49.11-.933.328-1.329.22-.396.506-.713.86-.953s.755-.422 1.203-.547c.333-.094.828-.177 1.484-.25 1.355-.167 2.35-.36 2.985-.578v-.438c0-.677-.157-1.156-.469-1.437-.427-.375-1.063-.563-1.906-.563-.782 0-1.36.136-1.735.407-.375.27-.65.76-.828 1.468l-1.64-.234c.156-.698.4-1.26.734-1.687.344-.428.833-.756 1.469-.985.646-.24 1.396-.36 2.25-.36.843 0 1.526.1 2.047.298.52.198.906.448 1.156.75.25.302.422.682.515 1.14.063.282.094.792.094 1.532v2.234c0 1.552.031 2.536.094 2.953.073.406.219.797.437 1.172h-1.75a3.275 3.275 0 0 1-.328-1.219zm-.14-3.719c-.604.24-1.516.448-2.735.625-.687.094-1.172.204-1.453.329a1.48 1.48 0 0 0-.656.546c-.156.24-.234.506-.234.797 0 .448.166.823.5 1.125.343.292.838.438 1.484.438s1.219-.14 1.719-.422c.5-.292.87-.677 1.11-1.156.176-.386.265-.943.265-1.672v-.61zm6.813 4.938l-3.75-9.86h1.766l2.125 5.907c.229.635.437 1.297.625 1.984.145-.52.354-1.146.625-1.875l2.187-6.015h1.719l-3.735 9.859h-1.562zm13.031-1.219c-.625.531-1.224.906-1.797 1.125a5.354 5.354 0 0 1-1.843.313c-1.073 0-1.901-.26-2.485-.782-.583-.53-.875-1.208-.875-2.03 0-.49.11-.933.328-1.329.22-.396.506-.713.86-.953s.755-.422 1.203-.547c.333-.094.828-.177 1.484-.25 1.354-.167 2.35-.36 2.985-.578v-.438c0-.677-.157-1.156-.47-1.437-.426-.375-1.062-.563-1.905-.563-.782 0-1.36.136-1.735.407-.375.27-.65.76-.828 1.468l-1.64-.234c.156-.698.4-1.26.734-1.687.344-.428.833-.756 1.469-.985.645-.24 1.395-.36 2.25-.36.843 0 1.526.1 2.046.298.521.198.907.448 1.157.75s.422.682.515 1.14c.063.282.094.792.094 1.532v2.234c0 1.552.031 2.536.094 2.953.073.406.219.797.437 1.172h-1.75a3.275 3.275 0 0 1-.328-1.219zm-.14-3.719c-.605.24-1.516.448-2.735.625-.687.094-1.172.204-1.453.329a1.48 1.48 0 0 0-.656.546c-.156.24-.235.506-.235.797 0 .448.167.823.5 1.125.344.292.839.438 1.485.438.646 0 1.219-.14 1.719-.422.5-.292.87-.677 1.109-1.156.177-.386.266-.943.266-1.672v-.61zm5.172 8.938h-1.187c1.843-2.969 2.765-5.943 2.765-8.922 0-1.156-.13-2.307-.39-3.453a15.468 15.468 0 0 0-.891-2.672c-.24-.562-.734-1.49-1.484-2.781h1.187c1.167 1.552 2.026 3.11 2.578 4.672.48 1.343.719 2.755.719 4.234 0 1.667-.323 3.281-.969 4.844-.635 1.552-1.411 2.911-2.328 4.078z" fill="#FFF" fill-rule="nonzero"/><path fill="#34A853" d="M32.8 364.856h87.213v80.976H32.801zm99.95 0h87.213v80.976h-87.212zm99.95 0h87.212v80.976H232.7z"/><path fill="#434343" d="M657.294 320.672h282.583v163.81H657.294z"/><path d="M667.247 348.404l1.61.25c.072.5.265.865.578 1.094.406.302.968.453 1.687.453.781 0 1.38-.156 1.797-.468.417-.303.703-.73.86-1.282.083-.343.12-1.062.109-2.156-.73.865-1.636 1.297-2.719 1.297-1.354 0-2.406-.49-3.156-1.469-.74-.979-1.11-2.15-1.11-3.515 0-.938.172-1.803.516-2.594.344-.802.839-1.417 1.484-1.844.646-.437 1.401-.656 2.266-.656 1.167 0 2.125.469 2.875 1.406v-1.187h1.547v8.515c0 1.542-.156 2.63-.469 3.266-.312.646-.807 1.15-1.484 1.515-.677.375-1.51.563-2.5.563-1.177 0-2.13-.266-2.86-.797-.718-.531-1.062-1.328-1.03-2.39zm1.375-5.921c0 1.302.255 2.25.766 2.843.52.594 1.166.89 1.937.89.76 0 1.401-.296 1.922-.89.52-.593.781-1.52.781-2.781 0-1.208-.27-2.115-.812-2.719-.531-.614-1.172-.922-1.922-.922-.74 0-1.37.303-1.89.907-.521.593-.782 1.484-.782 2.672zm9.548 5.109v-13.594h6.031c1.208 0 2.125.12 2.75.36.635.24 1.14.671 1.516 1.296.375.615.562 1.297.562 2.047 0 .969-.312 1.787-.937 2.453-.615.657-1.579 1.073-2.891 1.25.48.23.844.454 1.094.672a9.877 9.877 0 0 1 1.484 1.813l2.375 3.703h-2.266l-1.796-2.828a27.905 27.905 0 0 0-1.313-1.875c-.333-.438-.635-.74-.906-.906a2.527 2.527 0 0 0-.813-.36c-.208-.052-.547-.078-1.015-.078h-2.078v6.047h-1.797zm1.797-7.594h3.859c.823 0 1.463-.083 1.922-.25.469-.177.823-.453 1.062-.828.25-.375.375-.781.375-1.219 0-.646-.234-1.172-.703-1.578-.469-.416-1.208-.625-2.219-.625h-4.296v4.5zm11.644 7.594v-13.594h5.125c.907 0 1.6.042 2.079.125.666.115 1.224.328 1.671.64.448.313.808.75 1.079 1.313.28.563.421 1.177.421 1.844 0 1.156-.37 2.135-1.109 2.938-.73.802-2.057 1.203-3.984 1.203h-3.485v5.53h-1.797zm1.797-7.14h3.516c1.167 0 1.99-.214 2.469-.641.49-.438.734-1.047.734-1.828 0-.573-.146-1.063-.437-1.47a1.938 1.938 0 0 0-1.125-.796c-.303-.083-.86-.125-1.672-.125h-3.485v4.86zm20.35 2.374l1.797.453c-.375 1.48-1.052 2.61-2.031 3.391-.98.77-2.177 1.156-3.594 1.156-1.469 0-2.661-.297-3.578-.89-.917-.604-1.615-1.47-2.094-2.594a9.306 9.306 0 0 1-.719-3.656c0-1.417.266-2.651.797-3.703.542-1.053 1.313-1.85 2.313-2.391 1-.552 2.099-.828 3.297-.828 1.364 0 2.51.349 3.437 1.047.927.687 1.573 1.656 1.938 2.906l-1.766.422c-.313-.99-.77-1.709-1.375-2.156-.604-.459-1.36-.688-2.266-.688-1.041 0-1.916.25-2.625.75-.698.5-1.192 1.177-1.484 2.031a8.198 8.198 0 0 0-.422 2.61c0 1.156.167 2.166.5 3.03.344.855.87 1.496 1.578 1.923a4.45 4.45 0 0 0 2.313.64c1.01 0 1.864-.286 2.562-.859.698-.583 1.172-1.448 1.422-2.594zm8.89 4.766v-13.594h2.72l3.218 9.625c.292.896.505 1.568.64 2.016.157-.5.402-1.23.735-2.188l3.25-9.453h2.422v13.594H733.9v-11.39l-3.953 11.39h-1.625l-3.938-11.578v11.578h-1.734zm15.4-11.688v-1.906h1.673v1.906h-1.672zm0 11.688v-9.86h1.673v9.86h-1.672zm10.568-3.61l1.64.22c-.177 1.124-.635 2.01-1.375 2.656-.74.635-1.65.953-2.734.953-1.344 0-2.427-.438-3.25-1.313-.813-.885-1.219-2.15-1.219-3.797 0-1.062.172-1.99.516-2.781.354-.802.89-1.401 1.61-1.797a4.77 4.77 0 0 1 2.359-.61c1.072 0 1.947.272 2.625.813.677.542 1.114 1.313 1.312 2.313l-1.625.25c-.156-.667-.432-1.167-.828-1.5-.396-.334-.87-.5-1.422-.5-.844 0-1.531.302-2.062.906-.521.604-.782 1.557-.782 2.86 0 1.322.255 2.286.766 2.89.51.594 1.172.89 1.984.89.657 0 1.203-.197 1.64-.593.438-.406.72-1.026.845-1.86zm2.875 3.61v-9.86h1.5v1.5c.385-.697.74-1.156 1.062-1.374a1.82 1.82 0 0 1 1.078-.344c.563 0 1.136.182 1.719.547l-.578 1.547a2.406 2.406 0 0 0-1.234-.36 1.6 1.6 0 0 0-.985.328c-.281.219-.484.521-.61.907a6.459 6.459 0 0 0-.28 1.953v5.156h-1.672zm5.603-4.922c0-1.823.51-3.177 1.531-4.062.844-.73 1.875-1.094 3.094-1.094 1.354 0 2.458.448 3.312 1.344.865.885 1.297 2.109 1.297 3.671 0 1.271-.192 2.271-.578 3a4.04 4.04 0 0 1-1.656 1.688 4.841 4.841 0 0 1-2.375.594c-1.375 0-2.49-.443-3.344-1.328-.854-.886-1.281-2.157-1.281-3.813zm1.719 0c0 1.26.276 2.203.828 2.828a2.656 2.656 0 0 0 2.078.938c.833 0 1.52-.313 2.062-.938.552-.635.829-1.599.829-2.89 0-1.22-.277-2.141-.829-2.766-.552-.625-1.24-.938-2.062-.938-.833 0-1.526.313-2.078.938-.552.625-.828 1.568-.828 2.828zm8.61 1.984l1.656-.265c.094.666.349 1.177.766 1.531.427.344 1.02.516 1.78.516.772 0 1.34-.157 1.704-.47.375-.312.563-.676.563-1.093 0-.375-.162-.672-.485-.89-.229-.146-.797-.334-1.703-.563-1.23-.312-2.083-.578-2.562-.797-.47-.229-.829-.541-1.079-.937a2.568 2.568 0 0 1-.359-1.328c0-.438.099-.844.297-1.22.208-.374.484-.687.828-.937.26-.187.615-.349 1.063-.484a4.943 4.943 0 0 1 1.437-.203c.781 0 1.464.114 2.047.344.583.218 1.01.52 1.281.906.281.375.474.88.578 1.515l-1.625.22c-.073-.5-.291-.891-.656-1.173-.354-.291-.854-.437-1.5-.437-.77 0-1.318.13-1.64.39-.324.25-.485.542-.485.875 0 .22.068.417.203.594.136.177.35.323.64.438.167.062.657.208 1.47.437 1.177.313 2 .568 2.468.766.469.198.834.49 1.094.875.27.385.406.864.406 1.437 0 .552-.161 1.078-.484 1.578-.323.49-.792.87-1.406 1.141-.615.26-1.308.39-2.078.39-1.282 0-2.26-.265-2.938-.796-.667-.531-1.094-1.318-1.281-2.36zm16.75-.234l1.719.219c-.271 1-.777 1.781-1.516 2.344-.73.552-1.667.828-2.813.828-1.437 0-2.578-.443-3.421-1.328-.844-.886-1.266-2.13-1.266-3.735 0-1.656.422-2.943 1.266-3.86.854-.916 1.963-1.374 3.328-1.374 1.323 0 2.4.448 3.234 1.344.833.895 1.25 2.161 1.25 3.796 0 .094-.005.24-.016.438h-7.343c.062 1.083.37 1.911.922 2.484s1.24.86 2.062.86c.604 0 1.12-.157 1.547-.47.437-.322.786-.838 1.047-1.546zm-5.485-2.703h5.5c-.073-.823-.28-1.443-.625-1.86-.53-.645-1.224-.968-2.078-.968-.76 0-1.406.26-1.937.781-.521.51-.808 1.193-.86 2.047zm9.095 5.875v-9.86h1.5v1.5c.385-.697.74-1.156 1.062-1.374a1.82 1.82 0 0 1 1.078-.344c.563 0 1.136.182 1.72.547l-.579 1.547a2.406 2.406 0 0 0-1.234-.36 1.6 1.6 0 0 0-.985.328c-.28.219-.484.521-.609.907a6.459 6.459 0 0 0-.281 1.953v5.156h-1.672zm8.963 0l-3.75-9.86h1.765l2.125 5.907c.23.635.438 1.297.625 1.984.146-.52.354-1.146.625-1.875l2.188-6.015h1.718l-3.734 9.859h-1.562zm6.609-11.688v-1.906h1.672v1.906h-1.672zm0 11.688v-9.86h1.672v9.86h-1.672zm10.567-3.61l1.64.22c-.177 1.124-.635 2.01-1.375 2.656-.74.635-1.65.953-2.734.953-1.344 0-2.427-.438-3.25-1.313-.813-.885-1.219-2.15-1.219-3.797 0-1.062.172-1.99.516-2.781.354-.802.89-1.401 1.61-1.797a4.77 4.77 0 0 1 2.358-.61c1.073 0 1.948.272 2.625.813.678.542 1.115 1.313 1.313 2.313l-1.625.25c-.156-.667-.432-1.167-.828-1.5-.396-.334-.87-.5-1.422-.5-.844 0-1.531.302-2.063.906-.52.604-.78 1.557-.78 2.86 0 1.322.254 2.286.765 2.89.51.594 1.172.89 1.984.89.656 0 1.203-.197 1.64-.593.438-.406.72-1.026.845-1.86zm9.64.438l1.719.219c-.27 1-.776 1.781-1.516 2.344-.729.552-1.666.828-2.812.828-1.438 0-2.578-.443-3.422-1.328-.844-.886-1.266-2.13-1.266-3.735 0-1.656.422-2.943 1.266-3.86.854-.916 1.964-1.374 3.328-1.374 1.323 0 2.401.448 3.234 1.344.834.895 1.25 2.161 1.25 3.796 0 .094-.005.24-.015.438h-7.344c.063 1.083.37 1.911.922 2.484s1.24.86 2.062.86c.605 0 1.12-.157 1.547-.47.438-.322.787-.838 1.047-1.546zm-5.484-2.703h5.5c-.073-.823-.281-1.443-.625-1.86-.531-.645-1.224-.968-2.078-.968-.76 0-1.407.26-1.938.781-.52.51-.807 1.193-.86 2.047zm13.84 2.281l1.672-.219c.187.948.51 1.63.969 2.047.468.417 1.031.625 1.687.625.792 0 1.459-.27 2-.812.542-.552.813-1.23.813-2.031 0-.76-.255-1.391-.766-1.891-.5-.5-1.135-.75-1.906-.75-.313 0-.703.062-1.172.187l.187-1.468a3.428 3.428 0 0 0 2.172-.531c.573-.376.86-.948.86-1.72 0-.614-.209-1.12-.625-1.515-.407-.406-.938-.61-1.594-.61-.646 0-1.188.204-1.625.61-.427.406-.703 1.02-.828 1.844l-1.672-.297c.198-1.125.656-1.995 1.375-2.61.73-.614 1.635-.921 2.719-.921.74 0 1.422.161 2.047.484.625.313 1.099.745 1.421 1.297.334.552.5 1.135.5 1.75a2.89 2.89 0 0 1-.468 1.61c-.313.478-.782.864-1.407 1.156.813.177 1.438.562 1.875 1.156.448.583.672 1.312.672 2.187 0 1.188-.432 2.193-1.297 3.016-.864.823-1.958 1.234-3.28 1.234-1.199 0-2.193-.354-2.985-1.062-.781-.709-1.23-1.63-1.344-2.766zm19.2 7.594c-.917-1.167-1.693-2.526-2.328-4.078a12.743 12.743 0 0 1-.953-4.844c0-1.48.234-2.89.703-4.234.562-1.563 1.422-3.12 2.578-4.672h1.203c-.75 1.281-1.245 2.198-1.484 2.75a15.468 15.468 0 0 0-.891 2.672 15.23 15.23 0 0 0-.406 3.484c0 2.98.927 5.953 2.78 8.922h-1.202zm3.228-4v-13.594h1.844l7.14 10.672v-10.672h1.72v13.594h-1.845l-7.14-10.688v10.688h-1.719zm12.645-4.922c0-1.823.51-3.177 1.531-4.062.844-.73 1.875-1.094 3.094-1.094 1.354 0 2.458.448 3.312 1.344.865.885 1.297 2.109 1.297 3.671 0 1.271-.192 2.271-.578 3a4.04 4.04 0 0 1-1.656 1.688 4.841 4.841 0 0 1-2.375.594c-1.375 0-2.49-.443-3.344-1.328-.854-.886-1.281-2.157-1.281-3.813zm1.719 0c0 1.26.276 2.203.828 2.828a2.656 2.656 0 0 0 2.078.938c.833 0 1.52-.313 2.062-.938.552-.635.828-1.599.828-2.89 0-1.22-.276-2.141-.828-2.766-.552-.625-1.24-.938-2.062-.938-.833 0-1.526.313-2.078.938-.552.625-.828 1.568-.828 2.828zm15.672 4.922v-1.25c-.625.98-1.541 1.469-2.75 1.469a3.95 3.95 0 0 1-2.172-.641c-.656-.437-1.166-1.042-1.53-1.812-.355-.782-.532-1.678-.532-2.688 0-.98.161-1.87.484-2.672.334-.802.823-1.416 1.469-1.844a3.952 3.952 0 0 1 2.203-.64c.594 0 1.12.125 1.578.375.469.25.85.578 1.14.984v-4.875h1.657v13.594h-1.547zm-5.281-4.922c0 1.26.266 2.203.797 2.828.542.625 1.172.938 1.89.938.73 0 1.35-.297 1.86-.891.51-.594.765-1.505.765-2.734 0-1.344-.26-2.328-.78-2.953-.522-.636-1.162-.954-1.923-.954-.74 0-1.359.303-1.859.907-.5.604-.75 1.557-.75 2.859zm16.016 1.75l1.72.219c-.272 1-.777 1.781-1.517 2.344-.729.552-1.666.828-2.812.828-1.438 0-2.578-.443-3.422-1.328-.844-.886-1.266-2.13-1.266-3.735 0-1.656.422-2.943 1.266-3.86.854-.916 1.964-1.374 3.328-1.374 1.323 0 2.401.448 3.235 1.344.833.895 1.25 2.161 1.25 3.796 0 .094-.006.24-.016.438h-7.344c.063 1.083.37 1.911.922 2.484s1.24.86 2.063.86c.604 0 1.12-.157 1.546-.47.438-.322.787-.838 1.047-1.546zm-5.484-2.703h5.5c-.073-.823-.281-1.443-.625-1.86-.531-.645-1.224-.968-2.078-.968-.76 0-1.406.26-1.938.781-.52.51-.807 1.193-.859 2.047zm9.579 5.875v-1.906h1.906v1.906h-1.906zm4.714-11.656v-1.938h1.657v1.938h-1.657zm-2.125 15.484l.313-1.422c.333.084.599.125.797.125.343 0 .599-.114.765-.344.167-.218.25-.78.25-1.687v-10.36h1.657v10.391c0 1.219-.157 2.068-.47 2.547-.395.615-1.062.922-2 .922-.447 0-.885-.057-1.312-.172zm5.598-6.766l1.657-.265c.093.666.348 1.177.765 1.531.427.344 1.021.516 1.781.516.771 0 1.339-.157 1.704-.47.375-.312.562-.676.562-1.093 0-.375-.161-.672-.484-.89-.23-.146-.797-.334-1.703-.563-1.23-.312-2.084-.578-2.563-.797-.469-.229-.828-.541-1.078-.937a2.568 2.568 0 0 1-.36-1.328c0-.438.1-.844.297-1.22.209-.374.485-.687.829-.937.26-.187.614-.349 1.062-.484a4.943 4.943 0 0 1 1.438-.203c.78 0 1.463.114 2.046.344.584.218 1.01.52 1.282.906.28.375.474.88.578 1.515l-1.625.22c-.073-.5-.292-.891-.656-1.173-.355-.291-.855-.437-1.5-.437-.771 0-1.318.13-1.641.39-.323.25-.484.542-.484.875 0 .22.067.417.203.594.135.177.349.323.64.438.167.062.657.208 1.469.437 1.177.313 2 .568 2.469.766.469.198.833.49 1.094.875.27.385.406.864.406 1.437 0 .552-.162 1.078-.485 1.578-.323.49-.791.87-1.406 1.141-.614.26-1.307.39-2.078.39-1.281 0-2.26-.265-2.937-.796-.667-.531-1.094-1.318-1.282-2.36zm11.094 6.938h-1.187c1.843-2.969 2.765-5.943 2.765-8.922 0-1.156-.13-2.307-.39-3.453a15.468 15.468 0 0 0-.891-2.672c-.24-.562-.734-1.49-1.484-2.781h1.187c1.167 1.552 2.026 3.11 2.578 4.672.48 1.343.719 2.755.719 4.234 0 1.667-.323 3.281-.969 4.844-.635 1.552-1.411 2.911-2.328 4.078z" fill="#FFF" fill-rule="nonzero"/><path fill="#FF9800" d="M675.286 370.588h116.819v89.606H675.286zm130.994 0H923.1v89.606H806.28z"/><path fill="#434343" d="M224.27 16.638h396.032v203.748H224.27z"/><path d="M234.77 43.558V29.964h6.032c1.208 0 2.125.12 2.75.36.635.239 1.14.671 1.515 1.296.375.615.563 1.297.563 2.047 0 .969-.313 1.787-.938 2.453-.614.657-1.578 1.073-2.89 1.25.479.23.843.453 1.093.672a9.877 9.877 0 0 1 1.485 1.813l2.375 3.703h-2.266l-1.797-2.828a27.905 27.905 0 0 0-1.312-1.875c-.334-.438-.636-.74-.907-.907a2.527 2.527 0 0 0-.812-.359c-.208-.052-.547-.078-1.016-.078h-2.078v6.047h-1.797zm1.797-7.594h3.86c.823 0 1.463-.083 1.921-.25.47-.177.823-.453 1.063-.828.25-.375.375-.781.375-1.219 0-.646-.234-1.172-.703-1.578-.469-.417-1.208-.625-2.219-.625h-4.297v4.5zm18.176 4.422l1.719.219c-.27 1-.776 1.78-1.516 2.343-.729.553-1.666.829-2.812.829-1.438 0-2.578-.443-3.422-1.329-.844-.885-1.266-2.13-1.266-3.734 0-1.656.422-2.943 1.266-3.86.854-.916 1.964-1.374 3.328-1.374 1.323 0 2.401.448 3.235 1.343.833.896 1.25 2.162 1.25 3.797 0 .094-.006.24-.016.438h-7.344c.063 1.083.37 1.911.922 2.484s1.24.86 2.063.86c.604 0 1.12-.157 1.546-.47.438-.322.787-.838 1.047-1.546zm-5.484-2.703h5.5c-.073-.823-.281-1.443-.625-1.86-.531-.645-1.224-.968-2.078-.968-.76 0-1.406.26-1.938.78-.52.511-.807 1.194-.86 2.048zm9.11-5.781v-1.938h1.656v1.938h-1.656zm-2.125 15.484l.313-1.422c.333.083.598.125.796.125.344 0 .6-.115.766-.344.167-.218.25-.781.25-1.687v-10.36h1.656V44.09c0 1.219-.156 2.068-.468 2.547-.396.615-1.063.922-2 .922-.448 0-.886-.057-1.313-.172zm5.645-8.75c0-1.823.51-3.177 1.531-4.063.844-.729 1.875-1.093 3.094-1.093 1.354 0 2.458.448 3.312 1.343.865.886 1.297 2.11 1.297 3.672 0 1.271-.193 2.271-.578 3a4.04 4.04 0 0 1-1.656 1.688 4.841 4.841 0 0 1-2.375.594c-1.375 0-2.49-.443-3.344-1.329-.854-.885-1.281-2.156-1.281-3.812zm1.719 0c0 1.26.276 2.203.828 2.828a2.656 2.656 0 0 0 2.078.938c.833 0 1.52-.313 2.062-.938.552-.635.828-1.599.828-2.89 0-1.22-.276-2.141-.828-2.766-.552-.625-1.24-.938-2.062-.938-.834 0-1.526.313-2.078.938-.552.625-.828 1.568-.828 2.828zm9.297-6.766v-1.906h1.672v1.906h-1.672zm0 11.688v-9.86h1.672v9.86h-1.672zm4.13 0v-9.86h1.5v1.407c.729-1.084 1.775-1.625 3.14-1.625.594 0 1.14.109 1.64.328.5.208.87.49 1.11.844.25.343.427.75.531 1.218.063.313.094.854.094 1.625v6.063h-1.672v-6c0-.677-.068-1.182-.203-1.516a1.538 1.538 0 0 0-.688-.812c-.333-.198-.723-.297-1.171-.297-.709 0-1.323.224-1.844.672-.51.448-.766 1.307-.766 2.578v5.375h-1.672zm17.125-3.172l1.719.219c-.271 1-.776 1.78-1.516 2.343-.729.553-1.666.829-2.812.829-1.438 0-2.578-.443-3.422-1.329-.844-.885-1.266-2.13-1.266-3.734 0-1.656.422-2.943 1.266-3.86.854-.916 1.963-1.374 3.328-1.374 1.323 0 2.401.448 3.234 1.343.834.896 1.25 2.162 1.25 3.797 0 .094-.005.24-.015.438h-7.344c.062 1.083.37 1.911.922 2.484s1.24.86 2.062.86c.605 0 1.12-.157 1.547-.47.438-.322.787-.838 1.047-1.546zm-5.484-2.703h5.5c-.073-.823-.282-1.443-.625-1.86-.532-.645-1.224-.968-2.078-.968-.76 0-1.407.26-1.938.78-.52.511-.807 1.194-.86 2.048zm9.094 5.875v-9.86h1.5v1.5c.386-.697.74-1.156 1.063-1.375a1.82 1.82 0 0 1 1.078-.343c.562 0 1.135.182 1.719.547l-.579 1.546a2.406 2.406 0 0 0-1.234-.359 1.6 1.6 0 0 0-.984.328c-.282.219-.485.521-.61.906a6.459 6.459 0 0 0-.281 1.954v5.156h-1.672z" fill="#FFF" fill-rule="nonzero"/><path d="M400.71 95.985v28.157"/><path d="M400.71 95.985v28.157" stroke="#D9D9D9" stroke-width="2" stroke-linejoin="round"/><path d="M418.286 79.654l35.118-25.67"/><path d="M418.286 79.654l35.118-25.67" stroke="#D9D9D9" stroke-width="2" stroke-linejoin="round"/><path d="M500.491 53.974l52.347 14.929"/><path d="M500.491 53.974l52.347 14.929" stroke="#D9D9D9" stroke-width="2" stroke-linejoin="round"/><path d="M552.823 105.013l-51.528 63.969"/><path d="M552.823 105.013l-51.528 63.969" stroke="#D9D9D9" stroke-width="2" stroke-linejoin="round"/><path d="M476.948 73.958l-52.693 70.173"/><path d="M476.948 73.958l-52.693 70.173" stroke="#D9D9D9" stroke-width="2" stroke-linejoin="round"/><path d="M552.823 105.013l6.677 38.583"/><path d="M552.823 105.013l6.677 38.583" stroke="#D9D9D9" stroke-width="2" stroke-linejoin="round"/><path d="M535.958 161.675l-17.102 23.653"/><path d="M535.958 161.675l-17.102 23.653" stroke="#D9D9D9" stroke-width="2" stroke-linejoin="round"/><path d="M457.483 185.234l26.236.095"/><path d="M457.483 185.234l26.236.095" stroke="#D9D9D9" stroke-width="2" stroke-linejoin="round"/><path d="M400.71 164.11l21.638 21.134"/><path d="M400.71 164.11l21.638 21.134" stroke="#D9D9D9" stroke-width="2" stroke-linejoin="round"/><path fill="#4285F4" d="M377.167 124.142h47.087v39.968h-47.087z"/><path fill="#34A853" d="M422.333 168.903h35.15v32.662h-35.15z"/><path fill="#4285F4" d="M453.405 33.99h47.086v39.968h-47.086z"/><path fill="#34A853" d="M483.709 168.985h35.15v32.661h-35.15zM383.136 63.323h35.15v32.662h-35.15z"/><path fill="#FF9800" d="M529.28 68.887h47.086v36.126H529.28zm6.678 74.725h47.087v36.126h-47.087z"/><path d="M418.286 79.654l117.669 82.016"/><path d="M418.286 79.654l117.669 82.016" stroke="#D9D9D9" stroke-width="2" stroke-linejoin="round"/><path d="M422.286 220.386v50.143h-245.26v50.14"/><path stroke="#434343" stroke-width="12" stroke-linejoin="round" d="M422.286 220.386v50.143h-245.26v50.14"/><path d="M422.286 220.386v50.143h79.37v50.14"/><path stroke="#434343" stroke-width="12" stroke-linejoin="round" d="M422.286 220.386v50.143h79.37v50.14"/><path d="M422.286 220.386v50.143h376.315v50.14"/><path stroke="#434343" stroke-width="12" stroke-linejoin="round" d="M422.286 220.386v50.143h376.315v50.14"/><path d="M224.27 59.25h116.977v133.102H224.27z"/><path d="M241.473 71.595h1.422v6.203c0 1.073-.125 1.927-.375 2.563-.24.635-.677 1.156-1.312 1.562-.636.396-1.474.594-2.516.594-1 0-1.823-.172-2.469-.516a3.087 3.087 0 0 1-1.375-1.515c-.27-.657-.406-1.552-.406-2.688v-6.203h1.422v6.187c0 .938.089 1.63.266 2.079.177.437.474.776.89 1.015.427.24.943.36 1.547.36 1.052 0 1.797-.235 2.235-.704.448-.479.671-1.395.671-2.75v-6.187zm3.366 10.734v-7.78h1.187v1.108c.573-.854 1.402-1.28 2.485-1.28.469 0 .896.083 1.281.25.396.166.693.39.89.671.199.27.334.594.407.969.052.24.078.667.078 1.281v4.781h-1.328v-4.734c0-.531-.052-.927-.156-1.188a1.184 1.184 0 0 0-.532-.64 1.673 1.673 0 0 0-.921-.25c-.563 0-1.047.177-1.454.531-.406.354-.609 1.031-.609 2.031v4.25h-1.328zm8.167-9.218v-1.516h1.312v1.516h-1.312zm0 9.218v-7.78h1.312v7.78h-1.312zm3.553 0v-6.75h-1.157v-1.03h1.157v-.829c0-.52.047-.906.14-1.156.136-.344.36-.62.672-.828.323-.22.771-.329 1.344-.329.375 0 .786.047 1.234.141l-.203 1.14a4.063 4.063 0 0 0-.765-.077c-.407 0-.693.088-.86.265-.166.167-.25.485-.25.953v.72h1.516v1.03h-1.516v6.75h-1.312zm3.275-3.89c0-1.438.4-2.505 1.203-3.203.667-.573 1.48-.86 2.437-.86 1.073 0 1.948.35 2.625 1.047.678.698 1.016 1.667 1.016 2.906 0 1-.15 1.787-.453 2.36a3.14 3.14 0 0 1-1.313 1.343 3.852 3.852 0 0 1-1.875.47c-1.083 0-1.963-.35-2.64-1.048-.667-.698-1-1.703-1-3.015zm1.36 0c0 1 .213 1.75.64 2.25.437.49.984.734 1.64.734a2.09 2.09 0 0 0 1.641-.75c.438-.5.656-1.26.656-2.281 0-.958-.218-1.682-.656-2.172a2.09 2.09 0 0 0-1.64-.75 2.11 2.11 0 0 0-1.641.734c-.427.49-.64 1.235-.64 2.235zm7.26 3.89v-7.78h1.187v1.187c.302-.552.584-.917.844-1.094.26-.177.542-.266.844-.266.448 0 .9.14 1.36.422l-.454 1.219a1.915 1.915 0 0 0-.969-.281c-.291 0-.552.088-.781.265-.23.167-.39.406-.484.719-.146.469-.22.98-.22 1.531v4.078h-1.327zm4.896 0v-7.78h1.187v1.093c.24-.386.563-.693.97-.922a2.78 2.78 0 0 1 1.39-.344c.573 0 1.042.12 1.406.36.375.24.636.573.781 1 .615-.907 1.417-1.36 2.407-1.36.77 0 1.364.214 1.78.64.418.428.626 1.084.626 1.97v5.343h-1.313v-4.906c0-.52-.041-.896-.125-1.125a1.033 1.033 0 0 0-.468-.562 1.452 1.452 0 0 0-.797-.22c-.542 0-.995.183-1.36.548-.364.364-.547.948-.547 1.75v4.515h-1.312v-5.047c0-.593-.11-1.036-.328-1.328-.208-.291-.557-.437-1.047-.437-.375 0-.719.099-1.031.297a1.721 1.721 0 0 0-.688.86c-.135.374-.203.916-.203 1.624v4.031h-1.328zM239.458 96.11v-1.25l4.547-.015v3.984a7.868 7.868 0 0 1-2.172 1.266c-.74.281-1.5.422-2.281.422-1.052 0-2.01-.224-2.875-.672a4.514 4.514 0 0 1-1.954-1.969c-.437-.854-.656-1.807-.656-2.86 0-1.051.219-2.03.656-2.937.438-.906 1.068-1.578 1.891-2.015.823-.438 1.766-.657 2.828-.657.781 0 1.485.125 2.11.375.625.25 1.114.605 1.468 1.063.365.448.636 1.031.813 1.75l-1.281.344c-.157-.542-.355-.969-.594-1.282-.24-.312-.583-.562-1.031-.75a3.693 3.693 0 0 0-1.47-.28c-.655 0-1.223.098-1.702.296-.469.198-.85.458-1.14.781a4.069 4.069 0 0 0-.673 1.063 5.674 5.674 0 0 0-.406 2.156c0 .958.161 1.76.484 2.406a3.2 3.2 0 0 0 1.438 1.438 4.509 4.509 0 0 0 2.015.469c.615 0 1.214-.12 1.797-.36.594-.24 1.042-.495 1.344-.765v-2h-3.156zm6.181 4.22v-7.782h1.188v1.188c.302-.552.583-.917.843-1.094.26-.177.542-.266.844-.266.448 0 .901.14 1.36.422l-.454 1.219a1.915 1.915 0 0 0-.968-.281c-.292 0-.552.088-.782.265-.229.167-.39.406-.484.719-.146.469-.219.98-.219 1.531v4.078h-1.328zm9.975-.954c-.49.406-.959.698-1.407.875-.448.167-.932.25-1.453.25-.854 0-1.51-.208-1.969-.625-.458-.416-.687-.948-.687-1.594 0-.385.083-.734.25-1.046a2.17 2.17 0 0 1 .687-.75c.282-.198.6-.344.954-.438.25-.073.64-.14 1.171-.203 1.063-.125 1.844-.276 2.344-.453a8.75 8.75 0 0 0 .016-.344c0-.542-.125-.922-.375-1.14-.344-.292-.844-.438-1.5-.438-.625 0-1.089.11-1.39.328-.292.208-.506.589-.641 1.14l-1.297-.171c.114-.552.307-.995.578-1.328.27-.344.661-.604 1.172-.782.51-.187 1.099-.28 1.765-.28.667 0 1.203.077 1.61.234.416.156.724.354.922.593.198.23.333.526.406.891.042.23.062.635.062 1.219v1.75c0 1.229.026 2.005.078 2.328.063.323.178.635.344.937h-1.375a2.84 2.84 0 0 1-.265-.953zm-.11-2.953c-.479.198-1.198.365-2.156.5-.542.083-.927.172-1.156.266-.219.093-.39.234-.516.422a1.175 1.175 0 0 0-.172.625c0 .354.13.65.39.89.272.23.662.344 1.173.344.51 0 .963-.11 1.36-.328a2.13 2.13 0 0 0 .874-.922c.136-.292.203-.73.203-1.313v-.484zm3.183 6.89V92.549h1.203v1.016c.281-.396.599-.693.953-.89.364-.199.802-.298 1.312-.298.657 0 1.24.172 1.75.516.51.344.891.828 1.141 1.453.26.615.39 1.292.39 2.031 0 .802-.14 1.521-.421 2.156a3.232 3.232 0 0 1-2.969 1.97c-.438 0-.833-.09-1.188-.266a2.583 2.583 0 0 1-.843-.72v3.798h-1.328zm1.203-6.827c0 1 .203 1.74.61 2.218.405.48.895.72 1.468.72.583 0 1.083-.246 1.5-.735.417-.5.625-1.271.625-2.313 0-.99-.203-1.729-.61-2.219-.406-.5-.89-.75-1.453-.75-.562 0-1.062.266-1.5.797-.427.521-.64 1.282-.64 2.282zm6.948 3.843V89.595h1.328v3.844c.614-.709 1.39-1.063 2.328-1.063.573 0 1.073.115 1.5.344.427.23.73.542.906.937.188.396.281.98.281 1.75v4.922h-1.328v-4.922c0-.666-.14-1.145-.422-1.437-.28-.302-.687-.453-1.218-.453-.386 0-.75.099-1.094.297a1.67 1.67 0 0 0-.734.828c-.146.344-.22.823-.22 1.437v4.25h-1.327zm16.463-1.156c.657.458 1.266.792 1.828 1l-.421.984c-.771-.27-1.542-.708-2.313-1.312-.792.448-1.672.672-2.64.672-.97 0-1.85-.235-2.641-.703a4.704 4.704 0 0 1-1.828-1.969c-.427-.854-.64-1.818-.64-2.89 0-1.053.213-2.011.64-2.876.437-.875 1.052-1.536 1.843-1.984.792-.458 1.678-.688 2.657-.688.99 0 1.88.235 2.672.704a4.558 4.558 0 0 1 1.828 1.984c.416.844.625 1.797.625 2.86 0 .885-.136 1.682-.407 2.39a4.867 4.867 0 0 1-1.203 1.828zm-3.125-1.812c.813.229 1.49.573 2.032 1.03.833-.76 1.25-1.905 1.25-3.437 0-.875-.151-1.635-.454-2.28a3.323 3.323 0 0 0-1.296-1.5 3.428 3.428 0 0 0-1.907-.548c-1.062 0-1.942.365-2.64 1.094-.698.719-1.047 1.797-1.047 3.234 0 1.396.344 2.47 1.031 3.22.698.75 1.583 1.124 2.656 1.124.51 0 .99-.094 1.438-.281a4.695 4.695 0 0 0-1.406-.625l.343-1.031zm6.322 2.968V89.595h1.422v9.469h5.297v1.265h-6.719zm11.114 0l4.125-10.734h1.516l4.406 10.734h-1.625l-1.25-3.25h-4.485l-1.187 3.25h-1.5zm3.094-4.406h3.64l-1.125-2.984a27.708 27.708 0 0 1-.765-2.219c-.136.687-.328 1.37-.578 2.047l-1.172 3.156zm7.853 4.406V89.595h4.047c.72 0 1.266.031 1.64.094.522.093.96.265 1.313.515.365.24.657.584.875 1.032.22.437.329.927.329 1.468 0 .907-.292 1.677-.875 2.313-.584.635-1.636.953-3.157.953h-2.75v4.36h-1.422zm1.422-5.625h2.782c.916 0 1.567-.172 1.953-.515.385-.344.578-.828.578-1.453 0-.448-.115-.829-.344-1.141a1.611 1.611 0 0 0-.89-.64c-.24-.063-.683-.094-1.329-.094h-2.75v3.843zm8.604 5.625V89.595h1.406v10.734h-1.406zm-84.845 15.672l1.296-.203c.073.52.276.922.61 1.203.333.281.801.422 1.406.422.604 0 1.052-.12 1.343-.36.292-.25.438-.54.438-.874a.79.79 0 0 0-.39-.703c-.178-.125-.626-.276-1.345-.454-.968-.24-1.64-.447-2.015-.625a2.118 2.118 0 0 1-.844-.75 1.996 1.996 0 0 1-.281-1.046c0-.344.078-.662.234-.954.156-.302.37-.546.64-.734.21-.156.49-.286.845-.39a4.025 4.025 0 0 1 1.14-.157c.604 0 1.136.089 1.594.266.469.177.812.417 1.031.719.219.291.37.692.453 1.203l-1.28.172c-.063-.407-.235-.72-.517-.938-.28-.23-.677-.344-1.187-.344-.604 0-1.036.105-1.297.313-.26.198-.39.432-.39.703 0 .167.052.318.156.453.114.146.286.266.515.36.125.041.51.15 1.157.328.937.25 1.588.453 1.953.609.375.156.666.39.875.703.208.302.312.677.312 1.125 0 .438-.13.85-.39 1.234-.25.386-.62.688-1.11.907-.479.208-1.026.312-1.64.312-1.01 0-1.782-.208-2.313-.625-.52-.416-.854-1.041-1-1.875zm13.171-.172l1.36.157c-.209.802-.605 1.421-1.188 1.859-.583.437-1.328.656-2.235.656-1.135 0-2.036-.349-2.703-1.047-.666-.698-1-1.682-1-2.953 0-1.302.339-2.312 1.016-3.031.677-.73 1.552-1.094 2.625-1.094 1.042 0 1.89.354 2.547 1.063.656.708.984 1.703.984 2.984v.36h-5.812c.052.854.291 1.51.718 1.968.438.448.985.672 1.641.672.48 0 .89-.125 1.234-.375.344-.26.615-.667.813-1.219zm-4.328-2.14h4.344c-.063-.657-.23-1.146-.5-1.469-.417-.51-.959-.766-1.625-.766-.615 0-1.13.203-1.547.61-.407.406-.63.948-.672 1.625zm7.135 4.64v-7.78h1.188v1.187c.302-.552.583-.917.844-1.094a1.47 1.47 0 0 1 .843-.266c.448 0 .901.14 1.36.422l-.453 1.219a1.915 1.915 0 0 0-.97-.281c-.29 0-.551.088-.78.265-.23.167-.391.406-.485.719-.146.469-.219.98-.219 1.531v4.078h-1.328zm7.068 0l-2.968-7.78h1.39l1.672 4.655c.177.51.344 1.037.5 1.578.115-.416.276-.911.485-1.484l1.734-4.75h1.36l-2.954 7.781h-1.219zm10.485-2.5l1.36.157c-.21.802-.605 1.421-1.188 1.859-.584.437-1.328.656-2.235.656-1.135 0-2.036-.349-2.703-1.047-.666-.698-1-1.682-1-2.953 0-1.302.339-2.312 1.016-3.031.677-.73 1.552-1.094 2.625-1.094 1.042 0 1.89.354 2.547 1.063.656.708.984 1.703.984 2.984v.36h-5.812c.052.854.291 1.51.718 1.968.438.448.985.672 1.641.672.48 0 .89-.125 1.234-.375.344-.26.615-.667.813-1.219zm-4.328-2.14h4.343c-.062-.657-.229-1.146-.5-1.469-.416-.51-.958-.766-1.625-.766-.614 0-1.13.203-1.546.61-.407.406-.63.948-.672 1.625zm12.198 4.64v-.984c-.49.77-1.214 1.156-2.172 1.156a3.098 3.098 0 0 1-1.703-.5c-.521-.344-.927-.823-1.219-1.437-.281-.615-.422-1.318-.422-2.11 0-.78.13-1.484.39-2.109.261-.635.647-1.12 1.157-1.453a3.081 3.081 0 0 1 1.734-.516c.47 0 .886.1 1.25.297.375.198.677.453.907.766v-3.844h1.312v10.734h-1.234zm-4.157-3.875c0 .99.209 1.735.625 2.235.417.49.912.734 1.485.734.573 0 1.062-.234 1.469-.703.406-.48.609-1.198.609-2.156 0-1.073-.208-1.854-.625-2.344-.406-.5-.911-.75-1.516-.75-.583 0-1.073.24-1.468.719-.386.479-.579 1.234-.579 2.265zm10.849-.015c0-1.438.4-2.505 1.203-3.203.666-.573 1.479-.86 2.437-.86 1.073 0 1.948.35 2.625 1.047.677.698 1.016 1.667 1.016 2.906 0 1-.151 1.787-.453 2.36a3.14 3.14 0 0 1-1.313 1.343 3.852 3.852 0 0 1-1.875.47c-1.083 0-1.963-.35-2.64-1.048-.667-.698-1-1.703-1-3.015zm1.359 0c0 1 .213 1.75.64 2.25.438.49.985.734 1.641.734a2.09 2.09 0 0 0 1.64-.75c.438-.5.657-1.26.657-2.281 0-.958-.219-1.682-.656-2.172a2.09 2.09 0 0 0-1.64-.75 2.11 2.11 0 0 0-1.641.734c-.428.49-.641 1.235-.641 2.235zm9.448 3.89l-2.969-7.78h1.39l1.673 4.655c.177.51.343 1.037.5 1.578.114-.416.276-.911.484-1.484l1.734-4.75h1.36l-2.953 7.781h-1.22zm10.484-2.5l1.36.157c-.209.802-.605 1.421-1.188 1.859-.583.437-1.328.656-2.234.656-1.136 0-2.037-.349-2.703-1.047-.667-.698-1-1.682-1-2.953 0-1.302.338-2.312 1.015-3.031.677-.73 1.552-1.094 2.625-1.094 1.042 0 1.89.354 2.547 1.063.656.708.985 1.703.985 2.984v.36h-5.813c.052.854.292 1.51.719 1.968.437.448.984.672 1.64.672.48 0 .891-.125 1.235-.375.344-.26.614-.667.812-1.219zm-4.328-2.14h4.344c-.063-.657-.23-1.146-.5-1.469-.417-.51-.958-.766-1.625-.766-.615 0-1.13.203-1.547.61-.406.406-.63.948-.672 1.625zm7.136 4.64v-7.78h1.187v1.187c.302-.552.583-.917.844-1.094.26-.177.542-.266.844-.266.448 0 .9.14 1.359.422l-.453 1.219a1.915 1.915 0 0 0-.969-.281c-.292 0-.552.088-.781.265-.23.167-.39.406-.484.719-.146.469-.22.98-.22 1.531v4.078h-1.327zm-71.459 18.001v-10.735h1.422v4.406h5.578v-4.406h1.422v10.734h-1.422v-5.062h-5.578v5.062h-1.422zm13.272 0v-9.47h-3.531v-1.265h8.5v1.266h-3.547v9.468h-1.422zm8.953 0v-9.47h-3.531v-1.265h8.5v1.266h-3.547v9.468h-1.422zm6.218 0v-10.735h4.047c.719 0 1.266.031 1.64.094.521.093.959.265 1.313.515.365.24.656.584.875 1.032.219.437.328.927.328 1.468 0 .907-.291 1.677-.875 2.313-.583.635-1.635.953-3.156.953h-2.75v4.36h-1.422zm1.422-5.626h2.781c.917 0 1.568-.172 1.953-.515.386-.344.578-.828.578-1.453 0-.448-.114-.829-.343-1.141a1.611 1.611 0 0 0-.89-.64c-.24-.063-.683-.094-1.329-.094h-2.75v3.843zm18.394 4.36a4.777 4.777 0 0 1-1.421 1.093c-.51.24-1.063.36-1.657.36-1.104 0-1.979-.375-2.625-1.125-.52-.604-.78-1.276-.78-2.016 0-.666.213-1.265.64-1.797.427-.541 1.067-1.015 1.922-1.422-.49-.552-.813-1-.97-1.343a2.516 2.516 0 0 1-.234-1.016c0-.646.25-1.203.75-1.672.51-.479 1.146-.719 1.907-.719.729 0 1.328.224 1.797.672.468.448.703.99.703 1.625 0 1.021-.677 1.891-2.032 2.61l1.922 2.453a5.41 5.41 0 0 0 .516-1.485l1.375.282c-.24.937-.557 1.708-.953 2.312a7.631 7.631 0 0 0 1.672 1.656l-.875 1.047c-.542-.343-1.094-.849-1.657-1.515zm-2.671-5.594c.562-.344.927-.64 1.093-.89.177-.25.266-.532.266-.844 0-.365-.12-.662-.36-.891a1.14 1.14 0 0 0-.859-.36c-.354 0-.65.12-.89.36-.24.23-.36.505-.36.828 0 .167.042.344.125.531.094.177.224.37.39.578l.595.688zm1.843 4.547l-2.422-2.985c-.708.417-1.187.808-1.437 1.172-.25.365-.375.724-.375 1.078 0 .438.172.891.516 1.36.354.469.849.703 1.484.703.396 0 .802-.12 1.219-.36a2.92 2.92 0 0 0 1.015-.968zm8.301 2.953l1.281.187c.052.396.198.688.438.875.333.24.781.36 1.344.36.614 0 1.088-.125 1.421-.375.334-.24.558-.578.672-1.016.063-.27.094-.833.094-1.687-.573.677-1.292 1.015-2.156 1.015-1.073 0-1.901-.385-2.485-1.156-.583-.77-.875-1.698-.875-2.781 0-.74.136-1.422.407-2.047.27-.625.656-1.11 1.156-1.453.51-.344 1.114-.516 1.812-.516.917 0 1.672.37 2.266 1.11v-.938h1.219v6.719c0 1.219-.125 2.078-.375 2.578-.25.51-.64.911-1.172 1.203-.531.292-1.188.438-1.969.438-.927 0-1.677-.209-2.25-.625-.573-.417-.849-1.047-.828-1.891zm1.094-4.672c0 1.02.198 1.766.594 2.234.406.47.916.704 1.53.704.605 0 1.11-.23 1.516-.688.417-.469.625-1.203.625-2.203 0-.948-.213-1.661-.64-2.14-.417-.49-.922-.735-1.516-.735s-1.094.24-1.5.719c-.406.468-.61 1.172-.61 2.11zm7.479 4.031v-10.734h4.766c.958 0 1.687.099 2.187.297.5.187.896.526 1.188 1.015a3.01 3.01 0 0 1 .453 1.61c0 .76-.25 1.406-.75 1.937-.49.521-1.25.85-2.281.985.375.187.661.37.859.547a7.22 7.22 0 0 1 1.187 1.421l1.86 2.922h-1.781l-1.422-2.234c-.417-.646-.76-1.135-1.032-1.469-.27-.344-.51-.583-.718-.719a1.873 1.873 0 0 0-.641-.296 4.801 4.801 0 0 0-.797-.047H300.2v4.765h-1.422zm1.422-6h3.062c.646 0 1.151-.067 1.516-.203.375-.135.656-.349.844-.64.187-.292.281-.615.281-.97 0-.5-.187-.91-.562-1.234-.365-.333-.943-.5-1.735-.5H300.2v3.547zm9.147 6v-10.734h4.047c.718 0 1.265.031 1.64.094.521.093.958.265 1.313.515.364.24.656.584.875 1.032.218.437.328.927.328 1.468 0 .907-.292 1.677-.875 2.313-.584.635-1.636.953-3.156.953h-2.75v4.36h-1.422zm1.422-5.625h2.78c.917 0 1.568-.172 1.954-.515.385-.344.578-.828.578-1.453 0-.448-.115-.829-.344-1.141a1.611 1.611 0 0 0-.89-.64c-.24-.063-.683-.094-1.328-.094h-2.75v3.843zm16.01 1.86l1.421.36c-.291 1.166-.828 2.056-1.609 2.671-.77.615-1.714.922-2.828.922-1.156 0-2.1-.235-2.828-.703-.73-.48-1.282-1.162-1.657-2.047a7.41 7.41 0 0 1-.562-2.89c0-1.115.214-2.09.64-2.923.428-.833 1.032-1.463 1.813-1.89a5.305 5.305 0 0 1 2.61-.657c1.072 0 1.973.277 2.703.829.74.541 1.255 1.307 1.546 2.296l-1.406.329c-.25-.782-.614-1.35-1.094-1.704-.468-.354-1.062-.53-1.78-.53-.824 0-1.511.197-2.063.593a3.18 3.18 0 0 0-1.172 1.594 6.574 6.574 0 0 0-.328 2.062c0 .906.13 1.703.39 2.39.271.678.683 1.188 1.235 1.532.562.333 1.172.5 1.828.5.802 0 1.479-.23 2.031-.687.552-.459.922-1.141 1.11-2.047z" fill="#D9D9D9" fill-rule="nonzero"/></g></g></svg>