<svg xmlns="http://www.w3.org/2000/svg" width="1277" height="1201" viewBox="0 0 1277 1201"><path fill="#1B9CE2" stroke="#1B9CE2" stroke-width="10" stroke-linejoin="round" stroke-miterlimit="10" d="M495 714.349h311.172V963H495z"/><path fill="#4285F4" stroke="#FFF" stroke-width="4" stroke-linejoin="round" stroke-miterlimit="10" d="M511 822.149h133.412V937H511zm147.789 0h133.414V937H658.789z"/><path fill="#1B9CE2" stroke="#1B9CE2" stroke-width="10" stroke-linejoin="round" stroke-miterlimit="10" d="M139.839 714.349h330V923h-330z"/><path fill="#34A853" stroke="#FFF" stroke-width="4" stroke-linejoin="round" stroke-miterlimit="10" d="M154.591 818.052h90.398v83.418h-90.398zm103.6 0h90.398v83.418h-90.398zm103.599 0h90.398v83.418H361.79z"/><path fill="#1B9CE2" stroke="#1B9CE2" stroke-width="10" stroke-linejoin="round" stroke-miterlimit="10" d="M831.275 714.349H1177V937H831.275z"/><path fill="#FF9800" stroke="#FFF" stroke-width="4" stroke-linejoin="round" stroke-miterlimit="10" d="M847.537 822.956h141.81v92.307h-141.81zm159.014 0h141.809v92.307h-141.809z"/><g fill="#1B9CE2"><path d="M151 603.038c-5.523 0-10-4.478-10-10V166.604c0-5.523 4.477-10 10-10h758.172c5.522 0 10 4.477 10 10v426.434c0 5.522-4.478 10-10 10H151z"/><path d="M909.172 166.604v426.434H151V166.604h758.172m0-20H151c-11.046 0-20 8.954-20 20v426.434c0 11.046 8.954 20 20 20h758.172c11.046 0 20-8.954 20-20V166.604c0-11.046-8.954-20-20-20z"/></g><path fill="#1B9CE2" d="M995.36 663.69v51.659h-40V683.69H687.57v31.659h-40V683.69H351.08v31.659h-40V663.69c0-11.04 8.96-20 20-20H565.3v-31.65h40v31.65h370.06c11.04 0 20 8.96 20 20z"/><path fill="none" d="M171 193h280v400.038H171z"/><text transform="translate(171 247)"><tspan x="0" y="0" fill="#FFF" font-family="'Sarala-Regular'" font-size="72">Rejoiner</tspan><tspan x="0" y="86.4" fill="#FFF" font-family="'Sarala-Regular'" font-size="48">Uniform </tspan><tspan x="0" y="144" fill="#FFF" font-family="'Sarala-Regular'" font-size="48">GraphQL API </tspan><tspan x="0" y="201.6" fill="#FFF" font-family="'Sarala-Regular'" font-size="48">served over </tspan><tspan x="0" y="259.2" fill="#FFF" font-family="'Sarala-Regular'" font-size="48">HTTP and </tspan><tspan x="0" y="316.8" fill="#FFF" font-family="'Sarala-Regular'" font-size="48">gRPC</tspan></text><path fill="#FFF" d="M711.628 219.117L565.917 471.489l-12.259-7.077L699.37 212.039z"/><path fill="#1B9CE2" d="M699.541 212.726l11.391 6.578-145.214 251.51-11.394-6.578 145.217-251.51m-.367-1.367L552.959 464.603l13.125 7.578 146.215-253.243-13.125-7.579z"/><path fill="#FFF" d="M550.453 444.872h291.43v14.156h-291.43z"/><path fill="#1B9CE2" d="M841.383 445.372v13.156h-290.43v-13.156h290.43m1-1h-292.43v15.156h292.43v-15.156z"/><path fill="#FFF" d="M708.918 524.435l-7.076 12.26-145.418-83.932 7.077-12.26z"/><path fill="#1B9CE2" d="M563.684 441.127l144.537 83.451-6.578 11.393-144.538-83.451 6.579-11.393m-.367-1.366l-7.577 13.125 146.27 84.451 7.578-13.125-146.271-84.451z"/><path fill="#FFF" d="M835.999 304.303l-7.078 12.258-145.4-83.949 7.077-12.258z"/><path fill="#1B9CE2" d="M690.748 221.025l144.537 83.451-6.578 11.393-144.537-83.452 6.578-11.392m-.365-1.366l-7.578 13.125 146.27 84.452 7.576-13.125-146.268-84.452z"/><path fill="#FFF" d="M708.958 232.542l-145.4 83.95-7.078-12.259 145.4-83.95z"/><path fill="#1B9CE2" d="M701.684 220.968l6.578 11.393-144.537 83.451-6.578-11.393 144.537-83.451m.365-1.366L555.78 304.053l7.577 13.125 146.27-84.451-7.578-13.125z"/><path fill="#FFF" d="M838.833 464.4l-12.258 7.077-145.712-252.373 12.258-7.077z"/><path fill="#1B9CE2" d="M692.92 212.729L838.135 464.24l-11.393 6.578-145.213-251.512 11.391-6.577m.367-1.367l-13.125 7.578 146.215 253.245 13.125-7.578-146.215-253.245z"/><path fill="#FFF" d="M562.048 294.503h14.156v167.902h-14.156z"/><path fill="#1B9CE2" d="M575.704 295.003v166.902h-13.156V295.003h13.156m1-1h-15.156v168.902h15.156V294.003z"/><path fill="#FFF" d="M816.223 294.503h14.156v167.902h-14.156z"/><path fill="#1B9CE2" d="M829.879 295.003v166.902h-13.156V295.003h13.156m1-1h-15.156v168.902h15.156V294.003z"/><path fill="#FFF" d="M825.98 457.283L699.633 530.23l-6.12-10.599 126.348-72.948z"/><path fill="#1B9CE2" d="M819.658 447.373l5.619 9.732-125.482 72.451-5.619-9.732 125.482-72.451m.367-1.366L692.81 519.458l6.619 11.465 127.215-73.451-6.619-11.465z"/><path fill="#4285F4" d="M531.269 494.085a5 5 0 0 1-5-5V425.05a5 5 0 0 1 5-5h75.441a5 5 0 0 1 5 5v64.035a5 5 0 0 1-5 5h-75.441z"/><path fill="#FFF" d="M606.71 425.05v64.035h-75.441V425.05h75.441m0-10h-75.441c-5.522 0-10 4.477-10 10v64.035c0 5.522 4.478 10 10 10h75.441c5.522 0 10-4.478 10-10V425.05c0-5.523-4.478-10-10-10z"/><path fill="#34A853" d="M660.119 546.55a5 5 0 0 1-5-5v-52.33a5 5 0 0 1 5-5h56.316a5 5 0 0 1 5 5v52.33a5 5 0 0 1-5 5h-56.316z"/><path fill="#FFF" d="M716.436 489.22v52.33H660.12v-52.33h56.316m0-10H660.12c-5.523 0-10 4.478-10 10v52.33c0 5.522 4.477 10 10 10h56.316c5.523 0 10-4.478 10-10v-52.33c0-5.523-4.477-10-10-10z"/><path fill="#4285F4" d="M660.223 268.707a5 5 0 0 1-5-5v-64.036a5 5 0 0 1 5-5h75.441a5 5 0 0 1 5 5v64.036a5 5 0 0 1-5 5h-75.441z"/><path fill="#FFF" d="M735.664 199.671v64.036h-75.441v-64.036h75.441m0-10h-75.441c-5.523 0-10 4.477-10 10v64.036c0 5.523 4.477 10 10 10h75.441c5.523 0 10-4.477 10-10v-64.036c0-5.523-4.476-10-10-10z"/><path fill="#34A853" d="M679.35 563.972a5 5 0 0 1-5-5V506.64a5 5 0 0 1 5-5h56.314a5 5 0 0 1 5 5v52.332a5 5 0 0 1-5 5H679.35z"/><path fill="#FFF" d="M735.664 506.64v52.332H679.35V506.64h56.314m0-10H679.35c-5.523 0-10 4.478-10 10v52.332c0 5.522 4.477 10 10 10h56.314c5.523 0 10-4.478 10-10V506.64c0-5.523-4.476-10-10-10z"/><path fill="#34A853" d="M540.832 339.296a5 5 0 0 1-5-5v-61.164a5 5 0 0 1 5-5h56.314a5 5 0 0 1 5 5v61.164a5 5 0 0 1-5 5h-56.314z"/><path fill="#FFF" d="M597.146 273.132v61.164h-56.314v-61.164h56.314m0-10h-56.314c-5.523 0-10 4.477-10 10v61.164c0 5.523 4.477 10 10 10h56.314c5.523 0 10-4.477 10-10v-61.164c0-5.523-4.476-10-10-10z"/><path fill="#FF9800" d="M794.709 336.968a5 5 0 0 1-5-5v-57.881a5 5 0 0 1 5-5h59.814a5 5 0 0 1 5 5v57.881a5 5 0 0 1-5 5h-59.814z"/><path fill="#FFF" d="M854.523 274.086v57.881h-59.814v-57.881h59.814m0-10h-59.814c-5.521 0-10 4.477-10 10v57.881c0 5.523 4.479 10 10 10h59.814c5.523 0 10-4.477 10-10v-57.881c0-5.523-4.476-10-10-10z"/><path fill="#FF9800" d="M794.709 487.382a5 5 0 0 1-5-5v-57.879a5 5 0 0 1 5-5h59.814a5 5 0 0 1 5 5v57.879a5 5 0 0 1-5 5h-59.814z"/><path fill="#FFF" d="M854.523 424.502v57.879h-59.814v-57.879h59.814m0-10h-59.814c-5.521 0-10 4.477-10 10v57.879c0 5.522 4.479 10 10 10h59.814c5.523 0 10-4.478 10-10v-57.879c0-5.523-4.476-10-10-10z"/><path fill="none" d="M152 784h306v50H152z"/><text transform="translate(152 802)" fill="#FFF" font-family="'Sarala-Regular'" font-size="24">gRPC Microservice</text><path fill="none" d="M152 734h306v50H152z"/><text transform="translate(152 761)" fill="#FFF" font-family="'Sarala-Regular'" font-size="36">Java</text><path fill="none" d="M501.162 784h306v50h-306z"/><text transform="translate(501.162 802)" fill="#FFF" font-family="'Sarala-Regular'" font-size="24">gRPC Microservice</text><path fill="none" d="M501.162 737h306v50h-306z"/><text transform="translate(501.162 764)" fill="#FFF" font-family="'Sarala-Regular'" font-size="36">Go</text><path fill="none" d="M842.36 784h306v50h-306z"/><text transform="translate(842.36 802)" fill="#FFF" font-family="'Sarala-Regular'" font-size="24">gRPC Microservice</text><path fill="none" d="M842.36 737h306v50h-306z"/><text transform="translate(842.36 764)" fill="#FFF" font-family="'Sarala-Regular'" font-size="36">Python</text></svg>