<svg xmlns="http://www.w3.org/2000/svg" width="1024" height="1024" viewBox="0 0 1024 1024"><path fill="#27B6F4" d="M884.24 435.5v145.021h42.86c25.091 0 45.511 20.42 45.511 45.51v147.65c0 25.09-20.42 45.51-45.511 45.51H774.52c-15.68 0-29.539-7.98-37.72-20.09L669.42 838v131.05c0 25.091-20.42 45.511-45.51 45.511H480.25c-24.73 0-44.92-19.84-45.49-44.44h-3.56c-25.09 0-45.51-20.42-45.51-45.51v-78.57l-52.63-30.39c-8.14 12.42-22.18 20.64-38.1 20.64H102.51c-25.09 0-45.5-20.42-45.5-45.51v-163.35c0-25.091 20.41-45.511 45.5-45.511h59.79V441.43h-35.39c-25.09 0-45.51-20.41-45.51-45.5V239.9c0-25.09 20.42-45.51 45.51-45.51h143.65c16.13 0 30.33 8.44 38.42 21.13l76.97-44.44V52.51C385.95 27.42 406.37 7 431.46 7h192.45c25.09 0 45.51 20.42 45.51 45.51v123.8l68.22 39.4c8.28-11.43 21.73-18.88 36.88-18.88H927.1c25.091 0 45.511 20.42 45.511 45.51v147.65c0 25.09-20.42 45.51-45.511 45.51h-42.86z"/><path fill="#4285F4" d="M102.514 627.433h192.444v163.345H102.514z"/><path fill="#34A853" d="M574.856 810.049v-18.928H431.199V924.61h23.546v-89.053c0-14.087 11.422-25.509 25.509-25.509h94.602z"/><path fill="#4285F4" d="M431.463 52.511h192.444V215.86H431.463z"/><path fill="#34A853" d="M480.254 835.558h143.653v133.493H480.254zM126.908 239.904h143.654v156.022H126.908z"/><path fill="#FF9800" d="M774.524 242.338h152.58v147.649h-152.58zm0 383.695h152.58v147.646h-152.58z"/><path fill="#FFF" d="M864.239 415.496h62.865c14.087 0 25.51-11.42 25.51-25.509V242.338c0-14.088-11.423-25.509-25.51-25.509h-152.58c-14.087 0-25.509 11.421-25.509 25.509v3.032l-99.6-57.506V52.511c0-14.088-11.422-25.509-25.509-25.509H431.463c-14.087 0-25.509 11.42-25.509 25.509v130.117L296.07 246.072v-6.168c0-14.088-11.421-25.509-25.509-25.509H126.908c-14.088 0-25.509 11.42-25.509 25.509v156.022c0 14.088 11.421 25.508 25.509 25.508h55.397v180.489h-79.791c-14.088 0-25.509 11.419-25.509 25.509v163.345c0 14.088 11.42 25.509 25.509 25.509h192.444c14.087 0 25.509-11.421 25.509-25.509v-5.49l85.223 49.207v90.116c0 14.087 11.422 25.508 25.509 25.508h23.546v18.933c0 14.089 11.422 25.51 25.509 25.51h143.653c14.087 0 25.509-11.421 25.509-25.51V835.558a25.49 25.49 0 0 0-.678-5.76 25.776 25.776 0 0 0-.725-2.527l101.002-58.317v4.725c0 14.087 11.422 25.509 25.509 25.509h152.58c14.087 0 25.51-11.422 25.51-25.509V626.033c0-14.088-11.423-25.509-25.51-25.509h-62.865V415.496zm-89.715-173.158h152.58v147.649h-152.58V242.338zM431.463 52.511h192.444V215.86H431.463V52.511zM296.071 395.926V284.82l110.419-63.752c.181.869.41 1.722.677 2.556 3.286 10.29 12.917 17.744 24.296 17.744h10.48L233.771 601.924h-17.906V421.435h54.697c14.087 0 25.509-11.42 25.509-25.509zm-169.163 0V239.904h143.654v156.022H126.908zm168.05 394.851H102.514V627.433h192.444v163.344zm159.787 44.781v89.053h-23.546v-133.49h143.658v18.928h-94.603c-14.087 0-25.509 11.422-25.509 25.509zm169.162 133.493H480.254V835.558h143.653v133.493zm125.109-253.67v20.47l-128.509 74.197h-20.142V791.12c0-14.087-11.421-25.508-25.509-25.508H431.199c-14.087 0-25.509 11.421-25.509 25.508v4.621l-85.223-49.204v-33.708h428.549v2.552zm21.533-114.516c-12.195 1.915-21.533 12.438-21.533 25.168v53.238H320.467v-51.838c0-14.09-11.422-25.509-25.509-25.509h-22.437l208.175-360.555h85.238l207.399 359.215c-.942.044-1.87.139-2.784.281zM604.683 241.369h19.224c9.757 0 18.229-5.484 22.519-13.536.401-.752.761-1.525 1.087-2.319l101.503 58.605v105.869c0 14.088 11.422 25.509 25.509 25.509h56.156v185.028H812.05L604.683 241.369zm322.421 384.664v147.646h-152.58V626.033h152.58z"/></svg>