<?xml version="1.0" encoding="utf-8"?>
<!-- Generator: Adobe Illustrator 16.0.0, SVG Export Plug-In . SVG Version: 6.00 Build 0)  -->
<!DOCTYPE svg PUBLIC "-//W3C//DTD SVG 1.1//EN" "http://www.w3.org/Graphics/SVG/1.1/DTD/svg11.dtd">
<svg version="1.1" xmlns="http://www.w3.org/2000/svg" xmlns:xlink="http://www.w3.org/1999/xlink" x="0px" y="0px" width="1277px"
	 height="1201px" viewBox="0 0 1277 1201" enable-background="new 0 0 1277 1201" xml:space="preserve">
<g id="Layer_4" display="none">
	<rect display="inline" fill="#000102" width="1277" height="1201"/>
</g>
<g id="LOGO_copy" display="none">
	<g display="inline">
		<g>
			<g>
				<path fill="#1B9CE2" d="M196.242,1042.009c-13.807,0-25-11.192-25-25v-99.546c0-13.808,11.193-25,25-25h22.637
					c3.451,0,6.768,0.706,9.796,1.997c6.158-2.356,12.834-3.574,19.892-3.574c3.809,0,7.152,0.245,10.219,0.748
					c2.603,0.425,5.623,1.119,9.209,2.12c11.98,3.342,19.682,14.984,18.071,27.317l-3.247,24.863
					c-0.98,7.508-5.311,14.166-11.775,18.108c-3.968,2.419-8.478,3.654-13.016,3.654c-2.765,0-5.541-0.459-8.211-1.388v50.699
					c0,13.808-11.193,25-25,25H196.242z"/>
				<path fill="#FFFFFF" d="M248.566,915.886c2.412,0,4.468,0.139,6.169,0.418c1.7,0.277,3.88,0.788,6.541,1.53l-3.247,24.863
					c-5.154-1.857-9.727-2.786-13.719-2.786c-0.128,0-0.255,0.001-0.382,0.003c-4.453,0-8.227,0.788-11.318,2.366
					c-3.093,1.576-5.691,4.066-7.793,7.468v67.261h-28.574v-99.546h22.637l3.433,13.823
					C228.558,921.021,237.309,915.886,248.566,915.886 M248.566,865.886c-7.002,0-13.763,0.828-20.24,2.474
					c-3.07-0.59-6.23-0.896-9.448-0.896h-22.637c-27.614,0-50,22.386-50,50v99.546c0,27.614,22.386,50,50,50h28.574
					c27.614,0,50-22.386,50-50v-27.213c3.195-1.14,6.294-2.61,9.243-4.408c12.929-7.883,21.588-21.2,23.549-36.216l3.247-24.863
					c3.221-24.667-12.182-47.951-36.143-54.636c-4.481-1.25-8.383-2.139-11.927-2.717
					C258.412,866.238,253.746,865.886,248.566,865.886L248.566,865.886z"/>
			</g>
			<g>
				<path fill="#1B9CE2" d="M316.848,1043.864c-22.609,0-41.072-7.145-54.876-21.236c-13.663-13.943-20.593-32.659-20.593-55.624
					c0-22.851,6.804-41.455,20.224-55.298c13.628-14.062,32.091-21.191,54.874-21.191c27.764,0,43.717,11.473,52.211,21.098
					c11.554,13.092,17.413,31.416,17.413,54.464v6.494c0,7.028-2.899,13.379-7.568,17.921l3.468,8.951
					c4.763,12.294-0.84,26.175-12.804,31.716c-18.204,8.432-35.705,12.707-52.018,12.707L316.848,1043.864z"/>
				<path fill="#FFFFFF" d="M316.477,915.515c29.749,0,44.624,16.854,44.624,50.562v6.494h-66.982
					c1.484,16.947,10.205,25.42,26.162,25.42c4.947,0,9.927-0.571,14.937-1.716s10.544-2.984,16.606-5.521l6.865,17.72
					c-14.962,6.93-28.798,10.392-41.511,10.392c-0.11,0-0.22,0-0.33-0.001c-15.71,0-28.049-4.576-37.017-13.73
					c-8.969-9.152-13.452-21.863-13.452-38.13c0-16.204,4.391-28.837,13.174-37.897
					C288.334,920.046,300.643,915.515,316.477,915.515 M294.675,956.057h40.264c-0.805-13.854-6.897-20.781-18.276-20.781
					c-6.309,0-11.272,1.716-14.89,5.149C298.154,943.856,295.788,949.068,294.675,956.057 M316.477,865.515
					c-37.127,0-60.096,15.658-72.827,28.793c-12.439,12.832-27.271,35.863-27.271,72.696c0,37.042,15.085,60.211,27.741,73.125
					c12.835,13.104,35.874,28.731,72.712,28.735l0.347,0.001c19.968,0,41.004-5.055,62.525-15.022
					c22.877-10.597,34.127-36.439,26.744-60.179c2.986-6.41,4.654-13.557,4.654-21.094v-6.494c0-29.321-7.963-53.212-23.668-71.007
					C375.533,881.587,353.563,865.515,316.477,865.515L316.477,865.515z"/>
			</g>
			<g>
				<path fill="#1B9CE2" d="M375.851,1079.396c-5.267,0-10.536-1.659-14.979-4.984l-14.38-10.762
					c-5.42-4.057-8.964-10.138-9.82-16.854c-0.856-6.716,1.048-13.491,5.277-18.778c5.259-6.573,9.087-12.589,11.377-17.88
					c1.83-4.229,2.72-8.143,2.72-11.962V918.02c0-2.55,0.382-5.012,1.091-7.329c-0.709-2.317-1.091-4.779-1.091-7.329v-25.977
					c0-13.807,11.193-25,25-25h28.481c13.807,0,25,11.193,25,25v25.977c0,2.55-0.382,5.012-1.091,7.329
					c0.709,2.317,1.091,4.779,1.091,7.329v80.156c0,14.581-4.094,28.77-12.167,42.171c-7.312,12.131-17.828,23.521-31.26,33.86
					C386.609,1077.665,381.231,1079.396,375.851,1079.396z"/>
				<path fill="#FFFFFF" d="M409.528,877.385v25.977h-28.481v-25.977H409.528 M409.528,918.02v80.156
					c0,10.02-2.861,19.775-8.582,29.271c-5.722,9.492-14.087,18.477-25.095,26.95l-14.38-10.762
					c6.68-8.35,11.611-16.205,14.797-23.564c3.185-7.359,4.778-14.658,4.778-21.895V918.02H409.528 M409.528,827.385h-28.481
					c-27.614,0-50,22.386-50,50v25.977c0,2.489,0.182,4.938,0.533,7.329c-0.351,2.392-0.533,4.84-0.533,7.329v80.156
					c-0.011,0.146-0.152,0.851-0.666,2.038c-0.789,1.822-2.876,5.841-7.953,12.187c-8.458,10.573-12.268,24.125-10.555,37.557
					c1.712,13.433,8.799,25.596,19.64,33.709l14.38,10.762c8.884,6.648,19.425,9.969,29.958,9.969
					c10.761,0,21.515-3.463,30.499-10.379c15.908-12.244,28.498-25.958,37.419-40.76c10.459-17.361,15.759-35.89,15.759-55.082
					V918.02c0-2.489-0.182-4.938-0.533-7.329c0.351-2.392,0.533-4.84,0.533-7.329v-25.977
					C459.528,849.771,437.143,827.385,409.528,827.385L409.528,827.385z"/>
			</g>
			<g>
				<path fill="#1B9CE2" d="M479.387,1044.143c-23.121,0-41.751-7.079-55.374-21.04c-13.456-13.785-20.28-32.66-20.28-56.099
					c0-23.373,6.792-42.185,20.188-55.913c13.562-13.899,32.224-20.947,55.466-20.947c23.304,0,41.997,7.048,55.56,20.947
					c13.396,13.729,20.188,32.54,20.188,55.913c0,23.325-6.763,42.153-20.099,55.962
					C521.465,1037.018,502.742,1044.143,479.387,1044.143z"/>
				<path fill="#FFFFFF" d="M479.387,915.144c16.389,0,28.945,4.469,37.666,13.406s13.081,21.755,13.081,38.454
					s-4.36,29.564-13.081,38.594c-8.721,9.03-21.277,13.545-37.666,13.545c-16.205,0-28.699-4.499-37.48-13.499
					c-8.783-8.998-13.174-21.878-13.174-38.64c0-16.699,4.36-29.517,13.081-38.454S463.059,915.144,479.387,915.144
					 M479.387,936.481c-0.043,0-0.087,0-0.13,0c-14.572,0-21.857,10.172-21.857,30.522c0,20.41,7.329,30.615,21.987,30.615
					c14.719,0,22.08-10.205,22.08-30.615c0-20.35-7.318-30.522-21.95-30.522C479.473,936.481,479.431,936.481,479.387,936.481
					 M479.387,865.144c-37.659,0-60.68,15.492-73.36,28.488c-12.451,12.761-27.294,35.849-27.294,73.372
					c0,37.607,14.897,60.763,27.394,73.565c12.716,13.031,35.754,28.573,73.261,28.573c37.861,0,60.939-15.668,73.633-28.812
					c12.368-12.806,27.114-35.925,27.114-73.327c0-37.523-14.843-60.611-27.294-73.373
					C540.159,880.636,517.122,865.144,479.387,865.144L479.387,865.144z"/>
			</g>
			<g>
				<path fill="#1B9CE2" d="M550.08,1042.009c-13.807,0-25-11.193-25-25v-98.433c0-2.653,0.413-5.208,1.179-7.607
					c-0.766-2.399-1.179-4.954-1.179-7.607v-25.977c0-13.807,11.193-25,25-25h28.481c13.807,0,25,11.193,25,25v25.977
					c0,2.653-0.413,5.208-1.179,7.607c0.766,2.399,1.179,4.954,1.179,7.607v98.433c0,13.807-11.193,25-25,25H550.08z"/>
				<path fill="#FFFFFF" d="M578.562,877.385v25.977H550.08v-25.977H578.562 M578.562,918.576v98.433H550.08v-98.433H578.562
					 M578.562,827.385H550.08c-27.614,0-50,22.386-50,50v25.977c0,2.587,0.196,5.126,0.575,7.607
					c-0.379,2.481-0.575,5.021-0.575,7.607v98.433c0,27.614,22.386,50,50,50h28.481c27.614,0,50-22.386,50-50v-98.433
					c0-2.587-0.196-5.126-0.575-7.607c0.379-2.481,0.575-5.021,0.575-7.607v-25.977
					C628.562,849.771,606.176,827.385,578.562,827.385L578.562,827.385z"/>
			</g>
			<g>
				<path fill="#1B9CE2" d="M671.242,1042.009c-7.287,0-13.846-3.118-18.415-8.092c-4.57,4.974-11.129,8.092-18.416,8.092h-28.574
					c-13.808,0-25-11.192-25-25v-99.546c0-13.808,11.192-25,25-25h23.75c4.227,0,8.25,1.06,11.784,2.95
					c7.968-2.994,16.647-4.527,25.881-4.527c21.922,0,35.152,9.339,42.391,17.173c10.008,10.833,15.08,25.233,15.08,42.803v66.147
					c0,13.808-11.192,25-25,25H671.242z"/>
				<path fill="#FFFFFF" d="M667.252,915.886c10.391,0,18.4,3.047,24.029,9.139c5.627,6.092,8.441,14.704,8.441,25.837v66.147
					h-28.48v-64.57c0-5.812-1.146-10.02-3.434-12.617c-2.289-2.598-5.969-3.896-11.039-3.896c-4.578,0-8.846,1.037-12.803,3.107
					c-3.959,2.073-7.144,4.871-9.556,8.396v69.58h-28.574v-99.546h23.75l3.062,13.823
					C641.43,921.021,652.965,915.886,667.252,915.886 M667.252,865.886c-8.756,0-17.205,1.052-25.258,3.136
					c-3.982-1.02-8.144-1.559-12.407-1.559h-23.75c-27.614,0-50,22.386-50,50v99.546c0,27.614,22.386,50,50,50h28.574
					c6.503,0,12.717-1.242,18.415-3.501c5.699,2.259,11.914,3.501,18.416,3.501h28.48c27.614,0,50-22.386,50-50v-66.147
					c0-29.967-11.808-49.04-21.713-59.764C717.379,879.593,698.215,865.886,667.252,865.886L667.252,865.886z"/>
			</g>
			<g>
				<path fill="#1B9CE2" d="M767.727,1043.864c-22.611,0-41.074-7.146-54.877-21.236c-13.662-13.942-20.592-32.658-20.592-55.624
					c0-22.851,6.804-41.455,20.224-55.298c13.627-14.062,32.09-21.191,54.874-21.191c27.764,0,43.717,11.474,52.211,21.098
					c11.554,13.092,17.412,31.416,17.412,54.464v6.494c0,7.028-2.899,13.379-7.568,17.921l3.468,8.951
					c4.764,12.294-0.841,26.175-12.805,31.716c-18.203,8.432-35.704,12.707-52.017,12.707L767.727,1043.864z"/>
				<path fill="#FFFFFF" d="M767.355,915.515c29.748,0,44.623,16.854,44.623,50.562v6.494h-66.982
					c1.484,16.947,10.205,25.42,26.162,25.42c4.947,0,9.928-0.571,14.938-1.716s10.543-2.984,16.605-5.521l6.865,17.72
					c-14.962,6.93-28.798,10.392-41.51,10.392c-0.11,0-0.22,0-0.33-0.001c-15.711,0-28.051-4.576-37.018-13.73
					c-8.969-9.152-13.451-21.863-13.451-38.13c0-16.204,4.391-28.837,13.174-37.897
					C739.213,920.046,751.521,915.515,767.355,915.515 M745.553,956.057h40.264c-0.805-13.854-6.896-20.781-18.275-20.781
					c-6.309,0-11.271,1.716-14.891,5.149C749.033,943.856,746.666,949.068,745.553,956.057 M767.355,865.515
					c-37.128,0-60.098,15.658-72.828,28.794c-12.438,12.831-27.27,35.862-27.27,72.695c0,37.042,15.085,60.211,27.739,73.125
					c12.835,13.104,35.873,28.731,72.714,28.735l0.346,0.001c19.968,0,41.004-5.055,62.524-15.022
					c22.878-10.597,34.127-36.439,26.743-60.179c2.987-6.41,4.654-13.557,4.654-21.094v-6.494c0-29.321-7.963-53.211-23.668-71.006
					C826.411,881.587,804.441,865.515,767.355,865.515L767.355,865.515z"/>
			</g>
			<g>
				<path fill="#1B9CE2" d="M831.275,1042.009c-13.808,0-25-11.192-25-25v-99.546c0-13.808,11.192-25,25-25h22.637
					c3.45,0,6.769,0.707,9.796,1.997c6.158-2.356,12.834-3.574,19.892-3.574c3.811,0,7.153,0.245,10.221,0.748
					c2.599,0.424,5.62,1.119,9.208,2.12c11.981,3.342,19.683,14.984,18.071,27.318l-3.248,24.863
					c-0.98,7.508-5.311,14.166-11.774,18.107c-3.968,2.419-8.478,3.654-13.016,3.654c-2.766,0-5.541-0.458-8.212-1.388v50.699
					c0,13.808-11.193,25-25,25H831.275z"/>
				<path fill="#FFFFFF" d="M883.6,915.886c2.412,0,4.469,0.139,6.17,0.418c1.701,0.277,3.881,0.788,6.541,1.53l-3.248,24.863
					c-5.154-1.857-9.728-2.786-13.72-2.786c-0.128,0-0.255,0.001-0.382,0.003c-4.453,0-8.227,0.788-11.318,2.366
					c-3.094,1.576-5.691,4.066-7.793,7.468v67.261h-28.574v-99.546h22.637l3.434,13.823
					C863.592,921.021,872.342,915.886,883.6,915.886 M883.6,865.886c-7.003,0-13.763,0.828-20.24,2.474
					c-3.069-0.59-6.229-0.896-9.447-0.896h-22.637c-27.614,0-50,22.386-50,50v99.546c0,27.614,22.386,50,50,50h28.574
					c27.614,0,50-22.386,50-50v-27.214c3.195-1.139,6.293-2.609,9.242-4.407c12.928-7.883,21.588-21.199,23.549-36.214l3.249-24.863
					c3.223-24.668-12.181-47.952-36.143-54.638c-4.484-1.251-8.388-2.14-11.933-2.718C893.41,866.235,888.76,865.886,883.6,865.886
					L883.6,865.886z"/>
			</g>
			<g>
				<path fill="#1B9CE2" d="M898.629,1042.009c-13.808,0-25-11.192-25-25v-28.296c0-13.808,11.192-25,25-25h29.316
					c13.808,0,25,11.192,25,25v28.296c0,13.808-11.192,25-25,25H898.629z"/>
				<path fill="#FFFFFF" d="M927.945,988.713v28.296h-29.316v-28.296H927.945 M927.945,938.713h-29.316c-27.614,0-50,22.386-50,50
					v28.296c0,27.614,22.386,50,50,50h29.316c27.614,0,50-22.386,50-50v-28.296C977.945,961.099,955.56,938.713,927.945,938.713
					L927.945,938.713z"/>
			</g>
			<g>
				<path fill="#1B9CE2" d="M954.293,1042.009c-13.807,0-25-11.193-25-25v-98.433c0-2.653,0.413-5.208,1.179-7.607
					c-0.766-2.399-1.179-4.954-1.179-7.607v-25.977c0-13.807,11.193-25,25-25h28.482c13.807,0,25,11.193,25,25v25.977
					c0,2.653-0.413,5.208-1.179,7.607c0.766,2.399,1.179,4.954,1.179,7.607v98.433c0,13.807-11.193,25-25,25H954.293z"/>
				<path fill="#FFFFFF" d="M982.775,877.385v25.977h-28.482v-25.977H982.775 M982.775,918.576v98.433h-28.482v-98.433H982.775
					 M982.775,827.385h-28.482c-27.614,0-50,22.386-50,50v25.977c0,2.587,0.196,5.126,0.575,7.607
					c-0.379,2.481-0.575,5.021-0.575,7.607v98.433c0,27.614,22.386,50,50,50h28.482c27.614,0,50-22.386,50-50v-98.433
					c0-2.587-0.196-5.126-0.575-7.607c0.379-2.481,0.575-5.021,0.575-7.607v-25.977
					C1032.775,849.771,1010.39,827.385,982.775,827.385L982.775,827.385z"/>
			</g>
			<g>
				<path fill="#1B9CE2" d="M1053.375,1044.143c-23.122,0-41.752-7.079-55.374-21.04c-13.456-13.785-20.28-32.66-20.28-56.099
					c0-23.372,6.792-42.185,20.188-55.913c13.562-13.899,32.224-20.947,55.466-20.947c23.305,0,41.997,7.048,55.56,20.947
					c13.396,13.729,20.188,32.541,20.188,55.913c0,23.324-6.763,42.152-20.1,55.962
					C1095.453,1037.018,1076.73,1044.143,1053.375,1044.143z"/>
				<path fill="#FFFFFF" d="M1053.375,915.144c16.389,0,28.945,4.469,37.666,13.406s13.082,21.755,13.082,38.454
					s-4.361,29.564-13.082,38.594c-8.721,9.03-21.277,13.545-37.666,13.545c-16.205,0-28.699-4.499-37.48-13.499
					c-8.783-8.998-13.174-21.878-13.174-38.64c0-16.699,4.361-29.517,13.082-38.454S1037.047,915.144,1053.375,915.144
					 M1053.375,936.481c-0.043,0-0.087,0-0.13,0c-14.572,0-21.856,10.172-21.856,30.522c0,20.41,7.328,30.615,21.986,30.615
					c14.719,0,22.08-10.205,22.08-30.615c0-20.35-7.318-30.522-21.949-30.522C1053.461,936.481,1053.419,936.481,1053.375,936.481
					 M1053.375,865.144c-37.658,0-60.679,15.492-73.359,28.487c-12.451,12.762-27.295,35.851-27.295,73.373
					c0,37.607,14.896,60.763,27.394,73.565c12.714,13.03,35.752,28.573,73.261,28.573c37.861,0,60.939-15.668,73.633-28.812
					c12.369-12.807,27.115-35.926,27.115-73.327c0-37.522-14.844-60.611-27.295-73.373
					C1114.147,880.636,1091.11,865.144,1053.375,865.144L1053.375,865.144z"/>
			</g>
		</g>
		<g id="Shape_84_">
			<g>
				<path fill="#1B9CE2" d="M518.334,883.72c-13.807,0-25-11.193-25-25V714.349c0-13.807,11.193-25,25-25h298.484
					c13.807,0,25,11.193,25,25V858.72c0,13.807-11.193,25-25,25H518.334z"/>
				<path fill="#FFFFFF" d="M816.818,714.349V858.72H518.334V714.349H816.818 M816.818,664.349H518.334c-27.614,0-50,22.386-50,50
					V858.72c0,27.614,22.386,50,50,50h298.484c27.615,0,50-22.386,50-50V714.349C866.818,686.734,844.434,664.349,816.818,664.349
					L816.818,664.349z"/>
			</g>
		</g>
		<g id="Shape_82_">
			<g>
				<g>
					<path fill="#4285F4" d="M539.483,859.788c-13.808,0-25-11.193-25-25v-97.139c0-13.807,11.192-25,25-25h116.085
						c13.809,0,25,11.193,25,25v97.139c0,13.807-11.191,25-25,25H539.483z"/>
					<path fill="#FFFFFF" d="M655.568,737.649v97.139H539.483v-97.139H655.568 M655.568,687.649H539.483c-27.614,0-50,22.386-50,50
						v97.139c0,27.614,22.386,50,50,50h116.085c27.615,0,50-22.386,50-50v-97.139C705.568,710.035,683.184,687.649,655.568,687.649
						L655.568,687.649z"/>
				</g>
			</g>
			<g>
				<path fill="#FFFFFF" stroke="#FFFFFF" stroke-width="50" stroke-linejoin="round" stroke-miterlimit="10" d="M653.068,740.149
					v92.139H541.983v-92.139H653.068 M658.068,735.149H536.983v102.139h121.085V735.149L658.068,735.149z"/>
			</g>
		</g>
		<g id="Shape_80_">
			<g>
				<g>
					<path fill="#4285F4" d="M673.617,859.788c-13.807,0-25-11.193-25-25v-97.139c0-13.807,11.193-25,25-25h116.086
						c13.809,0,25,11.193,25,25v97.139c0,13.807-11.191,25-25,25H673.617z"/>
					<path fill="#FFFFFF" d="M789.703,737.649v97.139H673.617v-97.139H789.703 M789.703,687.649H673.617c-27.613,0-50,22.386-50,50
						v97.139c0,27.614,22.387,50,50,50h116.086c27.615,0,50-22.386,50-50v-97.139C839.703,710.035,817.318,687.649,789.703,687.649
						L789.703,687.649z"/>
				</g>
			</g>
			<g>
				<path fill="#FFFFFF" stroke="#FFFFFF" stroke-width="50" stroke-linejoin="round" stroke-miterlimit="10" d="M787.203,740.149
					v92.139H676.117v-92.139H787.203 M792.203,735.149H671.117v102.139h121.086V735.149L792.203,735.149z"/>
			</g>
		</g>
		<g id="Shape_79_">
			<g>
				<path fill="#1B9CE2" d="M160.867,858.651c-13.807,0-25-11.193-25-25V714.349c0-13.807,11.193-25,25-25h340.435
					c13.808,0,25,11.193,25,25v119.303c0,13.807-11.192,25-25,25H160.867z"/>
				<path fill="#FFFFFF" d="M501.302,714.349v119.303H160.867V714.349H501.302 M501.302,664.349H160.867c-27.614,0-50,22.386-50,50
					v119.303c0,27.614,22.386,50,50,50h340.435c27.614,0,50-22.386,50-50V714.349C551.302,686.734,528.916,664.349,501.302,664.349
					L501.302,664.349z"/>
			</g>
		</g>
		<g id="Shape_77_">
			<g>
				<g>
					<path fill="#34A853" d="M184.091,837.97c-13.807,0-25-11.192-25-25v-78.418c0-13.808,11.193-25,25-25h85.398
						c13.807,0,25,11.192,25,25v78.418c0,13.808-11.193,25-25,25H184.091z"/>
					<path fill="#FFFFFF" d="M269.489,734.552v78.418h-85.398v-78.418H269.489 M269.489,684.552h-85.398c-27.614,0-50,22.386-50,50
						v78.418c0,27.614,22.386,50,50,50h85.398c27.614,0,50-22.386,50-50v-78.418C319.489,706.938,297.104,684.552,269.489,684.552
						L269.489,684.552z"/>
				</g>
			</g>
			<g>
				<path fill="#FFFFFF" stroke="#FFFFFF" stroke-width="50" stroke-linejoin="round" stroke-miterlimit="10" d="M266.989,737.052
					v73.418h-80.398v-73.418H266.989 M271.989,732.052h-90.398v83.418h90.398V732.052L271.989,732.052z"/>
			</g>
		</g>
		<g id="Shape_75_">
			<g>
				<g>
					<path fill="#34A853" d="M287.691,837.97c-13.807,0-25-11.192-25-25v-78.418c0-13.808,11.193-25,25-25h85.397
						c13.807,0,25,11.192,25,25v78.418c0,13.808-11.193,25-25,25H287.691z"/>
					<path fill="#FFFFFF" d="M373.089,734.552v78.418h-85.397v-78.418H373.089 M373.089,684.552h-85.397c-27.614,0-50,22.386-50,50
						v78.418c0,27.614,22.386,50,50,50h85.397c27.614,0,50-22.386,50-50v-78.418C423.089,706.938,400.703,684.552,373.089,684.552
						L373.089,684.552z"/>
				</g>
			</g>
			<g>
				<path fill="#FFFFFF" stroke="#FFFFFF" stroke-width="50" stroke-linejoin="round" stroke-miterlimit="10" d="M370.589,737.052
					v73.418h-80.397v-73.418H370.589 M375.589,732.052h-90.397v83.418h90.397V732.052L375.589,732.052z"/>
			</g>
		</g>
		<g id="Shape_73_">
			<g>
				<g>
					<path fill="#34A853" d="M391.29,837.97c-13.807,0-25-11.192-25-25v-78.418c0-13.808,11.193-25,25-25h85.398
						c13.807,0,25,11.192,25,25v78.418c0,13.808-11.193,25-25,25H391.29z"/>
					<path fill="#FFFFFF" d="M476.688,734.552v78.418H391.29v-78.418H476.688 M476.688,684.552H391.29c-27.614,0-50,22.386-50,50
						v78.418c0,27.614,22.386,50,50,50h85.398c27.614,0,50-22.386,50-50v-78.418C526.688,706.938,504.302,684.552,476.688,684.552
						L476.688,684.552z"/>
				</g>
			</g>
			<g>
				<path fill="#FFFFFF" stroke="#FFFFFF" stroke-width="50" stroke-linejoin="round" stroke-miterlimit="10" d="M474.188,737.052
					v73.418H393.79v-73.418H474.188 M479.188,732.052H388.79v83.418h90.398V732.052L479.188,732.052z"/>
			</g>
		</g>
		<g id="Shape_72_">
			<g>
				<path fill="#1B9CE2" d="M828.889,876.851c-13.807,0-25-11.193-25-25V714.349c0-13.807,11.193-25,25-25h292.902
					c13.807,0,25,11.193,25,25v137.502c0,13.807-11.193,25-25,25H828.889z"/>
				<path fill="#FFFFFF" d="M1121.791,714.349v137.502H828.889V714.349H1121.791 M1121.791,664.349H828.889
					c-27.613,0-50,22.386-50,50v137.502c0,27.614,22.387,50,50,50h292.902c27.615,0,50-22.386,50-50V714.349
					C1171.791,686.734,1149.406,664.349,1121.791,664.349L1121.791,664.349z"/>
			</g>
		</g>
		<g id="Shape_70_">
			<g>
				<g>
					<path fill="#FF9800" d="M850.037,852.763c-13.807,0-25-11.192-25-25v-87.307c0-13.808,11.193-25,25-25h116.088
						c13.809,0,25,11.192,25,25v87.307c0,13.808-11.191,25-25,25H850.037z"/>
					<path fill="#FFFFFF" d="M966.125,740.456v87.307H850.037v-87.307H966.125 M966.125,690.456H850.037c-27.613,0-50,22.386-50,50
						v87.307c0,27.614,22.387,50,50,50h116.088c27.615,0,50-22.386,50-50v-87.307C1016.125,712.842,993.74,690.456,966.125,690.456
						L966.125,690.456z"/>
				</g>
			</g>
			<g>
				<path fill="#FFFFFF" stroke="#FFFFFF" stroke-width="50" stroke-linejoin="round" stroke-miterlimit="10" d="M963.625,742.956
					v82.307H852.537v-82.307H963.625 M968.625,737.956H847.537v92.307h121.088V737.956L968.625,737.956z"/>
			</g>
		</g>
		<g id="Shape_68_">
			<g>
				<g>
					<path fill="#FF9800" d="M985.814,852.763c-13.807,0-25-11.192-25-25v-87.307c0-13.808,11.193-25,25-25h116.088
						c13.809,0,25,11.192,25,25v87.307c0,13.808-11.191,25-25,25H985.814z"/>
					<path fill="#FFFFFF" d="M1101.902,740.456v87.307H985.814v-87.307H1101.902 M1101.902,690.456H985.814
						c-27.613,0-50,22.386-50,50v87.307c0,27.614,22.387,50,50,50h116.088c27.615,0,50-22.386,50-50v-87.307
						C1151.902,712.842,1129.518,690.456,1101.902,690.456L1101.902,690.456z"/>
				</g>
			</g>
			<g>
				<path fill="#FFFFFF" stroke="#FFFFFF" stroke-width="50" stroke-linejoin="round" stroke-miterlimit="10" d="M1099.402,742.956
					v82.307H988.314v-82.307H1099.402 M1104.402,737.956H983.314v92.307h121.088V737.956L1104.402,737.956z"/>
			</g>
		</g>
		<g id="Shape_58_">
			<g>
				<g>
					<path fill="#1B9CE2" d="M339.172,626.038c-19.299,0-35-15.701-35-35V164.604c0-19.299,15.701-35,35-35h570
						c19.299,0,35,15.701,35,35v426.434c0,19.299-15.701,35-35,35H339.172z"/>
					<path fill="#FFFFFF" d="M909.172,154.604c5.523,0,10,4.477,10,10v426.434c0,5.522-4.477,10-10,10h-570c-5.523,0-10-4.478-10-10
						V164.604c0-5.523,4.477-10,10-10H909.172 M909.172,104.604h-570c-33.084,0-60,26.916-60,60v426.434c0,33.084,26.916,60,60,60
						h570c33.084,0,60-26.916,60-60V164.604C969.172,131.52,942.256,104.604,909.172,104.604L909.172,104.604z"/>
				</g>
			</g>
			<g>
				<path fill="#1B9CE2" stroke="#FFFFFF" stroke-width="50" stroke-linejoin="round" stroke-miterlimit="10" d="M909.172,164.604
					v426.434h-570V164.604H909.172 M909.172,144.604h-570c-11.046,0-20,8.954-20,20v426.434c0,11.046,8.954,20,20,20h570
					c11.047,0,20-8.954,20-20V164.604C929.172,153.558,920.219,144.604,909.172,144.604L909.172,144.604z"/>
			</g>
		</g>
		<g id="Shape_50_" opacity="0">
			<polyline stroke="#FFFFFF" stroke-width="50" stroke-linejoin="round" stroke-miterlimit="10" points="585.301,612.038 
				585.301,663.692 331.084,663.692 331.084,715.347 			"/>
		</g>
		<g id="Shape_49_">
			<g>
				<path fill="#1B9CE2" d="M311.084,740.347c-13.807,0-25-11.193-25-25v-51.654c0-24.813,20.187-45,45-45h209.216v-6.654
					c0-13.807,11.192-25,25-25h40c13.807,0,25,11.193,25,25v51.654c0,24.813-20.188,45-45,45H376.084v6.654
					c0,13.807-11.193,25-25,25H311.084z"/>
				<path fill="#FFFFFF" d="M605.301,612.038v51.654c0,11.046-8.955,20-20,20H351.084v31.654h-40v-51.654c0-11.046,8.954-20,20-20
					h234.216v-31.654H605.301 M605.301,562.038h-40c-21.138,0-39.212,13.117-46.527,31.654H331.084c-38.598,0-70,31.402-70,70
					v51.654c0,27.614,22.386,50,50,50h40c21.137,0,39.211-13.117,46.527-31.654h187.689c38.598,0,70-31.402,70-70v-51.654
					C655.301,584.424,632.914,562.038,605.301,562.038L605.301,562.038z"/>
			</g>
		</g>
		<g id="Shape_47_" opacity="0">
			<polyline stroke="#FFFFFF" stroke-width="50" stroke-linejoin="round" stroke-miterlimit="10" points="585.301,612.038 
				585.301,663.692 667.568,663.692 667.568,715.347 			"/>
		</g>
		<g id="Shape_46_">
			<g>
				<path fill="#1B9CE2" d="M647.568,740.347c-13.807,0-25-11.192-25-25v-6.654h-37.268c-24.813,0-45-20.187-45-45v-51.654
					c0-13.808,11.192-25,25-25h40c13.807,0,25,11.192,25,25v6.654h37.268c24.814,0,45,20.187,45,45v51.654c0,13.808-11.191,25-25,25
					H647.568z"/>
				<path fill="#FFFFFF" d="M605.301,612.038v31.654h62.268c11.047,0,20,8.954,20,20v51.654h-40v-31.654h-62.268
					c-11.047,0-20-8.954-20-20v-51.654H605.301 M605.301,562.038h-40c-27.615,0-50,22.386-50,50v51.654c0,38.598,31.401,70,70,70
					h15.74c7.316,18.537,25.391,31.654,46.527,31.654h40c27.615,0,50-22.386,50-50v-51.654c0-38.598-31.402-70-70-70h-15.74
					C644.512,575.155,626.438,562.038,605.301,562.038L605.301,562.038z"/>
			</g>
		</g>
		<g id="Shape_44_" opacity="0">
			<polyline stroke="#FFFFFF" stroke-width="50" stroke-linejoin="round" stroke-miterlimit="10" points="585.301,612.038 
				585.301,663.692 975.357,663.692 975.357,715.347 			"/>
		</g>
		<g id="Shape_43_">
			<g>
				<path fill="#1B9CE2" d="M955.357,740.347c-13.807,0-25-11.192-25-25v-6.654H585.301c-24.813,0-45-20.187-45-45v-51.654
					c0-13.808,11.192-25,25-25h40c13.807,0,25,11.192,25,25v6.654h345.057c24.814,0,45,20.187,45,45v51.654
					c0,13.808-11.191,25-25,25H955.357z"/>
				<path fill="#FFFFFF" d="M605.301,612.038v31.654h370.057c11.047,0,20,8.954,20,20v51.654h-40v-31.654H585.301
					c-11.047,0-20-8.954-20-20v-51.654H605.301 M605.301,562.038h-40c-27.615,0-50,22.386-50,50v51.654c0,38.599,31.401,70,70,70
					H908.83c7.316,18.537,25.391,31.654,46.527,31.654h40c27.615,0,50-22.386,50-50v-51.654c0-38.599-31.402-70-70-70H651.828
					C644.512,575.155,626.438,562.038,605.301,562.038L605.301,562.038z"/>
			</g>
		</g>
		<g>
			<g>
				<g>
					<g>
						<g>
							<g>
								<path fill="#FFFFFF" d="M494.877,505.502c-4.242,0-8.54-1.08-12.477-3.354l-12.259-7.078
									c-5.742-3.315-9.932-8.776-11.647-15.18c-1.716-6.405-0.818-13.229,2.498-18.971l145.716-252.377
									c3.315-5.742,8.775-9.932,15.181-11.648c2.128-0.57,4.304-0.852,6.469-0.852c4.353,0,8.668,1.136,12.503,3.35l12.258,7.078
									c11.957,6.904,16.053,22.193,9.148,34.15L516.551,492.999C511.921,501.018,503.517,505.502,494.877,505.502z"/>
								<path fill="#FFFFFF" d="M628.357,221.042l12.258,7.078L494.901,480.498l-12.259-7.078L628.357,221.042 M628.355,171.042
									c-4.332,0-8.68,0.562-12.938,1.703c-12.809,3.432-23.73,11.812-30.361,23.296L439.341,448.419
									c-13.808,23.915-5.614,54.494,18.3,68.302l12.259,7.078c7.667,4.427,16.3,6.699,25.002,6.699
									c4.333,0,8.682-0.562,12.939-1.703c12.81-3.432,23.73-11.812,30.36-23.296l145.715-252.377
									c13.809-23.914,5.615-54.493-18.299-68.3l-12.258-7.079C645.691,173.315,637.059,171.042,628.355,171.042L628.355,171.042z"
									/>
							</g>
						</g>
						<g>
							<path fill="#1B9CE2" stroke="#FFFFFF" stroke-width="50" stroke-linejoin="round" stroke-miterlimit="10" d="
								M628.541,221.726l11.391,6.578L494.718,479.814l-11.393-6.578L628.541,221.726 M628.174,220.359L481.958,473.603
								l13.125,7.578l146.215-253.243L628.174,220.359L628.174,220.359z"/>
						</g>
					</g>
				</g>
			</g>
			<g>
				<g>
					<g>
						<g>
							<g>
								<path fill="#FFFFFF" d="M479.454,493.028c-13.807,0-25-11.193-25-25v-14.156c0-13.807,11.193-25,25-25h291.429
									c13.807,0,25,11.193,25,25v14.156c0,13.807-11.193,25-25,25H479.454z"/>
								<path fill="#FFFFFF" d="M770.883,453.872v14.156H479.454v-14.156H770.883 M770.883,403.872H479.454
									c-27.614,0-50,22.386-50,50v14.156c0,27.614,22.386,50,50,50h291.429c27.615,0,50-22.386,50-50v-14.156
									C820.883,426.258,798.498,403.872,770.883,403.872L770.883,403.872z"/>
							</g>
						</g>
						<g>
							<path fill="#1B9CE2" stroke="#FFFFFF" stroke-width="50" stroke-linejoin="round" stroke-miterlimit="10" d="
								M770.383,454.372v13.156H479.954v-13.156H770.383 M771.383,453.372H478.954v15.156h292.429V453.372L771.383,453.372z"/>
						</g>
					</g>
				</g>
			</g>
			<g>
				<g>
					<g>
						<g>
							<g>
								<path fill="#FFFFFF" d="M630.827,570.654c-4.352,0-8.667-1.136-12.501-3.35l-145.404-83.951
									c-11.957-6.903-16.054-22.192-9.15-34.149l7.078-12.26c3.315-5.742,8.775-9.932,15.18-11.648
									c2.128-0.57,4.304-0.852,6.47-0.852c4.352,0,8.667,1.136,12.501,3.35l145.403,83.951c11.957,6.903,16.055,22.193,9.15,34.15
									l-7.078,12.26c-3.314,5.742-8.775,9.932-15.18,11.648C635.168,570.373,632.992,570.654,630.827,570.654z"/>
								<path fill="#FFFFFF" d="M492.5,449.443l145.404,83.951l-7.078,12.26l-145.403-83.951L492.5,449.443 M492.499,399.443
									c-4.333,0-8.682,0.563-12.94,1.704c-12.81,3.432-23.73,11.812-30.361,23.297l-7.078,12.26
									c-13.806,23.915-5.612,54.493,18.302,68.299l145.404,83.951c7.666,4.427,16.299,6.699,25.002,6.699
									c4.332,0,8.682-0.562,12.939-1.704c12.809-3.432,23.729-11.812,30.359-23.296l7.078-12.26
									c13.807-23.914,5.613-54.494-18.301-68.301l-145.403-83.951C509.834,401.716,501.201,399.443,492.499,399.443
									L492.499,399.443z"/>
							</g>
						</g>
						<g>
							<path fill="#1B9CE2" stroke="#FFFFFF" stroke-width="50" stroke-linejoin="round" stroke-miterlimit="10" d="
								M492.684,450.127l144.537,83.451l-6.578,11.393L486.106,461.52L492.684,450.127 M492.317,448.761l-7.578,13.125
								l146.27,84.451l7.578-13.125L492.317,448.761L492.317,448.761z"/>
						</g>
					</g>
				</g>
			</g>
			<g>
				<g>
					<g>
						<g>
							<g>
								<path fill="#FFFFFF" d="M757.893,350.552c-4.352,0-8.668-1.136-12.502-3.35l-145.404-83.952
									c-5.742-3.315-9.932-8.776-11.647-15.181s-0.817-13.229,2.499-18.971l7.078-12.258c4.63-8.02,13.033-12.503,21.673-12.503
									c4.241,0,8.54,1.081,12.478,3.354l145.402,83.951c11.957,6.903,16.053,22.192,9.15,34.15l-7.076,12.259
									c-3.316,5.742-8.777,9.933-15.182,11.648C762.232,350.271,760.059,350.552,757.893,350.552z"/>
								<path fill="#FFFFFF" d="M619.565,229.342l145.403,83.951l-7.078,12.259l-145.403-83.952L619.565,229.342 M619.612,179.334
									c-17.28,0-34.085,8.966-43.347,25.006l-7.078,12.258c-6.631,11.484-8.429,25.132-4.997,37.941
									c3.433,12.809,11.812,23.73,23.296,30.361l145.404,83.952c7.666,4.427,16.299,6.699,25.002,6.699
									c4.332,0,8.682-0.563,12.939-1.704c12.811-3.433,23.73-11.813,30.361-23.298l7.076-12.259
									c13.807-23.914,5.613-54.493-18.301-68.299l-145.402-83.951C636.693,181.496,628.094,179.334,619.612,179.334
									L619.612,179.334z"/>
							</g>
						</g>
						<g>
							<path fill="#1B9CE2" stroke="#FFFFFF" stroke-width="50" stroke-linejoin="round" stroke-miterlimit="10" d="
								M619.748,230.025l144.537,83.451l-6.578,11.393L613.17,241.417L619.748,230.025 M619.383,228.659l-7.578,13.125
								l146.27,84.452l7.576-13.125L619.383,228.659L619.383,228.659z"/>
						</g>
					</g>
				</g>
			</g>
			<g>
				<g>
					<g>
						<g>
							<g>
								<path fill="#FFFFFF" d="M492.541,350.495c-2.167,0-4.341-0.281-6.47-0.852c-6.405-1.716-11.865-5.906-15.18-11.648
									l-7.078-12.259c-6.904-11.957-2.807-27.247,9.15-34.15l145.402-83.951c3.938-2.273,8.236-3.354,12.478-3.354
									c8.641,0,17.042,4.483,21.673,12.504l7.078,12.259c3.316,5.742,4.215,12.566,2.498,18.97
									c-1.715,6.405-5.904,11.865-11.646,15.181l-145.404,83.951C501.208,349.358,496.892,350.495,492.541,350.495z"/>
								<path fill="#FFFFFF" d="M630.866,229.285l7.078,12.259l-145.403,83.951l-7.078-12.259L630.866,229.285 M630.819,179.276
									c-8.483,0-17.079,2.161-24.954,6.708l-145.402,83.951c-23.914,13.807-32.107,44.386-18.301,68.3l7.078,12.259
									c6.63,11.485,17.551,19.865,30.36,23.297c4.257,1.141,8.607,1.704,12.939,1.704c8.703,0,17.334-2.272,25.001-6.699
									l145.404-83.951c11.484-6.631,19.863-17.552,23.295-30.361s1.635-26.457-4.996-37.941l-7.078-12.259
									C664.906,188.244,648.1,179.276,630.819,179.276L630.819,179.276z"/>
							</g>
						</g>
						<g>
							<path fill="#1B9CE2" stroke="#FFFFFF" stroke-width="50" stroke-linejoin="round" stroke-miterlimit="10" d="
								M630.684,229.968l6.578,11.393l-144.538,83.451l-6.578-11.393L630.684,229.968 M631.049,228.602L484.78,313.053l7.578,13.125
								l146.269-84.451L631.049,228.602L631.049,228.602z"/>
						</g>
					</g>
				</g>
			</g>
			<g>
				<g>
					<g>
						<g>
							<g>
								<path fill="#FFFFFF" d="M755.582,505.506c-8.641,0-17.043-4.483-21.674-12.504L588.195,240.623
									c-6.904-11.957-2.807-27.247,9.15-34.15l12.258-7.078c3.833-2.213,8.148-3.35,12.5-3.35c2.166,0,4.342,0.281,6.47,0.852
									c6.405,1.716,11.866,5.906,15.181,11.648l145.715,252.378c3.316,5.742,4.215,12.566,2.498,18.971
									c-1.717,6.405-5.906,11.865-11.648,15.181l-12.26,7.078C764.123,504.425,759.824,505.506,755.582,505.506z"/>
								<path fill="#FFFFFF" d="M622.104,221.045l145.715,252.378l-12.26,7.078L609.846,228.123L622.104,221.045 M622.105,171.045
									c-8.705,0-17.336,2.272-25.004,6.7l-12.258,7.078c-23.914,13.808-32.106,44.387-18.299,68.301l145.713,252.379
									c9.262,16.04,26.068,25.007,43.348,25.007c8.484,0,17.078-2.16,24.953-6.707l12.26-7.078
									c11.484-6.63,19.865-17.551,23.297-30.36c3.432-12.81,1.635-26.457-4.996-37.941L665.404,196.045
									c-6.631-11.484-17.553-19.864-30.361-23.296C630.787,171.608,626.436,171.045,622.105,171.045L622.105,171.045z"/>
							</g>
						</g>
						<g>
							<path fill="#1B9CE2" stroke="#FFFFFF" stroke-width="50" stroke-linejoin="round" stroke-miterlimit="10" d="M621.92,221.729
								L767.135,473.24l-11.393,6.578L610.529,228.306L621.92,221.729 M622.287,220.362l-13.125,7.578l146.215,253.245l13.125-7.578
								L622.287,220.362L622.287,220.362z"/>
						</g>
					</g>
				</g>
			</g>
			<g>
				<g>
					<g>
						<g>
							<g>
								<path fill="#FFFFFF" d="M491.048,496.405c-13.807,0-25-11.193-25-25V303.503c0-13.807,11.193-25,25-25h14.156
									c13.808,0,25,11.193,25,25v167.902c0,13.807-11.192,25-25,25H491.048z"/>
								<path fill="#FFFFFF" d="M505.204,303.503v167.902h-14.156V303.503H505.204 M505.204,253.503h-14.156
									c-27.614,0-50,22.386-50,50v167.902c0,27.614,22.386,50,50,50h14.156c27.614,0,50-22.386,50-50V303.503
									C555.204,275.889,532.818,253.503,505.204,253.503L505.204,253.503z"/>
							</g>
						</g>
						<g>
							<path fill="#1B9CE2" stroke="#FFFFFF" stroke-width="50" stroke-linejoin="round" stroke-miterlimit="10" d="
								M504.704,304.003v166.902h-13.156V304.003H504.704 M505.704,303.003h-15.156v168.902h15.156V303.003L505.704,303.003z"/>
						</g>
					</g>
				</g>
			</g>
			<g>
				<g>
					<g>
						<g>
							<g>
								<path fill="#FFFFFF" d="M745.223,496.405c-13.807,0-25-11.193-25-25V303.503c0-13.807,11.193-25,25-25h14.156
									c13.807,0,25,11.193,25,25v167.902c0,13.807-11.193,25-25,25H745.223z"/>
								<path fill="#FFFFFF" d="M759.379,303.503v167.902h-14.156V303.503H759.379 M759.379,253.503h-14.156
									c-27.613,0-50,22.386-50,50v167.902c0,27.614,22.387,50,50,50h14.156c27.615,0,50-22.386,50-50V303.503
									C809.379,275.889,786.994,253.503,759.379,253.503L759.379,253.503z"/>
							</g>
						</g>
						<g>
							<path fill="#1B9CE2" stroke="#FFFFFF" stroke-width="50" stroke-linejoin="round" stroke-miterlimit="10" d="
								M758.879,304.003v166.902h-13.156V304.003H758.879 M759.879,303.003h-15.156v168.902h15.156V303.003L759.879,303.003z"/>
						</g>
					</g>
				</g>
			</g>
			<g>
				<g>
					<g>
						<g>
							<g>
								<path fill="#FFFFFF" d="M628.611,564.24c-2.166,0-4.341-0.281-6.47-0.852c-6.405-1.717-11.865-5.906-15.181-11.649
									l-6.119-10.6c-6.902-11.957-2.806-27.246,9.15-34.149l126.35-72.951c3.834-2.213,8.15-3.35,12.502-3.35
									c2.166,0,4.34,0.281,6.469,0.852c6.404,1.716,11.865,5.906,15.182,11.649l6.119,10.6
									c6.902,11.957,2.805,27.246-9.152,34.149l-126.348,72.951C637.279,563.104,632.963,564.24,628.611,564.24z"/>
								<path fill="#FFFFFF" d="M748.842,455.689l6.119,10.6L628.612,539.24l-6.119-10.6L748.842,455.689 M748.844,405.689
									c-8.703,0-17.334,2.272-25.002,6.699l-126.35,72.951c-23.913,13.807-32.107,44.385-18.301,68.299l6.119,10.6
									c6.629,11.485,17.551,19.866,30.36,23.298c4.257,1.141,8.608,1.704,12.94,1.704c8.703,0,17.334-2.272,25.002-6.699
									l126.35-72.951c23.912-13.807,32.105-44.385,18.301-68.299l-6.119-10.6c-6.631-11.485-17.551-19.866-30.361-23.298
									C757.527,406.252,753.176,405.689,748.844,405.689L748.844,405.689z"/>
							</g>
						</g>
						<g>
							<path fill="#1B9CE2" stroke="#FFFFFF" stroke-width="50" stroke-linejoin="round" stroke-miterlimit="10" d="
								M748.658,456.373l5.619,9.732l-125.482,72.451l-5.619-9.732L748.658,456.373 M749.025,455.007l-127.215,73.451l6.619,11.465
								l127.215-73.451L749.025,455.007L749.025,455.007z"/>
						</g>
					</g>
				</g>
			</g>
			<g id="Shape_13_">
				<g>
					<g>
						<path fill="#4285F4" d="M460.269,528.085c-16.542,0-30-13.458-30-30V434.05c0-16.542,13.458-30,30-30h75.441
							c16.542,0,30,13.458,30,30v64.035c0,16.542-13.458,30-30,30H460.269z"/>
						<path fill="#FFFFFF" d="M535.71,429.05c2.761,0,5,2.239,5,5v64.035c0,2.762-2.239,5-5,5h-75.441c-2.761,0-5-2.238-5-5V434.05
							c0-2.761,2.239-5,5-5H535.71 M535.71,379.05h-75.441c-30.327,0-55,24.673-55,55v64.035c0,30.327,24.673,55,55,55h75.441
							c30.327,0,55-24.673,55-55V434.05C590.71,403.723,566.037,379.05,535.71,379.05L535.71,379.05z"/>
					</g>
				</g>
				<g>
					<path fill="#FFFFFF" stroke="#FFFFFF" stroke-width="50" stroke-linejoin="round" stroke-miterlimit="10" d="M535.71,434.05
						v64.035h-75.441V434.05H535.71 M535.71,424.05h-75.441c-5.523,0-10,4.477-10,10v64.035c0,5.522,4.477,10,10,10h75.441
						c5.522,0,10-4.478,10-10V434.05C545.71,428.527,541.232,424.05,535.71,424.05L535.71,424.05z"/>
				</g>
			</g>
			<g id="Shape_11_">
				<g>
					<g>
						<path fill="#34A853" d="M589.119,580.55c-16.542,0-30-13.458-30-30v-52.33c0-16.542,13.458-30,30-30h56.316
							c16.543,0,30,13.458,30,30v52.33c0,16.542-13.457,30-30,30H589.119z"/>
						<path fill="#FFFFFF" d="M645.436,493.22c2.762,0,5,2.238,5,5v52.33c0,2.762-2.238,5-5,5h-56.316c-2.762,0-5-2.238-5-5v-52.33
							c0-2.762,2.238-5,5-5H645.436 M645.436,443.22h-56.316c-30.327,0-55,24.673-55,55v52.33c0,30.327,24.673,55,55,55h56.316
							c30.328,0,55-24.673,55-55v-52.33C700.436,467.893,675.764,443.22,645.436,443.22L645.436,443.22z"/>
					</g>
				</g>
				<g>
					<path fill="#FFFFFF" stroke="#FFFFFF" stroke-width="50" stroke-linejoin="round" stroke-miterlimit="10" d="M645.436,498.22
						v52.33h-56.316v-52.33H645.436 M645.436,488.22h-56.316c-5.523,0-10,4.478-10,10v52.33c0,5.522,4.477,10,10,10h56.316
						c5.523,0,10-4.478,10-10v-52.33C655.436,492.697,650.959,488.22,645.436,488.22L645.436,488.22z"/>
				</g>
			</g>
			<g id="Shape_9_">
				<g>
					<g>
						<path fill="#4285F4" d="M589.223,302.707c-16.542,0-30-13.458-30-30v-64.036c0-16.542,13.458-30,30-30h75.441
							c16.543,0,30,13.458,30,30v64.036c0,16.542-13.457,30-30,30H589.223z"/>
						<path fill="#FFFFFF" d="M664.664,203.671c2.762,0,5,2.239,5,5v64.036c0,2.761-2.238,5-5,5h-75.441c-2.762,0-5-2.239-5-5
							v-64.036c0-2.761,2.238-5,5-5H664.664 M664.664,153.671h-75.441c-30.327,0-55,24.673-55,55v64.036c0,30.327,24.673,55,55,55
							h75.441c30.328,0,55-24.673,55-55v-64.036C719.664,178.344,694.992,153.671,664.664,153.671L664.664,153.671z"/>
					</g>
				</g>
				<g>
					<path fill="#FFFFFF" stroke="#FFFFFF" stroke-width="50" stroke-linejoin="round" stroke-miterlimit="10" d="M664.664,208.671
						v64.036h-75.441v-64.036H664.664 M664.664,198.671h-75.441c-5.523,0-10,4.477-10,10v64.036c0,5.523,4.477,10,10,10h75.441
						c5.523,0,10-4.477,10-10v-64.036C674.664,203.148,670.188,198.671,664.664,198.671L664.664,198.671z"/>
				</g>
			</g>
			<g id="Shape_7_">
				<g>
					<g>
						<path fill="#34A853" d="M608.35,597.972c-16.543,0-30-13.458-30-30V515.64c0-16.542,13.457-30,30-30h56.314
							c16.543,0,30,13.458,30,30v52.332c0,16.542-13.457,30-30,30H608.35z"/>
						<path fill="#FFFFFF" d="M664.664,510.64c2.762,0,5,2.238,5,5v52.332c0,2.762-2.238,5-5,5H608.35c-2.762,0-5-2.238-5-5V515.64
							c0-2.762,2.238-5,5-5H664.664 M664.664,460.64H608.35c-30.328,0-55,24.673-55,55v52.332c0,30.327,24.672,55,55,55h56.314
							c30.328,0,55-24.673,55-55V515.64C719.664,485.312,694.992,460.64,664.664,460.64L664.664,460.64z"/>
					</g>
				</g>
				<g>
					<path fill="#FFFFFF" stroke="#FFFFFF" stroke-width="50" stroke-linejoin="round" stroke-miterlimit="10" d="M664.664,515.64
						v52.332H608.35V515.64H664.664 M664.664,505.64H608.35c-5.523,0-10,4.478-10,10v52.332c0,5.522,4.477,10,10,10h56.314
						c5.523,0,10-4.478,10-10V515.64C674.664,510.117,670.188,505.64,664.664,505.64L664.664,505.64z"/>
				</g>
			</g>
			<g id="Shape_5_">
				<g>
					<g>
						<path fill="#34A853" d="M469.832,373.296c-16.542,0-30-13.458-30-30v-61.164c0-16.542,13.458-30,30-30h56.315
							c16.543,0,30,13.458,30,30v61.164c0,16.542-13.457,30-30,30H469.832z"/>
						<path fill="#FFFFFF" d="M526.146,277.132c2.762,0,5,2.239,5,5v61.164c0,2.761-2.238,5-5,5h-56.315c-2.761,0-5-2.239-5-5
							v-61.164c0-2.761,2.239-5,5-5H526.146 M526.146,227.132h-56.315c-30.327,0-55,24.673-55,55v61.164c0,30.327,24.673,55,55,55
							h56.315c30.328,0,55-24.673,55-55v-61.164C581.146,251.805,556.475,227.132,526.146,227.132L526.146,227.132z"/>
					</g>
				</g>
				<g>
					<path fill="#FFFFFF" stroke="#FFFFFF" stroke-width="50" stroke-linejoin="round" stroke-miterlimit="10" d="M526.146,282.132
						v61.164h-56.315v-61.164H526.146 M526.146,272.132h-56.315c-5.523,0-10,4.477-10,10v61.164c0,5.523,4.477,10,10,10h56.315
						c5.523,0,10-4.477,10-10v-61.164C536.146,276.609,531.67,272.132,526.146,272.132L526.146,272.132z"/>
				</g>
			</g>
			<g id="Shape_3_">
				<g>
					<g>
						<path fill="#FF9800" d="M723.709,370.968c-16.541,0-30-13.458-30-30v-57.881c0-16.542,13.459-30,30-30h59.814
							c16.543,0,30,13.458,30,30v57.881c0,16.542-13.457,30-30,30H723.709z"/>
						<path fill="#FFFFFF" d="M783.523,278.086c2.762,0,5,2.239,5,5v57.881c0,2.761-2.238,5-5,5h-59.814c-2.762,0-5-2.239-5-5
							v-57.881c0-2.761,2.238-5,5-5H783.523 M783.523,228.086h-59.814c-30.326,0-55,24.673-55,55v57.881c0,30.327,24.674,55,55,55
							h59.814c30.328,0,55-24.673,55-55v-57.881C838.523,252.759,813.852,228.086,783.523,228.086L783.523,228.086z"/>
					</g>
				</g>
				<g>
					<path fill="#FFFFFF" stroke="#FFFFFF" stroke-width="50" stroke-linejoin="round" stroke-miterlimit="10" d="M783.523,283.086
						v57.881h-59.814v-57.881H783.523 M783.523,273.086h-59.814c-5.521,0-10,4.477-10,10v57.881c0,5.523,4.479,10,10,10h59.814
						c5.523,0,10-4.477,10-10v-57.881C793.523,277.563,789.047,273.086,783.523,273.086L783.523,273.086z"/>
				</g>
			</g>
			<g id="Shape_1_">
				<g>
					<g>
						<path fill="#FF9800" d="M723.709,521.382c-16.541,0-30-13.458-30-30v-57.879c0-16.542,13.459-30,30-30h59.814
							c16.543,0,30,13.458,30,30v57.879c0,16.542-13.457,30-30,30H723.709z"/>
						<path fill="#FFFFFF" d="M783.523,428.502c2.762,0,5,2.239,5,5v57.879c0,2.762-2.238,5-5,5h-59.814c-2.762,0-5-2.238-5-5
							v-57.879c0-2.761,2.238-5,5-5H783.523 M783.523,378.502h-59.814c-30.326,0-55,24.673-55,55v57.879c0,30.327,24.674,55,55,55
							h59.814c30.328,0,55-24.673,55-55v-57.879C838.523,403.175,813.852,378.502,783.523,378.502L783.523,378.502z"/>
					</g>
				</g>
				<g>
					<path fill="#FFFFFF" stroke="#FFFFFF" stroke-width="50" stroke-linejoin="round" stroke-miterlimit="10" d="M783.523,433.502
						v57.879h-59.814v-57.879H783.523 M783.523,423.502h-59.814c-5.521,0-10,4.477-10,10v57.879c0,5.522,4.479,10,10,10h59.814
						c5.523,0,10-4.478,10-10v-57.879C793.523,427.979,789.047,423.502,783.523,423.502L783.523,423.502z"/>
				</g>
			</g>
		</g>
	</g>
</g>
<g id="rejoiner.io" display="none">
	<text transform="matrix(1 0 0 1 182.79 1017.0088)" display="inline" fill="#1B9CE2" font-family="'Sarala-Bold'" font-size="190">rejoiner.io</text>
</g>
<g id="BACKGROUND">
	
		<polygon id="Shape_67_" fill="#1B9CE2" stroke="#1B9CE2" stroke-width="10" stroke-linejoin="round" stroke-miterlimit="10" points="
		495,714.349 806.172,714.349 806.172,963 495,963 	"/>
	
		<polygon id="Shape_65_" fill="#4285F4" stroke="#FFFFFF" stroke-width="4" stroke-linejoin="round" stroke-miterlimit="10" points="
		511,822.149 644.412,822.149 644.412,937 511,937 	"/>
	
		<polygon id="Shape_63_" fill="#4285F4" stroke="#FFFFFF" stroke-width="4" stroke-linejoin="round" stroke-miterlimit="10" points="
		658.789,822.149 792.203,822.149 792.203,937 658.789,937 	"/>
	
		<polygon id="Shape_62_" fill="#1B9CE2" stroke="#1B9CE2" stroke-width="10" stroke-linejoin="round" stroke-miterlimit="10" points="
		139.839,714.349 469.839,714.349 469.839,923 139.839,923 	"/>
	
		<polygon id="Shape_60_" fill="#34A853" stroke="#FFFFFF" stroke-width="4" stroke-linejoin="round" stroke-miterlimit="10" points="
		154.591,818.052 244.989,818.052 244.989,901.47 154.591,901.47 	"/>
	
		<polygon id="Shape_33_" fill="#34A853" stroke="#FFFFFF" stroke-width="4" stroke-linejoin="round" stroke-miterlimit="10" points="
		258.191,818.052 348.589,818.052 348.589,901.47 258.191,901.47 	"/>
	
		<polygon id="Shape_31_" fill="#34A853" stroke="#FFFFFF" stroke-width="4" stroke-linejoin="round" stroke-miterlimit="10" points="
		361.79,818.052 452.188,818.052 452.188,901.47 361.79,901.47 	"/>
	
		<polygon id="Shape_30_" fill="#1B9CE2" stroke="#1B9CE2" stroke-width="10" stroke-linejoin="round" stroke-miterlimit="10" points="
		831.275,714.349 1177,714.349 1177,937 831.275,937 	"/>
	
		<polygon id="Shape_28_" fill="#FF9800" stroke="#FFFFFF" stroke-width="4" stroke-linejoin="round" stroke-miterlimit="10" points="
		847.537,822.956 989.347,822.956 989.347,915.263 847.537,915.263 	"/>
	
		<polygon id="Shape_26_" fill="#FF9800" stroke="#FFFFFF" stroke-width="4" stroke-linejoin="round" stroke-miterlimit="10" points="
		1006.551,822.956 1148.36,822.956 1148.36,915.263 1006.551,915.263 	"/>
	<g id="Shape_24_">
		<path fill="#1B9CE2" d="M151,603.038c-5.523,0-10-4.478-10-10V166.604c0-5.523,4.477-10,10-10h758.172c5.522,0,10,4.477,10,10
			v426.434c0,5.522-4.478,10-10,10H151z"/>
		<path fill="#1B9CE2" d="M909.172,166.604v426.434H151V166.604H909.172 M909.172,146.604H151c-11.046,0-20,8.954-20,20v426.434
			c0,11.046,8.954,20,20,20h758.172c11.046,0,20-8.954,20-20V166.604C929.172,155.558,920.218,146.604,909.172,146.604
			L909.172,146.604z"/>
	</g>
	<g id="Shape_21_">
		<path fill="#1B9CE2" d="M995.36,663.69v51.659h-40V683.69H687.57v31.659h-40V683.69H351.08v31.659h-40V663.69
			c0-11.04,8.96-20,20-20H565.3v-31.65h40v31.65H975.36C986.4,643.69,995.36,652.65,995.36,663.69z"/>
	</g>
	<rect x="171" y="193" fill="none" width="280" height="400.038"/>
	<text transform="matrix(1 0 0 1 171 247)"><tspan x="0" y="0" fill="#FFFFFF" font-family="'Sarala-Regular'" font-size="72">Rejoiner</tspan><tspan x="0" y="86.4" fill="#FFFFFF" font-family="'Sarala-Regular'" font-size="48">Uniform </tspan><tspan x="0" y="144" fill="#FFFFFF" font-family="'Sarala-Regular'" font-size="48">GraphQL API </tspan><tspan x="0" y="201.6" fill="#FFFFFF" font-family="'Sarala-Regular'" font-size="48">served over </tspan><tspan x="0" y="259.2" fill="#FFFFFF" font-family="'Sarala-Regular'" font-size="48">HTTP and </tspan><tspan x="0" y="316.8" fill="#FFFFFF" font-family="'Sarala-Regular'" font-size="48">gRPC</tspan></text>
</g>
<g id="LOGO">
	<g>
		<g>
			<g>
				<g>
					
						<rect x="486.917" y="334.693" transform="matrix(-0.5 0.866 -0.866 -0.5 1244.9307 -35.2067)" fill="#FFFFFF" width="291.423" height="14.155"/>
					<path fill="#1B9CE2" d="M699.541,212.726l11.391,6.578L565.718,470.814l-11.394-6.578L699.541,212.726 M699.174,211.359
						L552.959,464.603l13.125,7.578l146.215-253.243L699.174,211.359L699.174,211.359z"/>
				</g>
			</g>
		</g>
		<g>
			<g>
				<g>
					<rect x="550.453" y="444.872" fill="#FFFFFF" width="291.43" height="14.156"/>
					<path fill="#1B9CE2" d="M841.383,445.372v13.156h-290.43v-13.156H841.383 M842.383,444.372h-292.43v15.156h292.43V444.372
						L842.383,444.372z"/>
				</g>
			</g>
		</g>
		<g>
			<g>
				<g>
					
						<rect x="625.586" y="404.599" transform="matrix(-0.4999 0.8661 -0.8661 -0.4999 1372.0719 184.8738)" fill="#FFFFFF" width="14.156" height="167.899"/>
					<path fill="#1B9CE2" d="M563.684,441.127l144.537,83.451l-6.578,11.393L557.105,452.52L563.684,441.127 M563.317,439.761
						l-7.577,13.125l146.27,84.451l7.578-13.125L563.317,439.761L563.317,439.761z"/>
				</g>
			</g>
		</g>
		<g>
			<g>
				<g>
					
						<rect x="752.651" y="184.498" transform="matrix(-0.5 0.866 -0.866 -0.5 1372.0994 -255.2435)" fill="#FFFFFF" width="14.155" height="167.899"/>
					<path fill="#1B9CE2" d="M690.748,221.025l144.537,83.451l-6.578,11.393L684.17,232.417L690.748,221.025 M690.383,219.659
						l-7.578,13.125l146.27,84.452l7.576-13.125L690.383,219.659L690.383,219.659z"/>
				</g>
			</g>
		</g>
		<g>
			<g>
				<g>
					
						<rect x="548.754" y="261.312" transform="matrix(-0.866 0.5 -0.5 -0.866 1314.8347 184.4613)" fill="#FFFFFF" width="167.899" height="14.155"/>
					<path fill="#1B9CE2" d="M701.684,220.968l6.578,11.393l-144.537,83.451l-6.578-11.393L701.684,220.968 M702.049,219.602
						L555.78,304.053l7.577,13.125l146.27-84.451L702.049,219.602L702.049,219.602z"/>
				</g>
			</g>
		</g>
		<g>
			<g>
				<g>
					
						<rect x="752.755" y="196.062" transform="matrix(-0.866 0.5 -0.5 -0.866 1588.7496 257.8122)" fill="#FFFFFF" width="14.154" height="291.424"/>
					<path fill="#1B9CE2" d="M692.92,212.729L838.135,464.24l-11.393,6.578L681.529,219.306L692.92,212.729 M693.287,211.362
						l-13.125,7.578l146.215,253.245l13.125-7.578L693.287,211.362L693.287,211.362z"/>
				</g>
			</g>
		</g>
		<g>
			<g>
				<g>
					<rect x="562.048" y="294.503" fill="#FFFFFF" width="14.156" height="167.902"/>
					<path fill="#1B9CE2" d="M575.704,295.003v166.902h-13.156V295.003H575.704 M576.704,294.003h-15.156v168.902h15.156V294.003
						L576.704,294.003z"/>
				</g>
			</g>
		</g>
		<g>
			<g>
				<g>
					<rect x="816.223" y="294.503" fill="#FFFFFF" width="14.156" height="167.902"/>
					<path fill="#1B9CE2" d="M829.879,295.003v166.902h-13.156V295.003H829.879 M830.879,294.003h-15.156v168.902h15.156V294.003
						L830.879,294.003z"/>
				</g>
			</g>
		</g>
		<g>
			<g>
				<g>
					
						<rect x="686.779" y="482.345" transform="matrix(-0.866 0.5 -0.5 -0.866 1661.9033 531.6042)" fill="#FFFFFF" width="145.897" height="12.239"/>
					<path fill="#1B9CE2" d="M819.658,447.373l5.619,9.732l-125.482,72.451l-5.619-9.732L819.658,447.373 M820.025,446.007
						l-127.215,73.451l6.619,11.465l127.215-73.451L820.025,446.007L820.025,446.007z"/>
				</g>
			</g>
		</g>
		<g id="Shape_56_">
			<path fill="#4285F4" d="M531.269,494.085c-2.761,0-5-2.238-5-5V425.05c0-2.761,2.239-5,5-5h75.441c2.761,0,5,2.239,5,5v64.035
				c0,2.762-2.239,5-5,5H531.269z"/>
			<path fill="#FFFFFF" d="M606.71,425.05v64.035h-75.441V425.05H606.71 M606.71,415.05h-75.441c-5.522,0-10,4.477-10,10v64.035
				c0,5.522,4.478,10,10,10h75.441c5.522,0,10-4.478,10-10V425.05C616.71,419.527,612.232,415.05,606.71,415.05L606.71,415.05z"/>
		</g>
		<g id="Shape_54_">
			<path fill="#34A853" d="M660.119,546.55c-2.762,0-5-2.238-5-5v-52.33c0-2.762,2.238-5,5-5h56.316c2.762,0,5,2.238,5,5v52.33
				c0,2.762-2.238,5-5,5H660.119z"/>
			<path fill="#FFFFFF" d="M716.436,489.22v52.33h-56.316v-52.33H716.436 M716.436,479.22h-56.316c-5.523,0-10,4.478-10,10v52.33
				c0,5.522,4.477,10,10,10h56.316c5.523,0,10-4.478,10-10v-52.33C726.436,483.697,721.959,479.22,716.436,479.22L716.436,479.22z"
				/>
		</g>
		<g id="Shape_52_">
			<path fill="#4285F4" d="M660.223,268.707c-2.762,0-5-2.239-5-5v-64.036c0-2.761,2.238-5,5-5h75.441c2.762,0,5,2.239,5,5v64.036
				c0,2.761-2.238,5-5,5H660.223z"/>
			<path fill="#FFFFFF" d="M735.664,199.671v64.036h-75.441v-64.036H735.664 M735.664,189.671h-75.441c-5.523,0-10,4.477-10,10
				v64.036c0,5.523,4.477,10,10,10h75.441c5.523,0,10-4.477,10-10v-64.036C745.664,194.148,741.188,189.671,735.664,189.671
				L735.664,189.671z"/>
		</g>
		<g id="Shape_41_">
			<path fill="#34A853" d="M679.35,563.972c-2.762,0-5-2.238-5-5V506.64c0-2.762,2.238-5,5-5h56.314c2.762,0,5,2.238,5,5v52.332
				c0,2.762-2.238,5-5,5H679.35z"/>
			<path fill="#FFFFFF" d="M735.664,506.64v52.332H679.35V506.64H735.664 M735.664,496.64H679.35c-5.523,0-10,4.478-10,10v52.332
				c0,5.522,4.477,10,10,10h56.314c5.523,0,10-4.478,10-10V506.64C745.664,501.117,741.188,496.64,735.664,496.64L735.664,496.64z"
				/>
		</g>
		<g id="Shape_39_">
			<path fill="#34A853" d="M540.832,339.296c-2.762,0-5-2.239-5-5v-61.164c0-2.761,2.238-5,5-5h56.314c2.762,0,5,2.239,5,5v61.164
				c0,2.761-2.238,5-5,5H540.832z"/>
			<path fill="#FFFFFF" d="M597.146,273.132v61.164h-56.314v-61.164H597.146 M597.146,263.132h-56.314c-5.523,0-10,4.477-10,10
				v61.164c0,5.523,4.477,10,10,10h56.314c5.523,0,10-4.477,10-10v-61.164C607.146,267.609,602.67,263.132,597.146,263.132
				L597.146,263.132z"/>
		</g>
		<g id="Shape_37_">
			<path fill="#FF9800" d="M794.709,336.968c-2.762,0-5-2.239-5-5v-57.881c0-2.761,2.238-5,5-5h59.814c2.762,0,5,2.239,5,5v57.881
				c0,2.761-2.238,5-5,5H794.709z"/>
			<path fill="#FFFFFF" d="M854.523,274.086v57.881h-59.814v-57.881H854.523 M854.523,264.086h-59.814c-5.521,0-10,4.477-10,10
				v57.881c0,5.523,4.479,10,10,10h59.814c5.523,0,10-4.477,10-10v-57.881C864.523,268.563,860.047,264.086,854.523,264.086
				L854.523,264.086z"/>
		</g>
		<g id="Shape_35_">
			<path fill="#FF9800" d="M794.709,487.382c-2.762,0-5-2.238-5-5v-57.879c0-2.761,2.238-5,5-5h59.814c2.762,0,5,2.239,5,5v57.879
				c0,2.762-2.238,5-5,5H794.709z"/>
			<path fill="#FFFFFF" d="M854.523,424.502v57.879h-59.814v-57.879H854.523 M854.523,414.502h-59.814c-5.521,0-10,4.477-10,10
				v57.879c0,5.522,4.479,10,10,10h59.814c5.523,0,10-4.478,10-10v-57.879C864.523,418.979,860.047,414.502,854.523,414.502
				L854.523,414.502z"/>
		</g>
	</g>
	<rect x="152" y="784" fill="none" width="306" height="50"/>
	<text transform="matrix(1 0 0 1 152 802)" fill="#FFFFFF" font-family="'Sarala-Regular'" font-size="24">gRPC Microservice</text>
	<rect x="152" y="734" fill="none" width="306" height="50"/>
	<text transform="matrix(1 0 0 1 152 761)" fill="#FFFFFF" font-family="'Sarala-Regular'" font-size="36">Java</text>
	<rect x="501.162" y="784" fill="none" width="306" height="50"/>
	<text transform="matrix(1 0 0 1 501.1621 802)" fill="#FFFFFF" font-family="'Sarala-Regular'" font-size="24">gRPC Microservice</text>
	<rect x="501.162" y="737" fill="none" width="306" height="50"/>
	<text transform="matrix(1 0 0 1 501.1621 764)" fill="#FFFFFF" font-family="'Sarala-Regular'" font-size="36">Go</text>
	<rect x="842.36" y="784" fill="none" width="306" height="50"/>
	<text transform="matrix(1 0 0 1 842.3604 802)" fill="#FFFFFF" font-family="'Sarala-Regular'" font-size="24">gRPC Microservice</text>
	<rect x="842.36" y="737" fill="none" width="306" height="50"/>
	<text transform="matrix(1 0 0 1 842.3604 764)" fill="#FFFFFF" font-family="'Sarala-Regular'" font-size="36">Python</text>
</g>
</svg>
