<?xml version="1.0" encoding="utf-8"?>
<!DOCTYPE svg PUBLIC "-//W3C//DTD SVG 1.1//EN" "http://www.w3.org/Graphics/SVG/1.1/DTD/svg11.dtd">
<svg version="1.1" id="Layer_1" xmlns="http://www.w3.org/2000/svg" xmlns:xlink="http://www.w3.org/1999/xlink" x="0px" y="0px"
	 width="205.261px" height="185.657px" viewBox="0 0 205.261 185.657" enable-background="new 0 0 205.261 185.657"
	 xml:space="preserve">
<g id="Page-1">
	<g id="Rejoiner">
		<g id="Logo">
			<path id="Shape" fill="none" stroke="#FFFFFF" stroke-width="10" stroke-miterlimit="10" d="M28.543,66.995v36.158"/>
			<path id="Shape_1_" fill="none" stroke="#FFFFFF" stroke-width="10" stroke-miterlimit="10" d="M46.118,50.665l35.118-25.669"/>
			<path id="Shape_2_" fill="none" stroke="#FFFFFF" stroke-width="10" stroke-miterlimit="10" d="M128.324,24.984l36.787,24.976"/>
			<path id="Shape_3_" fill="none" stroke="#FFFFFF" stroke-width="10" stroke-miterlimit="10" d="M182.686,68.023l-45.575,79.969"
				/>
			<path id="Shape_4_" fill="none" stroke="#FFFFFF" stroke-width="10" stroke-miterlimit="10" d="M104.781,44.968l-52.693,78.173"
				/>
			<path id="Shape_5_" fill="none" stroke="#FFFFFF" stroke-width="10" stroke-miterlimit="10" d="M182.686,68.023l-1.323,30.614"/>
			<path id="Shape_6_" fill="none" stroke="#FFFFFF" stroke-width="10" stroke-miterlimit="10" d="M181.366,134.748l-26.677,29.575"
				/>
			<path id="Shape_7_" fill="none" stroke="#FFFFFF" stroke-width="10" stroke-miterlimit="10" d="M85.316,164.245l34.236,0.094"/>
			<path id="Shape_8_" fill="none" stroke="#FFFFFF" stroke-width="10" stroke-miterlimit="10" d="M28.543,143.12l21.638,21.135"/>
			<path id="Shape_9_" fill="none" stroke="#FFFFFF" stroke-width="10" stroke-miterlimit="10" d="M46.118,51.665l117.669,66.016"/>
			<polygon id="Shape_10_" fill="#557EBF" stroke="#FFFFFF" stroke-width="10" stroke-miterlimit="10" points="5,103.152
				52.087,103.152 52.087,143.12 5,143.12 			"/>
			<polygon id="Shape_11_" fill="#36A852" stroke="#FFFFFF" stroke-width="10" stroke-miterlimit="10" points="50.166,147.914
				85.316,147.914 85.316,180.575 50.166,180.575 			"/>
			<polygon id="Shape_12_" fill="#557EBF" stroke="#FFFFFF" stroke-width="10" stroke-miterlimit="10" points="81.237,5 128.324,5
				128.324,44.968 81.237,44.968 			"/>
			<polygon id="Shape_13_" fill="#36A852" stroke="#FFFFFF" stroke-width="10" stroke-miterlimit="10" points="119.542,147.995
				154.691,147.995 154.691,180.657 119.542,180.657 			"/>
			<polygon id="Shape_14_" fill="#36A852" stroke="#FFFFFF" stroke-width="10" stroke-miterlimit="10" points="10.969,34.334
				46.118,34.334 46.118,66.995 10.969,66.995 			"/>
			<polygon id="Shape_15_" fill="#F8981D" stroke="#FFFFFF" stroke-width="10" stroke-miterlimit="10" points="165.111,31.897
				200.261,31.897 200.261,68.023 165.111,68.023 			"/>
			<polygon id="Shape_16_" fill="#F8981D" stroke="#FFFFFF" stroke-width="10" stroke-miterlimit="10" points="163.791,99.622
				198.941,99.622 198.941,135.748 163.791,135.748 			"/>
		</g>
	</g>
</g>
</svg>
