<?xml version="1.0" encoding="UTF-8"?>
<svg width="960px" height="540px" viewBox="0 0 960 540" version="1.1" xmlns="http://www.w3.org/2000/svg" xmlns:xlink="http://www.w3.org/1999/xlink">
    <title>Rejoiner</title>
    <defs>
        <polygon id="path-1" points="0 0 960 0 960 540 0 540"></polygon>
    </defs>
    <g id="Page-1" stroke="none" stroke-width="1" fill="none" fill-rule="evenodd">
        <g id="Untitled-presentation">
            <mask id="mask-2" fill="white">
                <use xlink:href="#path-1"></use>
            </mask>
            <g id="Shape"></g>
            <g id="Group" mask="url(#mask-2)">
                <g transform="translate(-1.000000, 1.000000)" id="Shape">
                    <polygon stroke="none" fill-opacity="0" fill="#000000" fill-rule="evenodd" points="0 0 960 0 960 540 0 540"></polygon>
                    <path d="M25.704622,517.3655 L25.704622,515.435385 L32.1676137,515.435385 C32.2335889,515.775351 32.2719647,516.180625 32.2719647,516.618918 C32.2719647,518.066367 31.8754327,519.859152 30.6003377,521.134238 C29.3595788,522.426841 27.7734525,523.116233 25.6709611,523.116233 C21.7756611,523.116904 18.5010791,519.945334 18.5010791,516.05001 C18.5010791,512.154746 21.7756611,508.983817 25.6709611,508.983817 C27.8252904,508.983817 29.3595788,509.828055 30.5141656,510.931479 L29.1528985,512.292746 C28.3255002,511.517173 27.2052476,510.913962 25.6716345,510.913962 C22.8279169,510.913962 20.6042441,513.206321 20.6042441,516.05001 C20.6042441,518.89376 22.827917,521.186057 25.6716345,521.186057 C27.5156058,521.186057 28.56719,520.444846 29.2390707,519.772971 C29.7870787,519.225669 30.1472567,518.439963 30.2872866,517.3655 L25.7046221,517.3655 L25.704622,517.3655 Z" stroke="none" fill="#666666" fill-rule="evenodd"></path>
                    <path d="M42.187946,518.578 C42.187946,521.197507 40.1372906,523.128354 37.6207654,523.128354 C35.1042364,523.128354 33.053581,521.198178 33.053581,518.578 C33.053581,515.940915 35.1042364,514.027646 37.6207654,514.027646 C40.1372907,514.027646 42.187946,515.940915 42.187946,518.578 Z M40.1891286,518.578 C40.1891286,516.940671 39.0002095,515.820432 37.6214368,515.820432 C36.2426641,515.820432 35.0530698,516.940671 35.0530698,518.578 C35.0530698,520.197751 36.2419927,521.335507 37.6214368,521.335507 C38.9995343,521.335507 40.1891286,520.197751 40.1891286,518.578 Z" stroke="none" fill="#666666" fill-rule="evenodd"></path>
                    <path d="M52.151726,518.578 C52.151726,521.197507 50.1010706,523.128354 47.5845454,523.128354 C45.0680164,523.128354 43.017361,521.198178 43.017361,518.578 C43.017361,515.940915 45.0680164,514.027646 47.5845454,514.027646 C50.1010707,514.027646 52.151726,515.940915 52.151726,518.578 Z M50.1529086,518.578 C50.1529086,516.940671 48.9639895,515.820432 47.5852168,515.820432 C46.2064441,515.820432 45.0168498,516.940671 45.0168498,518.578 C45.0168498,520.197751 46.2057727,521.335507 47.5852168,521.335507 C48.9633143,521.335507 50.1529086,520.197751 50.1529086,518.578 Z" stroke="none" fill="#666666" fill-rule="evenodd"></path>
                    <path d="M61.70214,514.30365 L61.70214,522.473267 C61.70214,525.834046 59.7201568,527.21283 57.3759758,527.21283 C55.1698067,527.21283 53.8428718,525.730347 53.3426658,524.523926 L55.0836326,523.800232 C55.3939926,524.541443 56.1520454,525.420655 57.3759757,525.420655 C58.8752547,525.420655 59.8063307,524.489624 59.8063307,522.749329 L59.8063307,522.094239 L59.7376623,522.094239 C59.2892904,522.64563 58.4275579,523.128357 57.3416395,523.128357 C55.066802,523.128357 52.9811392,521.146363 52.9811392,518.595459 C52.9811392,516.0271 55.066802,514.028321 57.3416395,514.028321 C58.4275579,514.028321 59.2892904,514.510987 59.7376623,515.045533 L59.8063307,515.045533 L59.8063307,514.30365 L61.7021399,514.30365 L61.70214,514.30365 Z M59.9443428,518.595459 C59.9443428,516.992554 58.87593,515.820435 57.5139878,515.820435 C56.1352151,515.820435 54.9806283,516.992554 54.9806283,518.595459 C54.9806283,520.180908 56.1352151,521.336182 57.5139878,521.336182 C58.8752549,521.33551 59.9443428,520.180908 59.9443428,518.595459 Z" stroke="none" fill="#666666" fill-rule="evenodd"></path>
                    <polygon stroke="none" fill="#666666" fill-rule="evenodd" points="65.08848 509.52237 65.08848 522.852296 63.088995 522.852296 63.088995 509.52237"></polygon>
                    <path d="M72.80907,520.0773 L74.360187,521.111358 C73.8599734,521.852569 72.6535525,523.127715 70.568561,523.127715 C67.9833636,523.127715 66.0532183,521.128203 66.0532183,518.577361 C66.0532183,515.87094 68.000873,514.027007 70.3450503,514.027007 C72.7060656,514.027007 73.8613238,515.905974 74.2403521,516.922515 L74.4470324,517.439605 L68.3630634,519.956084 C68.8282657,520.869658 69.5526615,521.334868 70.5692325,521.334868 C71.5851398,521.33554 72.2920261,520.836028 72.8090701,520.0773 L72.80907,520.0773 Z M68.034534,518.439971 L72.102176,516.750884 C71.8779939,516.181975 71.2061112,515.78543 70.4130433,515.78543 C69.3964723,515.786101 67.9833634,516.682219 68.0345338,518.439971 L68.034534,518.439971 Z" stroke="none" fill="#666666" fill-rule="evenodd"></path>
                    <polygon stroke="none" fill-opacity="0" fill="#000000" fill-rule="evenodd" points="533.92914 503.54068 907.78742 503.54068 907.78742 532.611572 533.92914 532.611572"></polygon>
                    <polygon stroke="none" fill="#434343" fill-rule="evenodd" points="493.67978 24.38845 929.08136 24.38845 929.08136 491.28609 493.67978 491.28609"></polygon>
                    <path d="M502.64853,51.30845 L507.882905,37.7147 L509.820405,37.7147 L515.382936,51.30845 L513.336061,51.30845 L511.74228,47.18345 L506.05478,47.18345 L504.570405,51.30845 L502.64853,51.30845 L502.64853,51.30845 Z M506.570405,45.730325 L511.17978,45.730325 L509.77353,41.949075 C509.33603,40.8136583 509.013113,39.8761583 508.80478,39.136575 C508.627697,40.011575 508.382905,40.8761583 508.070405,41.730325 L506.570405,45.730325 Z M516.592103,51.30845 L516.592103,37.7147 L521.717103,37.7147 C522.623353,37.7147 523.316061,37.7563667 523.795228,37.8397 C524.461895,37.9542833 525.019186,38.167825 525.467103,38.480325 C525.91502,38.792825 526.274395,39.230325 526.545228,39.792825 C526.826478,40.355325 526.967103,40.9699083 526.967103,41.636575 C526.967103,42.792825 526.597311,43.7719917 525.857728,44.574075 C525.128561,45.3761583 523.800436,45.7772 521.873353,45.7772 L518.388978,45.7772 L518.388978,51.30845 L516.592103,51.30845 Z M518.388978,44.167825 L521.904603,44.167825 C523.07127,44.167825 523.894186,43.9542833 524.373353,43.5272 C524.862936,43.0897 525.107728,42.480325 525.107728,41.699075 C525.107728,41.1261583 524.961895,40.636575 524.670228,40.230325 C524.388978,39.824075 524.013978,39.55845 523.545228,39.43345 C523.243145,39.3501167 522.685853,39.30845 521.873353,39.30845 L518.388978,39.30845 L518.388978,44.167825 Z M529.332581,51.30845 L529.332581,37.7147 L531.145081,37.7147 L531.145081,51.30845 L529.332581,51.30845 Z M547.496033,49.699075 L547.496033,51.30845 L538.511658,51.30845 C538.501242,50.9022 538.563742,50.5167833 538.699158,50.1522 C538.928325,49.5376167 539.292908,48.93345 539.792908,48.3397 C540.303325,47.74595 541.032492,47.05845 541.980408,46.2772 C543.459575,45.0688667 544.459575,44.1105333 544.980408,43.4022 C545.501242,42.6938667 545.761658,42.0219917 545.761658,41.386575 C545.761658,40.730325 545.522075,40.1730333 545.042908,39.7147 C544.574158,39.2563667 543.959575,39.0272 543.199158,39.0272 C542.397075,39.0272 541.751242,39.2719917 541.261658,39.761575 C540.782492,40.2407417 540.542908,40.9074083 540.542908,41.761575 L538.824158,41.5897 C538.938742,40.30845 539.38145,39.3344917 540.152283,38.667825 C540.923117,37.9907417 541.954367,37.6522 543.246033,37.6522 C544.548117,37.6522 545.579367,38.0167833 546.339783,38.74595 C547.1002,39.4647 547.480408,40.3605333 547.480408,41.43345 C547.480408,41.9751167 547.365825,42.511575 547.136658,43.042825 C546.917908,43.5636583 546.548117,44.1157417 546.027283,44.699075 C545.516867,45.2719917 544.6627,46.0688667 543.464783,47.0897 C542.464783,47.93345 541.81895,48.5063667 541.527283,48.80845 C541.246033,49.1001167 541.011658,49.3969917 540.824158,49.699075 L547.496033,49.699075 Z" stroke="none" fill="#FFFFFF" fill-rule="nonzero"></path>
                    <polygon stroke="none" fill="#434343" fill-rule="evenodd" points="44.805775 36.041996 424.112845 36.041996 424.112845 502.939636 44.805775 502.939636"></polygon>
                    <path d="M53.774525,62.961994 L59.0089,49.368244 L60.9464,49.368244 L66.508896,62.961994 L64.462021,62.961994 L62.8682748,58.836994 L57.1807748,58.836994 L55.6963998,62.961994 L53.7745248,62.961994 L53.774525,62.961994 Z M57.6964,57.383869 L62.305775,57.383869 L60.899525,53.602619 C60.462025,52.4672023 60.1391083,51.5297023 59.930775,50.790119 C59.7536917,51.665119 59.5089,52.5297023 59.1964,53.383869 L57.6964,57.383869 Z M67.718094,62.961994 L67.718094,49.368244 L72.843094,49.368244 C73.749344,49.368244 74.4420523,49.4099107 74.921219,49.493244 C75.5878857,49.6078273 76.1451773,49.821369 76.593094,50.133869 C77.0410107,50.446369 77.4003857,50.883869 77.671219,51.446369 C77.952469,52.008869 78.093094,52.6234523 78.093094,53.290119 C78.093094,54.446369 77.7233023,55.4255357 76.983719,56.227619 C76.2545523,57.0297023 74.9264273,57.430744 72.999344,57.430744 L69.514969,57.430744 L69.514969,62.961994 L67.718094,62.961994 Z M69.514969,55.821369 L73.030594,55.821369 C74.1972607,55.821369 75.0201773,55.6078273 75.499344,55.180744 C75.9889273,54.743244 76.233719,54.133869 76.233719,53.352619 C76.233719,52.7797023 76.0878857,52.290119 75.796219,51.883869 C75.514969,51.477619 75.139969,51.211994 74.671219,51.086994 C74.3691357,51.0036607 73.811844,50.961994 72.999344,50.961994 L69.514969,50.961994 L69.514969,55.821369 Z M80.458542,62.961994 L80.458542,49.368244 L82.271042,49.368244 L82.271042,62.961994 L80.458542,62.961994 Z M96.13765,62.961994 L94.465775,62.961994 L94.465775,52.321369 C94.0699417,52.7067857 93.5439,53.0922023 92.88765,53.477619 C92.2314,53.852619 91.6428583,54.1390773 91.122025,54.336994 L91.122025,52.711994 C92.059525,52.274494 92.8772333,51.743244 93.57515,51.118244 C94.2730667,50.493244 94.7678583,49.8890773 95.059525,49.305744 L96.13765,49.305744 L96.13765,62.961994 Z" stroke="none" fill="#FFFFFF" fill-rule="nonzero"></path>
                    <polygon stroke="none" fill="#4285F4" fill-rule="evenodd" points="515.63257 142.71916 656.51447 142.71916 656.51447 275.41208 515.63257 275.41208"></polygon>
                    <path d="M529.07007,204.98561 L529.07007,193.688735 L525.03882,193.688735 L525.03882,191.39186 L535.85132,191.39186 L535.85132,193.688735 L531.82007,193.688735 L531.82007,204.98561 L529.07007,204.98561 Z M536.153505,195.126235 L538.934755,195.126235 L541.29413,202.126235 L543.591005,195.126235 L546.29413,195.126235 L542.809755,204.61061 L542.184755,206.32936 C541.955588,206.902277 541.736838,207.339777 541.528505,207.64186 C541.330588,207.95436 541.096213,208.20436 540.82538,208.39186 C540.554547,208.57936 540.221213,208.725193 539.82538,208.82936 C539.429547,208.933527 538.986838,208.98561 538.497255,208.98561 C537.997255,208.98561 537.507672,208.933527 537.028505,208.82936 L536.79413,206.782485 C537.20038,206.865818 537.564963,206.907485 537.88788,206.907485 C538.502463,206.907485 538.95038,206.730402 539.23163,206.376235 C539.523297,206.022068 539.747255,205.568943 539.903505,205.01686 L536.153505,195.126235 Z M547.701112,195.126235 L550.122987,195.126235 L550.122987,196.57936 C550.435487,196.089777 550.86257,195.688735 551.404237,195.376235 C551.945904,195.063735 552.544862,194.907485 553.201112,194.907485 C554.336529,194.907485 555.305279,195.355402 556.107362,196.251235 C556.909445,197.147068 557.310487,198.397068 557.310487,200.001235 C557.310487,201.647068 556.904237,202.928318 556.091737,203.844985 C555.289654,204.751235 554.315695,205.20436 553.169862,205.20436 C552.628195,205.20436 552.133404,205.100193 551.685487,204.89186 C551.247987,204.67311 550.784445,204.29811 550.294862,203.76686 L550.294862,208.73561 L547.701112,208.73561 L547.701112,195.126235 Z M550.279237,199.89186 C550.279237,200.996027 550.497987,201.813735 550.935487,202.344985 C551.372987,202.876235 551.904237,203.14186 552.529237,203.14186 C553.14382,203.14186 553.649029,202.902277 554.044862,202.42311 C554.451112,201.933527 554.654237,201.131443 554.654237,200.01686 C554.654237,198.98561 554.445904,198.219985 554.029237,197.719985 C553.61257,197.219985 553.102154,196.969985 552.497987,196.969985 C551.852154,196.969985 551.320904,197.214777 550.904237,197.70436 C550.48757,198.193943 550.279237,198.92311 550.279237,199.89186 Z M564.862733,201.844985 L567.472108,202.282485 C567.138775,203.240818 566.607525,203.969985 565.878358,204.469985 C565.159608,204.959568 564.258566,205.20436 563.175233,205.20436 C561.4669,205.20436 560.201275,204.647068 559.378358,203.532485 C558.732525,202.636652 558.409608,201.501235 558.409608,200.126235 C558.409608,198.501235 558.831483,197.225193 559.675233,196.29811 C560.5294,195.371027 561.612733,194.907485 562.925233,194.907485 C564.383566,194.907485 565.534608,195.39186 566.378358,196.36061 C567.232525,197.32936 567.643983,198.813735 567.612733,200.813735 L561.081483,200.813735 C561.0919,201.584568 561.300233,202.188735 561.706483,202.626235 C562.112733,203.053318 562.612733,203.26686 563.206483,203.26686 C563.612733,203.26686 563.956483,203.157485 564.237733,202.938735 C564.518983,202.709568 564.727316,202.344985 564.862733,201.844985 Z M565.018983,199.219985 C564.99815,198.459568 564.800233,197.886652 564.425233,197.501235 C564.06065,197.105402 563.612733,196.907485 563.081483,196.907485 C562.508566,196.907485 562.039816,197.115818 561.675233,197.532485 C561.300233,197.938735 561.117941,198.501235 561.128358,199.219985 L565.018983,199.219985 Z M573.359254,204.98561 L577.999879,197.89186 L573.796754,191.39186 L576.999879,191.39186 L579.734254,195.751235 L582.406129,191.39186 L585.593629,191.39186 L581.359254,197.98561 L585.999879,204.98561 L582.687379,204.98561 L579.671754,200.282485 L576.656129,204.98561 L573.359254,204.98561 Z" stroke="none" fill="#F3F3F3" fill-rule="nonzero"></path>
                    <path d="M526.3513,226.98561 L526.3513,225.07936 L528.25755,225.07936 L528.25755,226.98561 L526.3513,226.98561 Z M531.534589,226.98561 L531.534589,225.07936 L533.440839,225.07936 L533.440839,226.98561 L531.534589,226.98561 Z M536.717877,226.98561 L536.717877,225.07936 L538.624127,225.07936 L538.624127,226.98561 L536.717877,226.98561 Z" stroke="none" fill="#F3F3F3" fill-rule="nonzero"></path>
                    <polygon stroke="none" fill="#4285F4" fill-rule="evenodd" points="765.79004 50.21522 906.67194 50.21522 906.67194 182.90814 765.79004 182.90814"></polygon>
                    <path d="M779.22754,112.48168 L779.22754,101.184805 L775.19629,101.184805 L775.19629,98.88793 L786.00879,98.88793 L786.00879,101.184805 L781.97754,101.184805 L781.97754,112.48168 L779.22754,112.48168 Z M786.311036,102.622305 L789.092286,102.622305 L791.451661,109.622305 L793.748536,102.622305 L796.451661,102.622305 L792.967286,112.10668 L792.342286,113.82543 C792.113119,114.398347 791.894369,114.835847 791.686036,115.13793 C791.488119,115.45043 791.253744,115.70043 790.982911,115.88793 C790.712078,116.07543 790.378744,116.221263 789.982911,116.32543 C789.587078,116.429597 789.144369,116.48168 788.654786,116.48168 C788.154786,116.48168 787.665203,116.429597 787.186036,116.32543 L786.951661,114.278555 C787.357911,114.361888 787.722494,114.403555 788.045411,114.403555 C788.659994,114.403555 789.107911,114.226472 789.389161,113.872305 C789.680828,113.518138 789.904786,113.065013 790.061036,112.51293 L786.311036,102.622305 Z M797.858582,102.622305 L800.280457,102.622305 L800.280457,104.07543 C800.592957,103.585847 801.02004,103.184805 801.561707,102.872305 C802.103374,102.559805 802.702332,102.403555 803.358582,102.403555 C804.493999,102.403555 805.462749,102.851472 806.264832,103.747305 C807.066915,104.643138 807.467957,105.893138 807.467957,107.497305 C807.467957,109.143138 807.061707,110.424388 806.249207,111.341055 C805.447124,112.247305 804.473165,112.70043 803.327332,112.70043 C802.785665,112.70043 802.290874,112.596263 801.842957,112.38793 C801.405457,112.16918 800.941915,111.79418 800.452332,111.26293 L800.452332,116.23168 L797.858582,116.23168 L797.858582,102.622305 Z M800.436707,107.38793 C800.436707,108.492097 800.655457,109.309805 801.092957,109.841055 C801.530457,110.372305 802.061707,110.63793 802.686707,110.63793 C803.30129,110.63793 803.806499,110.398347 804.202332,109.91918 C804.608582,109.429597 804.811707,108.627513 804.811707,107.51293 C804.811707,106.48168 804.603374,105.716055 804.186707,105.216055 C803.77004,104.716055 803.259624,104.466055 802.655457,104.466055 C802.009624,104.466055 801.478374,104.710847 801.061707,105.20043 C800.64504,105.690013 800.436707,106.41918 800.436707,107.38793 Z M815.020203,109.341055 L817.629578,109.778555 C817.296245,110.736888 816.764995,111.466055 816.035828,111.966055 C815.317078,112.455638 814.416036,112.70043 813.332703,112.70043 C811.62437,112.70043 810.358745,112.143138 809.535828,111.028555 C808.889995,110.132722 808.567078,108.997305 808.567078,107.622305 C808.567078,105.997305 808.988953,104.721263 809.832703,103.79418 C810.68687,102.867097 811.770203,102.403555 813.082703,102.403555 C814.541036,102.403555 815.692078,102.88793 816.535828,103.85668 C817.389995,104.82543 817.801453,106.309805 817.770203,108.309805 L811.238953,108.309805 C811.24937,109.080638 811.457703,109.684805 811.863953,110.122305 C812.270203,110.549388 812.770203,110.76293 813.363953,110.76293 C813.770203,110.76293 814.113953,110.653555 814.395203,110.434805 C814.676453,110.205638 814.884786,109.841055 815.020203,109.341055 Z M815.176453,106.716055 C815.15562,105.955638 814.957703,105.382722 814.582703,104.997305 C814.21812,104.601472 813.770203,104.403555 813.238953,104.403555 C812.666036,104.403555 812.197286,104.611888 811.832703,105.028555 C811.457703,105.434805 811.275411,105.997305 811.285828,106.716055 L815.176453,106.716055 Z M828.469849,112.48168 L828.469849,106.76293 L823.485474,98.88793 L826.704224,98.88793 L829.907349,104.26293 L833.047974,98.88793 L836.204224,98.88793 L831.204224,106.778555 L831.204224,112.48168 L828.469849,112.48168 Z" stroke="none" fill="#F3F3F3" fill-rule="nonzero"></path>
                    <path d="M776.5088,134.48167 L776.5088,132.57542 L778.41505,132.57542 L778.41505,134.48167 L776.5088,134.48167 Z M781.692089,134.48167 L781.692089,132.57542 L783.598339,132.57542 L783.598339,134.48167 L781.692089,134.48167 Z M786.875377,134.48167 L786.875377,132.57542 L788.781627,132.57542 L788.781627,134.48167 L786.875377,134.48167 Z" stroke="none" fill="#F3F3F3" fill-rule="nonzero"></path>
                    <path d="M656.51447,209.06561 L765.80579,116.56167" stroke="none" fill-opacity="0" fill="#000000" fill-rule="evenodd"></path>
                    <path d="M656.51447,209.06561 L765.80579,116.56167" stroke="#4285F4" stroke-width="4" fill="none" stroke-linejoin="round"></path>
                    <polygon stroke="none" fill="#34A853" fill-rule="evenodd" points="105.64042 104.46719 246.52232 104.46719 246.52232 237.16011 105.64042 237.16011"></polygon>
                    <path d="M119.07792,166.73364 L119.07792,155.436765 L115.04667,155.436765 L115.04667,153.13989 L125.85917,153.13989 L125.85917,155.436765 L121.82792,155.436765 L121.82792,166.73364 L119.07792,166.73364 Z M126.161401,156.874265 L128.942659,156.874265 L131.302034,163.874265 L133.598909,156.874265 L136.302034,156.874265 L132.817659,166.35864 L132.192659,168.07739 C131.963492,168.650307 131.744742,169.087807 131.536409,169.38989 C131.338492,169.70239 131.104117,169.95239 130.833284,170.13989 C130.56245,170.32739 130.229117,170.473223 129.833284,170.57739 C129.43745,170.681557 128.994742,170.73364 128.505159,170.73364 C128.005154,170.73364 127.515568,170.681557 127.036401,170.57739 L126.802026,168.530515 C127.208276,168.613848 127.572859,168.655515 127.895776,168.655515 C128.510364,168.655515 128.958284,168.478432 129.239534,168.124265 C129.5312,167.770098 129.755159,167.316973 129.911409,166.76489 L126.161401,156.874265 Z M137.709001,156.874265 L140.130876,156.874265 L140.130876,158.32739 C140.443376,157.837807 140.870459,157.436765 141.412126,157.124265 C141.953793,156.811765 142.552751,156.655515 143.209001,156.655515 C144.344418,156.655515 145.313168,157.103432 146.115251,157.999265 C146.917334,158.895098 147.318376,160.145098 147.318376,161.749265 C147.318376,163.395098 146.912126,164.676348 146.099626,165.593015 C145.297543,166.499265 144.323584,166.95239 143.177751,166.95239 C142.636084,166.95239 142.141293,166.848223 141.693376,166.63989 C141.255876,166.42114 140.792334,166.04614 140.302751,165.51489 L140.302751,170.48364 L137.709001,170.48364 L137.709001,156.874265 Z M140.287126,161.63989 C140.287126,162.744057 140.505876,163.561765 140.943376,164.093015 C141.380876,164.624265 141.912126,164.88989 142.537126,164.88989 C143.151709,164.88989 143.656918,164.650307 144.052751,164.17114 C144.459001,163.681557 144.662126,162.879473 144.662126,161.76489 C144.662126,160.73364 144.453793,159.968015 144.037126,159.468015 C143.620459,158.968015 143.110043,158.718015 142.505876,158.718015 C141.860043,158.718015 141.328793,158.962807 140.912126,159.45239 C140.495459,159.941973 140.287126,160.67114 140.287126,161.63989 Z M154.870607,163.593015 L157.479982,164.030515 C157.146649,164.988848 156.615399,165.718015 155.886232,166.218015 C155.167482,166.707598 154.26644,166.95239 153.183107,166.95239 C151.474774,166.95239 150.209149,166.395098 149.386232,165.280515 C148.740399,164.384682 148.417482,163.249265 148.417482,161.874265 C148.417482,160.249265 148.839357,158.973223 149.683107,158.04614 C150.537274,157.119057 151.620607,156.655515 152.933107,156.655515 C154.39144,156.655515 155.542482,157.13989 156.386232,158.10864 C157.240399,159.07739 157.651857,160.561765 157.620607,162.561765 L151.089357,162.561765 C151.099774,163.332598 151.308107,163.936765 151.714357,164.374265 C152.120607,164.801348 152.620607,165.01489 153.214357,165.01489 C153.620607,165.01489 153.964357,164.905515 154.245607,164.686765 C154.526857,164.457598 154.73519,164.093015 154.870607,163.593015 Z M155.026857,160.968015 C155.006024,160.207598 154.808107,159.634682 154.433107,159.249265 C154.068524,158.853432 153.620607,158.655515 153.089357,158.655515 C152.51644,158.655515 152.04769,158.863848 151.683107,159.280515 C151.308107,159.686765 151.125815,160.249265 151.136232,160.968015 L155.026857,160.968015 Z M170.851503,166.73364 L168.242128,166.73364 L168.242128,156.905515 C167.283795,157.801348 166.158795,158.462807 164.867128,158.88989 L164.867128,156.51489 C165.554628,156.29614 166.294211,155.879473 167.085878,155.26489 C167.887961,154.63989 168.434836,153.910723 168.726503,153.07739 L170.851503,153.07739 L170.851503,166.73364 Z" stroke="none" fill="#F3F3F3" fill-rule="nonzero"></path>
                    <path d="M116.35917,188.73364 L116.35917,186.82739 L118.26542,186.82739 L118.26542,188.73364 L116.35917,188.73364 Z M121.542474,188.73364 L121.542474,186.82739 L123.448724,186.82739 L123.448724,188.73364 L121.542474,188.73364 Z M126.725778,188.73364 L126.725778,186.82739 L128.632036,186.82739 L128.632036,188.73364 L126.725778,188.73364 Z" stroke="none" fill="#F3F3F3" fill-rule="nonzero"></path>
                    <polygon stroke="none" fill="#34A853" fill-rule="evenodd" points="262.41733 310.5013 403.29923 310.5013 403.29923 443.1942 262.41733 443.1942"></polygon>
                    <path d="M275.85483,372.76776 L275.85483,361.470885 L271.82358,361.470885 L271.82358,359.17401 L282.63608,359.17401 L282.63608,361.470885 L278.60483,361.470885 L278.60483,372.76776 L275.85483,372.76776 Z M282.938296,362.908385 L285.719546,362.908385 L288.078921,369.908385 L290.375796,362.908385 L293.078921,362.908385 L289.594546,372.39276 L288.969546,374.11151 C288.740379,374.684427 288.521629,375.121927 288.313296,375.42401 C288.115379,375.73651 287.881004,375.98651 287.610171,376.17401 C287.339337,376.36151 287.006004,376.507343 286.610171,376.61151 C286.214337,376.715677 285.771629,376.76776 285.282046,376.76776 C284.782046,376.76776 284.292462,376.715677 283.813296,376.61151 L283.578921,374.564635 C283.985171,374.647968 284.349754,374.689635 284.672671,374.689635 C285.287254,374.689635 285.735171,374.512552 286.016421,374.158385 C286.308087,373.804218 286.532046,373.351093 286.688296,372.79901 L282.938296,362.908385 Z M294.485903,362.908385 L296.907778,362.908385 L296.907778,364.36151 C297.220278,363.871927 297.647361,363.470885 298.189028,363.158385 C298.730694,362.845885 299.329653,362.689635 299.985903,362.689635 C301.121319,362.689635 302.090069,363.137552 302.892153,364.033385 C303.694236,364.929218 304.095278,366.179218 304.095278,367.783385 C304.095278,369.429218 303.689028,370.710468 302.876528,371.627135 C302.074444,372.533385 301.100486,372.98651 299.954653,372.98651 C299.412986,372.98651 298.918194,372.882343 298.470278,372.67401 C298.032778,372.45526 297.569236,372.08026 297.079653,371.54901 L297.079653,376.51776 L294.485903,376.51776 L294.485903,362.908385 Z M297.064028,367.67401 C297.064028,368.778177 297.282778,369.595885 297.720278,370.127135 C298.157778,370.658385 298.689028,370.92401 299.314028,370.92401 C299.928611,370.92401 300.433819,370.684427 300.829653,370.20526 C301.235903,369.715677 301.439028,368.913593 301.439028,367.79901 C301.439028,366.76776 301.230694,366.002135 300.814028,365.502135 C300.397361,365.002135 299.886944,364.752135 299.282778,364.752135 C298.636944,364.752135 298.105694,364.996927 297.689028,365.48651 C297.272361,365.976093 297.064028,366.70526 297.064028,367.67401 Z M311.647494,369.627135 L314.256869,370.064635 C313.923535,371.022968 313.392285,371.752135 312.663119,372.252135 C311.944369,372.741718 311.043327,372.98651 309.959994,372.98651 C308.25166,372.98651 306.986035,372.429218 306.163119,371.314635 C305.517285,370.418802 305.194369,369.283385 305.194369,367.908385 C305.194369,366.283385 305.616244,365.007343 306.459994,364.08026 C307.31416,363.153177 308.397494,362.689635 309.709994,362.689635 C311.168327,362.689635 312.319369,363.17401 313.163119,364.14276 C314.017285,365.11151 314.428744,366.595885 314.397494,368.595885 L307.866244,368.595885 C307.87666,369.366718 308.084994,369.970885 308.491244,370.408385 C308.897494,370.835468 309.397494,371.04901 309.991244,371.04901 C310.397494,371.04901 310.741244,370.939635 311.022494,370.720885 C311.303744,370.491718 311.512077,370.127135 311.647494,369.627135 Z M311.803744,367.002135 C311.78291,366.241718 311.584994,365.668802 311.209994,365.283385 C310.84541,364.887552 310.397494,364.689635 309.866244,364.689635 C309.293327,364.689635 308.824577,364.897968 308.459994,365.314635 C308.084994,365.720885 307.902702,366.283385 307.913119,367.002135 L311.803744,367.002135 Z M320.862765,369.158385 L323.37839,368.845885 C323.461723,369.491718 323.680473,369.98651 324.03464,370.33026 C324.388806,370.663593 324.81589,370.83026 325.31589,370.83026 C325.84714,370.83026 326.295056,370.627135 326.65964,370.220885 C327.03464,369.814635 327.22214,369.26776 327.22214,368.58026 C327.22214,367.92401 327.045056,367.403177 326.69089,367.01776 C326.336723,366.632343 325.90964,366.439635 325.40964,366.439635 C325.076306,366.439635 324.675265,366.507343 324.206515,366.64276 L324.487765,364.51776 C325.196098,364.528177 325.732556,364.371927 326.09714,364.04901 C326.47214,363.726093 326.65964,363.293802 326.65964,362.752135 C326.65964,362.293802 326.524223,361.929218 326.25339,361.658385 C325.982556,361.387552 325.623181,361.252135 325.175265,361.252135 C324.727348,361.252135 324.34714,361.408385 324.03464,361.720885 C323.72214,362.033385 323.529431,362.48651 323.456515,363.08026 L321.050265,362.658385 C321.216931,361.835468 321.466931,361.179218 321.800265,360.689635 C322.144015,360.200052 322.617973,359.814635 323.22214,359.533385 C323.826306,359.252135 324.50339,359.11151 325.25339,359.11151 C326.524223,359.11151 327.550265,359.51776 328.331515,360.33026 C328.966931,360.996927 329.28464,361.752135 329.28464,362.595885 C329.28464,363.793802 328.633598,364.746927 327.331515,365.45526 C328.102348,365.621927 328.72214,365.996927 329.19089,366.58026 C329.65964,367.163593 329.894015,367.866718 329.894015,368.689635 C329.894015,369.877135 329.456515,370.89276 328.581515,371.73651 C327.716931,372.58026 326.633598,373.002135 325.331515,373.002135 C324.102348,373.002135 323.081515,372.647968 322.269015,371.939635 C321.456515,371.231302 320.987765,370.304218 320.862765,369.158385 Z" stroke="none" fill="#F3F3F3" fill-rule="nonzero"></path>
                    <path d="M273.13608,394.76776 L273.13608,392.86151 L275.04233,392.86151 L275.04233,394.76776 L273.13608,394.76776 Z M278.319369,394.76776 L278.319369,392.86151 L280.225619,392.86151 L280.225619,394.76776 L278.319369,394.76776 Z M283.502688,394.76776 L283.502688,392.86151 L285.408938,392.86151 L285.408938,394.76776 L283.502688,394.76776 Z" stroke="none" fill="#F3F3F3" fill-rule="nonzero"></path>
                    <polygon stroke="none" fill="#34A853" fill-rule="evenodd" points="81.750656 340.55643 222.632556 340.55643 222.632556 473.24933 81.750656 473.24933"></polygon>
                    <path d="M95.188156,402.82288 L95.188156,391.526005 L91.156906,391.526005 L91.156906,389.22913 L101.969406,389.22913 L101.969406,391.526005 L97.938156,391.526005 L97.938156,402.82288 L95.188156,402.82288 Z M102.271637,392.963505 L105.052887,392.963505 L107.412262,399.963505 L109.709137,392.963505 L112.412262,392.963505 L108.927887,402.44788 L108.302887,404.16663 C108.07372,404.739547 107.85497,405.177047 107.646637,405.47913 C107.44872,405.79163 107.214345,406.04163 106.943512,406.22913 C106.672679,406.41663 106.339345,406.562463 105.943512,406.66663 C105.547679,406.770797 105.10497,406.82288 104.615387,406.82288 C104.115387,406.82288 103.625804,406.770797 103.146637,406.66663 L102.912262,404.619755 C103.318512,404.703088 103.683095,404.744755 104.006012,404.744755 C104.620595,404.744755 105.068512,404.567672 105.349762,404.213505 C105.641429,403.859338 105.865387,403.406213 106.021637,402.85413 L102.271637,392.963505 Z M113.819229,392.963505 L116.241104,392.963505 L116.241104,394.41663 C116.553604,393.927047 116.980687,393.526005 117.522354,393.213505 C118.064021,392.901005 118.662979,392.744755 119.319229,392.744755 C120.454646,392.744755 121.423396,393.192672 122.225479,394.088505 C123.027562,394.984338 123.428604,396.234338 123.428604,397.838505 C123.428604,399.484338 123.022354,400.765588 122.209854,401.682255 C121.407771,402.588505 120.433812,403.04163 119.287979,403.04163 C118.746312,403.04163 118.251521,402.937463 117.803604,402.72913 C117.366104,402.51038 116.902562,402.13538 116.412979,401.60413 L116.412979,406.57288 L113.819229,406.57288 L113.819229,392.963505 Z M116.397354,397.72913 C116.397354,398.833297 116.616104,399.651005 117.053604,400.182255 C117.491104,400.713505 118.022354,400.97913 118.647354,400.97913 C119.261937,400.97913 119.767146,400.739547 120.162979,400.26038 C120.569229,399.770797 120.772354,398.968713 120.772354,397.85413 C120.772354,396.82288 120.564021,396.057255 120.147354,395.557255 C119.730687,395.057255 119.220271,394.807255 118.616104,394.807255 C117.970271,394.807255 117.439021,395.052047 117.022354,395.54163 C116.605687,396.031213 116.397354,396.76038 116.397354,397.72913 Z M130.980835,399.682255 L133.59021,400.119755 C133.256877,401.078088 132.725627,401.807255 131.99646,402.307255 C131.27771,402.796838 130.376668,403.04163 129.293335,403.04163 C127.585002,403.04163 126.319377,402.484338 125.49646,401.369755 C124.850627,400.473922 124.52771,399.338505 124.52771,397.963505 C124.52771,396.338505 124.949585,395.062463 125.793335,394.13538 C126.647502,393.208297 127.730835,392.744755 129.043335,392.744755 C130.501668,392.744755 131.65271,393.22913 132.49646,394.19788 C133.350627,395.16663 133.762085,396.651005 133.730835,398.651005 L127.199585,398.651005 C127.210002,399.421838 127.418335,400.026005 127.824585,400.463505 C128.230835,400.890588 128.730835,401.10413 129.324585,401.10413 C129.730835,401.10413 130.074585,400.994755 130.355835,400.776005 C130.637085,400.546838 130.845418,400.182255 130.980835,399.682255 Z M131.137085,397.057255 C131.116252,396.296838 130.918335,395.723922 130.543335,395.338505 C130.178752,394.942672 129.730835,394.744755 129.199585,394.744755 C128.626668,394.744755 128.157918,394.953088 127.793335,395.369755 C127.418335,395.776005 127.236043,396.338505 127.24646,397.057255 L131.137085,397.057255 Z M149.086731,400.401005 L149.086731,402.82288 L139.946106,402.82288 C140.050273,401.906213 140.347148,401.04163 140.836731,400.22913 C141.336731,399.406213 142.315898,398.317672 143.774231,396.963505 C144.951314,395.869755 145.670064,395.124963 145.930481,394.72913 C146.295064,394.19788 146.477356,393.66663 146.477356,393.13538 C146.477356,392.552047 146.321106,392.10413 146.008606,391.79163 C145.696106,391.47913 145.263814,391.32288 144.711731,391.32288 C144.170064,391.32288 143.737773,391.489547 143.414856,391.82288 C143.091939,392.145797 142.904439,392.687463 142.852356,393.44788 L140.258606,393.19788 C140.414856,391.76038 140.899231,390.72913 141.711731,390.10413 C142.524231,389.47913 143.545064,389.16663 144.774231,389.16663 C146.117981,389.16663 147.170064,389.531213 147.930481,390.26038 C148.701314,390.97913 149.086731,391.874963 149.086731,392.94788 C149.086731,393.562463 148.977356,394.145797 148.758606,394.69788 C148.539856,395.249963 148.190898,395.828088 147.711731,396.432255 C147.399231,396.838505 146.831523,397.421838 146.008606,398.182255 C145.185689,398.932255 144.664856,399.432255 144.446106,399.682255 C144.227356,399.921838 144.050273,400.161422 143.914856,400.401005 L149.086731,400.401005 Z" stroke="none" fill="#F3F3F3" fill-rule="nonzero"></path>
                    <path d="M92.469406,424.82288 L92.469406,422.91663 L94.375656,422.91663 L94.375656,424.82288 L92.469406,424.82288 Z M97.65271,424.82288 L97.65271,422.91663 L99.55896,422.91663 L99.55896,424.82288 L97.65271,424.82288 Z M102.836014,424.82288 L102.836014,422.91663 L104.742264,422.91663 L104.742264,424.82288 L102.836014,424.82288 Z" stroke="none" fill="#F3F3F3" fill-rule="nonzero"></path>
                    <path d="M176.08136,237.16011 L332.86877,310.514434" stroke="none" fill-opacity="0" fill="#000000" fill-rule="evenodd"></path>
                    <path d="M176.08136,237.16011 L332.86877,310.514434" stroke="#34A853" stroke-width="4" fill="none" stroke-linejoin="round"></path>
                    <path d="M176.08136,237.16011 L152.207352,340.561676" stroke="none" fill-opacity="0" fill="#000000" fill-rule="evenodd"></path>
                    <path d="M176.08136,237.16011 L152.207352,340.561676" stroke="#34A853" stroke-width="4" fill="none" stroke-linejoin="round"></path>
                    <path d="M222.63255,406.9029 L262.412076,376.855659" stroke="none" fill-opacity="0" fill="#000000" fill-rule="evenodd"></path>
                    <path d="M222.63255,406.9029 L262.412076,376.855659" stroke="#34A853" stroke-width="4" fill="none" stroke-linejoin="round"></path>
                    <path d="M515.63257,209.06561 L246.53017,170.82939" stroke="none" fill-opacity="0" fill="#000000" fill-rule="evenodd"></path>
                    <path d="M515.63257,209.06561 L246.53017,170.82939" stroke="#EA4335" stroke-width="4" fill="none" stroke-linejoin="round" stroke-dasharray="16,12"></path>
                    <path d="M515.63257,209.06561 L403.286104,376.84515" stroke="none" fill-opacity="0" fill="#000000" fill-rule="evenodd"></path>
                    <path d="M515.63257,209.06561 L403.286104,376.84515" stroke="#EA4335" stroke-width="4" fill="none" stroke-linejoin="round" stroke-dasharray="16,12"></path>
                </g>
            </g>
        </g>
    </g>
</svg>
